# This file uses centimeters as units for non-parametric coordinates.

mtllib WheelchairGeo.mtl
g default
v 0.024293 0.040568 0.355556
v 0.024293 0.040568 -0.288477
v 0.024293 1.624365 -0.005125
v 0.024293 1.623499 -0.108356
v -0.024293 1.624365 -0.005125
v -0.024293 1.623499 -0.108356
v -0.024293 0.040568 0.355556
v -0.024293 0.040568 -0.288477
v 0.024293 1.374301 0.003733
v -0.024293 1.374301 0.003733
v -0.024293 1.362176 -0.205853
v 0.024293 1.362176 -0.205853
v 0.024293 0.988584 0.254101
v -0.024293 0.988584 0.254101
v -0.024293 0.995603 -0.335410
v 0.024293 0.995603 -0.335410
v 0.024293 0.496120 0.431926
v -0.024293 0.496120 0.431926
v -0.024293 0.496120 -0.477407
v 0.024293 0.496120 -0.477407
v 0.024293 0.171483 0.376818
v -0.024293 0.171483 0.376818
v -0.024293 0.171483 -0.319454
v 0.024293 0.171483 -0.319454
v 0.024293 0.121886 0.355556
v -0.024293 0.121886 0.355556
v -0.024293 0.121886 -0.288477
v 0.024293 0.121886 -0.288477
v 0.024293 0.670479 -0.458789
v 0.024293 0.670479 0.425186
v -0.024293 0.670479 0.425186
v -0.024293 0.670479 -0.458789
v 0.024293 0.871651 -0.308813
v 0.024293 0.912117 0.392942
v -0.024293 0.912117 0.392942
v -0.024293 0.871651 -0.308813
v 0.024293 0.769930 0.425570
v -0.024293 0.769930 0.425570
v -0.024293 0.769930 -0.415112
v 0.024293 0.769930 -0.415112
v 0.024293 0.229599 0.431135
v -0.024293 0.229599 0.431135
v -0.024293 0.229599 -0.330860
v 0.024293 0.229599 -0.330860
v 0.024293 0.326450 0.467176
v -0.024293 0.326450 0.467176
v -0.024293 0.326450 -0.420812
v 0.024293 0.326450 -0.420812
v 0.024293 1.209388 0.163215
v -0.024293 1.209388 0.163215
v -0.024293 1.196397 -0.334800
v 0.024293 1.196397 -0.334800
v 0.024293 1.311473 0.130672
v -0.024293 1.311473 0.130672
v -0.024293 1.301080 -0.326565
v 0.024293 1.301080 -0.326565
v 0.024293 1.493167 0.041463
v -0.024293 1.493167 0.041463
v -0.024293 1.493167 -0.166616
v 0.024293 1.493167 -0.166616
v 0.024293 1.414337 0.027175
v -0.024293 1.414338 0.027175
v -0.024293 1.414338 -0.152061
v 0.024293 1.414337 -0.152061
v 0.024293 1.560344 0.038877
v -0.024293 1.560344 0.038877
v -0.024293 1.560344 -0.157194
v 0.024293 1.560344 -0.157194
v 0.024293 1.579679 0.038133
v -0.024293 1.579679 0.038133
v -0.024293 1.579679 -0.150992
v 0.024293 1.579679 -0.150992
v 0.024293 1.457957 0.035081
v -0.024293 1.457957 0.035081
v -0.024293 1.457957 -0.144525
v 0.024293 1.457957 -0.144525
v 0.024293 0.937710 0.272883
v -0.024293 0.937710 0.272883
v -0.024293 0.933097 -0.321998
v 0.024293 0.933097 -0.321998
v 0.024293 0.287163 0.498350
v -0.024293 0.287163 0.498350
v -0.024293 0.287163 -0.384324
v 0.024293 0.287163 -0.384324
vt 0.161659 0.748564
vt 0.743980 0.026022
vt 0.026715 0.651950
vt 0.051986 0.873178
vt 0.287006 0.745632
vt 0.182501 0.968782
vt 0.069687 0.737525
vt 0.339152 0.896796
vt 0.052929 0.877127
vt 0.142837 0.887920
vt 0.157255 0.752113
vt 0.156855 0.873524
vt 0.056841 0.748042
vt 0.056203 0.876103
vt 0.052386 0.751768
vt 0.633601 0.968708
vt 0.567035 0.970538
vt 0.060720 0.639379
vt 0.328671 0.034294
vt 0.161021 0.876625
vt 0.148496 0.981353
vt 0.306241 0.745796
vt 0.219145 0.896277
vt 0.159595 0.748318
vt 0.161107 0.859349
vt 0.560430 0.825421
vt 0.056289 0.858827
vt 0.285254 0.768923
vt 0.324303 0.770221
vt 0.156926 0.851983
vt 0.695540 0.815687
vt 0.052057 0.851637
vt 0.161282 0.824308
vt 0.397604 0.604622
vt 0.056464 0.823786
vt 0.238446 0.804658
vt 0.348297 0.804479
vt 0.157022 0.822839
vt 0.777779 0.601126
vt 0.052153 0.822494
vt 0.161474 0.785761
vt 0.295062 0.320895
vt 0.056656 0.785240
vt 0.205113 0.850396
vt 0.374555 0.851129
vt 0.157139 0.787120
vt 0.867566 0.309215
vt 0.052271 0.786775
vt 0.161611 0.758149
vt 0.329441 0.131646
vt 0.056793 0.757627
vt 0.215250 0.880687
vt 0.344991 0.881248
vt 0.157221 0.762439
vt 0.764552 0.122703
vt 0.052352 0.762093
vt 0.161628 0.754725
vt 0.329090 0.102568
vt 0.056810 0.754203
vt 0.219192 0.885325
vt 0.339199 0.885844
vt 0.157234 0.758277
vt 0.744399 0.094296
vt 0.052366 0.757932
vt 0.856182 0.410718
vt 0.052240 0.796123
vt 0.161428 0.794927
vt 0.300030 0.422072
vt 0.056610 0.794405
vt 0.206439 0.834157
vt 0.371156 0.834870
vt 0.157109 0.796469
vt 0.760186 0.529480
vt 0.052176 0.815421
vt 0.161361 0.808338
vt 0.321684 0.561995
vt 0.056543 0.807816
vt 0.212544 0.811670
vt 0.343291 0.816006
vt 0.157045 0.815767
vt 0.161402 0.800139
vt 0.300137 0.479836
vt 0.056584 0.799617
vt 0.206407 0.824891
vt 0.363057 0.825569
vt 0.157086 0.803409
vt 0.828371 0.469037
vt 0.052217 0.803064
vt 0.161579 0.764606
vt 0.294622 0.166096
vt 0.056761 0.764084
vt 0.205152 0.875228
vt 0.347140 0.875843
vt 0.157210 0.765712
vt 0.772114 0.156309
vt 0.052341 0.765367
vt 0.161522 0.776132
vt 0.271726 0.222808
vt 0.056704 0.775610
vt 0.198476 0.866176
vt 0.363940 0.866892
vt 0.157175 0.776426
vt 0.830465 0.211402
vt 0.052306 0.776080
vt 0.161207 0.839297
vt 0.457000 0.731692
vt 0.056389 0.838775
vt 0.255471 0.784159
vt 0.348264 0.785771
vt 0.156987 0.833368
vt 0.778102 0.717750
vt 0.052118 0.833023
vt 0.161175 0.845642
vt 0.478349 0.790562
vt 0.056358 0.845120
vt 0.261576 0.774674
vt 0.346772 0.776011
vt 0.156969 0.838925
vt 0.773165 0.778653
vt 0.052100 0.838579
vt 0.161069 0.866974
vt 0.536524 0.894939
vt 0.056251 0.866452
vt 0.278272 0.757818
vt 0.317044 0.757986
vt 0.156887 0.863634
vt 0.670705 0.892267
vt 0.052019 0.863289
vt 0.161091 0.862580
vt 0.545457 0.848974
vt 0.056273 0.862058
vt 0.280902 0.765174
vt 0.314301 0.765318
vt 0.156905 0.858252
vt 0.661038 0.846672
vt 0.052036 0.857906
vt 0.161052 0.870505
vt 0.538431 0.933921
vt 0.056234 0.869983
vt 0.278781 0.751561
vt 0.315316 0.751719
vt 0.156875 0.867292
vt 0.664869 0.931403
vt 0.052007 0.866947
vt 0.161047 0.871522
vt 0.538980 0.945141
vt 0.056229 0.871000
vt 0.278927 0.749760
vt 0.314168 0.749913
vt 0.156871 0.868497
vt 0.660939 0.942712
vt 0.052003 0.868151
vt 0.161079 0.865011
vt 0.540514 0.874408
vt 0.056261 0.864490
vt 0.279447 0.761104
vt 0.312914 0.761248
vt 0.156897 0.860672
vt 0.656334 0.872101
vt 0.052028 0.860326
vt 0.161298 0.820994
vt 0.385311 0.575317
vt 0.056480 0.820472
vt 0.234926 0.809382
vt 0.345772 0.810292
vt 0.157033 0.819273
vt 0.768907 0.564996
vt 0.052165 0.818927
vt 0.161541 0.772270
vt 0.251483 0.200392
vt 0.056723 0.771748
vt 0.192651 0.869811
vt 0.357126 0.870522
vt 0.157189 0.772080
vt 0.806796 0.189054
vt 0.052320 0.771734
vn 1.000000 0.000000 0.000000
vn 1.000000 0.000000 0.000000
vn 1.000000 0.000000 0.000000
vn 1.000000 0.000000 0.000000
vn 0.000000 0.999965 -0.008389
vn 0.000000 0.999965 -0.008389
vn 0.000000 0.999965 -0.008389
vn 0.000000 0.999965 -0.008389
vn -1.000000 0.000000 -0.000000
vn -1.000000 0.000000 -0.000000
vn -1.000000 0.000000 -0.000000
vn -1.000000 0.000000 -0.000000
vn 0.000000 -1.000000 0.000000
vn 0.000000 -1.000000 0.000000
vn 0.000000 -1.000000 0.000000
vn 0.000000 -1.000000 0.000000
vn 0.000000 0.000000 -1.000000
vn 0.000000 0.000000 -1.000000
vn 0.000000 -0.230263 -0.973128
vn 0.000000 -0.230263 -0.973128
vn 0.000000 -0.000000 1.000000
vn 0.000000 -0.000000 1.000000
vn 0.000000 -0.160313 0.987066
vn 0.000000 -0.160313 0.987066
vn 0.000001 0.709272 0.704935
vn 0.000001 0.709272 0.704935
vn -0.000000 -0.350898 0.936414
vn -0.000000 -0.350898 0.936414
vn -1.000000 0.000000 -0.000000
vn -1.000000 0.000000 -0.000000
vn -1.000000 0.000000 0.000000
vn -1.000000 0.000000 0.000000
vn 0.000000 0.838819 -0.544411
vn 0.000000 0.838819 -0.544411
vn 0.000000 0.539231 -0.842158
vn 0.000000 0.539231 -0.842158
vn 1.000000 0.000000 0.000000
vn 1.000000 0.000000 0.000000
vn 1.000000 0.000000 0.000000
vn 1.000000 0.000000 0.000000
vn 0.000000 0.374323 0.927298
vn 0.000000 0.374323 0.927298
vn 0.000000 0.357065 0.934079
vn 0.000000 0.357065 0.934079
vn -1.000000 0.000000 0.000000
vn -1.000000 0.000000 0.000000
vn -1.000000 0.000000 -0.000000
vn -1.000000 0.000000 -0.000000
vn 0.000000 -0.048566 -0.998820
vn 0.000000 -0.048566 -0.998820
vn 0.000000 0.028942 -0.999581
vn 0.000000 0.028942 -0.999581
vn 1.000000 0.000000 -0.000000
vn 1.000000 0.000000 -0.000000
vn 1.000000 0.000000 0.000000
vn 1.000000 0.000000 0.000000
vn 0.000000 0.121152 0.992634
vn 0.000000 0.121152 0.992634
vn 0.000000 0.023204 0.999731
vn 0.000000 0.023204 0.999731
vn -1.000000 0.000000 -0.000000
vn -1.000000 0.000000 -0.000000
vn -1.000000 0.000000 -0.000000
vn -1.000000 0.000000 -0.000000
vn 0.000000 -0.109723 -0.993962
vn 0.000000 -0.109723 -0.993962
vn 0.000000 0.221844 -0.975082
vn 0.000000 0.221844 -0.975082
vn 1.000000 0.000000 0.000000
vn 1.000000 0.000000 0.000000
vn 1.000000 0.000000 0.000000
vn 1.000000 0.000000 0.000000
vn 0.000000 -0.574380 0.818589
vn 0.000000 -0.574380 0.818589
vn 0.000000 -0.724328 0.689455
vn 0.000000 -0.724328 0.689455
vn -1.000000 0.000000 -0.000000
vn -1.000000 0.000000 -0.000000
vn -1.000000 0.000000 -0.000000
vn -1.000000 0.000000 -0.000000
vn 0.000000 -0.366158 -0.930553
vn 0.000000 -0.366158 -0.930553
vn 0.000000 -0.489113 -0.872220
vn 0.000000 -0.489113 -0.872220
vn 1.000000 0.000000 0.000000
vn 1.000000 0.000000 0.000000
vn 1.000000 0.000000 0.000000
vn 1.000000 0.000000 0.000000
vn 1.000000 0.000000 0.000000
vn 1.000000 0.000000 0.000000
vn 0.000000 0.132269 0.991214
vn 0.000000 0.132269 0.991214
vn -1.000000 0.000000 -0.000000
vn -1.000000 0.000000 -0.000000
vn 0.000000 0.597693 -0.801725
vn 0.000000 0.597693 -0.801725
vn 1.000000 0.000000 0.000000
vn 1.000000 0.000000 0.000000
vn 1.000000 0.000000 -0.000000
vn 1.000000 0.000000 -0.000000
vn 0.000000 0.673059 0.739589
vn 0.000000 0.673059 0.739589
vn 0.000000 0.875935 0.482430
vn 0.000000 0.875935 0.482430
vn -1.000000 0.000000 0.000000
vn -1.000000 0.000000 -0.000000
vn -1.000000 0.000000 0.000000
vn -1.000000 0.000000 0.000000
vn 0.000000 0.495643 -0.868526
vn 0.000000 0.495643 -0.868526
vn 0.000000 -0.209797 -0.977745
vn 0.000000 -0.209797 -0.977745
vn 0.000000 -0.348759 0.937213
vn 0.000000 -0.348759 0.937213
vn -1.000000 0.000000 -0.000000
vn -1.000000 0.000000 -0.000000
vn 0.000000 -0.680526 -0.732724
vn 0.000000 -0.680526 -0.732724
vn 1.000000 0.000000 0.000000
vn 1.000000 0.000000 0.000000
vn 0.000000 0.302946 0.953008
vn 0.000000 0.302946 0.953008
vn -1.000000 0.000000 -0.000000
vn -1.000000 0.000000 -0.000000
vn 0.000000 -0.406920 -0.913464
vn 0.000000 -0.406920 -0.913464
vn 1.000000 0.000000 0.000000
vn 1.000000 0.000000 0.000000
vn 0.000000 0.695169 0.718846
vn 0.000000 0.695169 0.718846
vn -1.000000 0.000000 0.000000
vn -1.000000 0.000000 0.000000
vn 0.000000 0.613965 -0.789333
vn 0.000000 0.613965 -0.789333
vn 1.000000 0.000000 0.000000
vn 1.000000 0.000000 0.000000
vn 0.000000 -0.037050 0.999313
vn 0.000000 -0.037050 0.999313
vn 0.000000 0.038462 0.999260
vn 0.000000 0.038462 0.999260
vn -1.000000 0.000000 -0.000000
vn -1.000000 0.000000 -0.000000
vn -1.000000 0.000000 -0.000000
vn -1.000000 0.000000 -0.000000
vn 0.000000 -0.122797 -0.992432
vn 0.000000 -0.122797 -0.992432
vn 0.000000 0.177720 -0.984081
vn 0.000000 0.177720 -0.984081
vn 1.000000 0.000000 0.000000
vn 1.000000 0.000000 0.000000
vn 1.000000 0.000000 0.000000
vn 1.000000 0.000000 0.000000
vn -0.000000 -0.178339 0.983969
vn -0.000000 -0.178339 0.983969
vn -1.000000 0.000000 -0.000000
vn -1.000000 0.000000 -0.000000
vn 0.000000 -0.181572 -0.983378
vn 0.000000 -0.181572 -0.983378
vn 1.000000 0.000000 0.000000
vn 1.000000 0.000000 0.000000
vn 0.000001 0.566427 0.824112
vn 0.000001 0.566427 0.824112
vn -1.000000 0.000000 -0.000000
vn -1.000000 0.000000 -0.000000
vn 0.000000 0.611730 -0.791067
vn 0.000000 0.611730 -0.791067
vn 1.000000 0.000000 0.000000
vn 1.000000 0.000000 0.000000
vn 0.000001 0.695540 0.718487
vn 0.000001 0.695540 0.718487
vn -1.000000 0.000000 -0.000000
vn -1.000000 0.000000 -0.000000
vn 0.000000 0.697359 -0.716722
vn 0.000000 0.697359 -0.716722
vn 1.000000 0.000000 0.000000
vn 1.000000 0.000000 0.000000
s 1
g pCube1
usemtl initialShadingGroup
f 1/19/1 2/2/2 28/63/3 25/58/4
s off
f 3/3/5 4/18/6 6/6/7 5/21/8
s 2
f 26/60/9 27/61/10 8/8/11 7/23/12
s off
f 7/7/13 8/24/14 2/10/15 1/9/16
s 3
f 2/15/17 8/11/18 27/62/19 28/64/20
s 4
f 7/13/21 1/1/22 25/57/23 26/59/24
f 10/27/25 9/25/26 61/129/27 62/131/28
s 2
f 62/132/29 63/133/30 11/29/31 10/28/32
s 3
f 12/32/33 11/30/34 63/134/35 64/136/36
s 1
f 9/26/37 12/31/38 64/135/39 61/130/40
s 4
f 14/35/41 13/33/42 49/105/43 50/107/44
s 2
f 50/108/45 51/109/46 15/37/47 14/36/48
s 3
f 16/40/49 15/38/50 51/110/51 52/112/52
s 1
f 13/34/53 16/39/54 52/111/55 49/106/56
s 4
f 18/43/57 17/41/58 30/67/59 31/69/60
s 2
f 31/70/61 32/71/62 19/45/63 18/44/64
s 3
f 20/48/65 19/46/66 32/72/67 29/66/68
s 1
f 17/42/69 20/47/70 29/65/71 30/68/72
s 4
f 22/51/73 21/49/74 41/89/75 42/91/76
s 2
f 42/92/77 43/93/78 23/53/79 22/52/80
s 3
f 24/56/81 23/54/82 43/94/83 44/96/84
s 1
f 21/50/85 24/55/86 44/95/87 41/90/88
s 4
f 26/59/24 25/57/23 21/49/74 22/51/73
s 2
f 22/52/80 23/53/79 27/61/10 26/60/9
s 3
f 28/64/20 27/62/19 23/54/82 24/56/81
s 1
f 25/58/4 28/63/3 24/55/86 21/50/85
f 30/68/72 29/65/71 40/87/89 37/82/90
s 4
f 31/69/60 30/67/59 37/81/91 38/83/92
s 2
f 38/84/93 39/85/94 32/71/62 31/70/61
s 3
f 29/66/68 32/72/67 39/86/95 40/88/96
s 1
f 34/76/97 33/73/98 80/167/99 77/162/100
s 4
f 35/77/101 34/75/102 77/161/103 78/163/104
s 2
f 78/164/105 79/165/106 36/79/107 35/78/108
s 3
f 33/74/109 36/80/110 79/166/111 80/168/112
s 4
f 38/83/92 37/81/91 34/75/102 35/77/101
s 2
f 35/78/108 36/79/107 39/85/94 38/84/93
s 3
f 40/88/96 39/86/95 36/80/110 33/74/109
s 1
f 37/82/90 40/87/89 33/73/98 34/76/97
s 4
f 42/91/76 41/89/75 81/169/113 82/171/114
s 2
f 82/172/115 83/173/116 43/93/78 42/92/77
s 3
f 44/96/84 43/94/83 83/174/117 84/176/118
s 1
f 41/90/88 44/95/87 84/175/119 81/170/120
s 4
f 46/99/121 45/97/122 17/41/58 18/43/57
s 2
f 18/44/64 19/45/63 47/101/123 46/100/124
s 3
f 48/104/125 47/102/126 19/46/66 20/48/65
s 1
f 45/98/127 48/103/128 20/47/70 17/42/69
s 4
f 50/107/44 49/105/43 53/113/129 54/115/130
s 2
f 54/116/131 55/117/132 51/109/46 50/108/45
s 3
f 52/112/52 51/110/51 55/118/133 56/120/134
s 1
f 49/106/56 52/111/55 56/119/135 53/114/136
s 4
f 54/115/130 53/113/129 9/25/26 10/27/25
s 2
f 10/28/32 11/29/31 55/117/132 54/116/131
s 3
f 56/120/134 55/118/133 11/30/34 12/32/33
s 1
f 53/114/136 56/119/135 12/31/38 9/26/37
s 4
f 58/123/137 57/121/138 65/137/139 66/139/140
s 2
f 66/140/141 67/141/142 59/125/143 58/124/144
s 3
f 60/128/145 59/126/146 67/142/147 68/144/148
s 1
f 57/122/149 60/127/150 68/143/151 65/138/152
s 4
f 62/131/28 61/129/27 73/153/153 74/155/154
s 2
f 74/156/155 75/157/156 63/133/30 62/132/29
s 3
f 64/136/36 63/134/35 75/158/157 76/160/158
s 1
f 61/130/40 64/135/39 76/159/159 73/154/160
s 4
f 66/139/140 65/137/139 69/145/161 70/147/162
s 2
f 70/148/163 71/149/164 67/141/142 66/140/141
s 3
f 68/144/148 67/142/147 71/150/165 72/152/166
s 1
f 65/138/152 68/143/151 72/151/167 69/146/168
s 4
f 70/147/162 69/145/161 3/20/169 5/14/170
s 2
f 5/5/171 6/22/172 71/149/164 70/148/163
s 3
f 72/152/166 71/150/165 6/12/173 4/4/174
s 1
f 69/146/168 72/151/167 4/16/175 3/17/176
s 4
f 74/155/154 73/153/153 57/121/138 58/123/137
s 2
f 58/124/144 59/125/143 75/157/156 74/156/155
s 3
f 76/160/158 75/158/157 59/126/146 60/128/145
s 1
f 73/154/160 76/159/159 60/127/150 57/122/149
s 4
f 78/163/104 77/161/103 13/33/42 14/35/41
s 2
f 14/36/48 15/37/47 79/165/106 78/164/105
s 3
f 80/168/112 79/166/111 15/38/50 16/40/49
s 1
f 77/162/100 80/167/99 16/39/54 13/34/53
s 4
f 82/171/114 81/169/113 45/97/122 46/99/121
s 2
f 46/100/124 47/101/123 83/173/116 82/172/115
s 3
f 84/176/118 83/174/117 47/102/126 48/104/125
s 1
f 81/170/120 84/175/119 48/103/128 45/98/127
