# This file uses centimeters as units for non-parametric coordinates.

mtllib Characters_Child1_Geo.mtl
g default
v -0.163813 0.004329 0.022976
v 0.124472 0.004329 0.022976
v -0.061601 1.441209 0.022976
v 0.030128 1.453469 0.022976
v -0.061601 1.441209 -0.022976
v 0.030128 1.453469 -0.022976
v -0.163813 0.004329 -0.022976
v 0.124472 0.004329 -0.022976
v -0.093753 1.205018 0.022976
v -0.093753 1.205018 -0.022976
v 0.052772 1.205018 -0.022976
v 0.052772 1.205018 0.022976
v -0.241749 0.969969 0.022976
v -0.241749 0.969969 -0.022976
v 0.173831 0.969969 -0.022976
v 0.173831 0.969969 0.022976
v -0.311813 0.673841 0.022976
v -0.311813 0.673841 -0.022976
v 0.190614 0.673841 -0.022976
v 0.190614 0.673841 0.022976
v -0.156584 0.265664 0.022976
v -0.156584 0.265664 -0.022976
v 0.119014 0.265664 -0.022976
v 0.119014 0.265664 0.022976
v -0.163813 0.137609 0.022976
v -0.163813 0.137609 -0.022976
v 0.124472 0.137609 -0.022976
v 0.124472 0.137609 0.022976
v -0.172977 0.492429 0.022976
v -0.172977 0.492429 -0.022976
v 0.130823 0.492429 -0.022976
v 0.130823 0.492429 0.022976
v -0.187012 0.166456 0.022976
v -0.187012 0.166456 -0.022976
v 0.138267 0.166456 -0.022976
v 0.138267 0.166456 0.022976
v -0.118122 1.378022 0.022976
v -0.118122 1.378022 -0.022976
v 0.079334 1.378022 -0.022976
v 0.079334 1.378022 0.022976
v -0.130479 1.295422 0.022976
v -0.130479 1.295422 -0.022976
v 0.098202 1.295422 -0.022976
v 0.098202 1.295422 0.022976
v -0.109056 1.232457 0.022976
v -0.109056 1.232457 -0.022976
v 0.081666 1.232457 -0.022976
v 0.081666 1.232457 0.022976
v -0.184656 1.131382 0.022976
v -0.184656 1.131382 -0.022976
v 0.153007 1.137130 -0.022976
v 0.153007 1.137130 0.022976
v -0.196322 1.064301 0.022976
v -0.196322 1.064301 -0.022976
v 0.162107 1.064301 -0.022976
v 0.162107 1.064301 0.022976
v -0.289661 0.799401 0.022976
v -0.289661 0.799401 -0.022976
v 0.203886 0.799401 -0.022976
v 0.203886 0.799401 0.022976
v -0.322881 0.735632 0.022976
v -0.322881 0.735632 -0.022976
v 0.198093 0.735632 -0.022976
v 0.198093 0.735632 0.022976
v -0.186481 0.621427 0.022976
v -0.186481 0.621427 -0.022976
v 0.138262 0.621427 -0.022976
v 0.138262 0.621427 0.022976
v -0.177707 0.543055 0.022976
v -0.177707 0.543055 -0.022976
v 0.133395 0.543055 -0.022976
v 0.133395 0.543055 0.022976
v -0.172197 0.440831 0.022976
v -0.172197 0.440831 -0.022976
v 0.136423 0.440831 -0.022976
v 0.136423 0.440831 0.022976
v -0.163647 0.319070 0.022976
v -0.163647 0.319070 -0.022976
v 0.130366 0.319070 -0.022976
v 0.130366 0.319070 0.022976
v -0.170226 0.368813 0.022976
v -0.170226 0.368813 -0.022976
v 0.132287 0.368813 -0.022976
v 0.132287 0.368813 0.022976
v -0.170171 0.221363 0.022976
v -0.170171 0.221363 -0.022976
v 0.127612 0.221363 -0.022976
v 0.127612 0.221363 0.022976
v -0.170544 1.184088 0.022976
v -0.170544 1.184088 -0.022976
v 0.133059 1.192455 -0.022976
v 0.133059 1.192455 0.022976
v -0.185278 1.151066 0.022976
v -0.185278 1.151066 -0.022976
v 0.150401 1.157662 -0.022976
v 0.150401 1.157663 0.022976
vt 0.264755 0.658308
vt 0.562003 0.005233
vt 0.256528 0.529970
vt 0.147939 0.769328
vt 0.747198 0.877511
vt 0.157554 0.890342
vt 0.207004 0.603168
vt 0.651698 0.523743
vt 0.151919 0.805977
vt 0.210386 0.821857
vt 0.266143 0.661615
vt 0.266141 0.769332
vt 0.152754 0.658186
vt 0.152630 0.771865
vt 0.147941 0.661612
vt 0.513952 0.656354
vt 0.468934 0.650440
vt 0.288552 0.542013
vt 0.420476 0.003968
vt 0.264631 0.771988
vt 0.125530 0.878299
vt 0.701941 0.881001
vt 0.794031 0.522285
vt 0.265471 0.619048
vt 0.264651 0.753341
vt 0.453432 0.544107
vt 0.152650 0.753218
vt 0.762476 0.819042
vt 0.690133 0.819783
vt 0.266141 0.748651
vt 0.525366 0.544750
vt 0.147939 0.748648
vt 0.264677 0.729766
vt 0.381059 0.437779
vt 0.152676 0.729643
vt 0.834950 0.760270
vt 0.629770 0.762371
vt 0.266142 0.724796
vt 0.585078 0.439602
vt 0.147940 0.724793
vt 0.264699 0.709977
vt 0.347017 0.304332
vt 0.152697 0.709854
vt 0.868794 0.686813
vt 0.620735 0.689353
vt 0.266142 0.706519
vt 0.593672 0.306536
vt 0.147940 0.706516
vt 0.264736 0.675349
vt 0.423712 0.121497
vt 0.152735 0.675227
vt 0.791122 0.586835
vt 0.655053 0.588229
vt 0.266143 0.678141
vt 0.559011 0.122705
vt 0.147941 0.678138
vt 0.264747 0.665772
vt 0.420316 0.063891
vt 0.152746 0.665649
vt 0.794367 0.555187
vt 0.652035 0.556644
vt 0.266143 0.669492
vt 0.561843 0.065156
vt 0.147941 0.669489
vt 0.264722 0.688254
vt 0.415393 0.223378
vt 0.152721 0.688132
vt 0.799789 0.642732
vt 0.649796 0.644268
vt 0.266143 0.691924
vt 0.564536 0.224711
vt 0.147941 0.691921
vt 0.264744 0.668832
vt 0.408893 0.076759
vt 0.152742 0.668709
vt 0.805894 0.562191
vt 0.645297 0.563835
vt 0.266143 0.671851
vt 0.568581 0.078186
vt 0.147941 0.671848
vt 0.264639 0.764736
vt 0.441262 0.621782
vt 0.152637 0.764613
vt 0.774944 0.861627
vt 0.677456 0.862625
vt 0.266141 0.762003
vt 0.538198 0.622649
vt 0.147939 0.762000
vt 0.264644 0.759908
vt 0.435294 0.584591
vt 0.152643 0.759785
vt 0.780837 0.841174
vt 0.667932 0.842330
vt 0.266141 0.756636
vt 0.547560 0.585594
vt 0.147939 0.756633
vt 0.264649 0.755642
vt 0.445887 0.556376
vt 0.152647 0.755520
vt 0.770100 0.825738
vt 0.675937 0.826703
vt 0.266141 0.752432
vt 0.539518 0.557213
vt 0.147939 0.752429
vt 0.264665 0.741077
vt 0.408894 0.510601
vt 0.152663 0.740955
vt 0.807170 0.800405
vt 0.640473 0.803531
vt 0.266142 0.734977
vt 0.574655 0.514667
vt 0.147939 0.734974
vt 0.264669 0.737100
vt 0.403247 0.480390
vt 0.152668 0.736978
vt 0.812760 0.783786
vt 0.635797 0.785598
vt 0.266142 0.730540
vt 0.579210 0.481963
vt 0.147940 0.730537
vt 0.264689 0.718810
vt 0.357742 0.360882
vt 0.152688 0.718687
vt 0.858174 0.717921
vt 0.614500 0.720416
vt 0.266142 0.714107
vt 0.600037 0.363047
vt 0.147940 0.714104
vt 0.264695 0.713653
vt 0.341510 0.332065
vt 0.152693 0.713530
vt 0.874414 0.702011
vt 0.617199 0.704645
vt 0.266142 0.710277
vt 0.597270 0.334350
vt 0.147940 0.710274
vt 0.264714 0.695636
vt 0.408609 0.281317
vt 0.152713 0.695514
vt 0.806782 0.674508
vt 0.646450 0.676150
vt 0.266142 0.699599
vt 0.568034 0.282741
vt 0.147940 0.699596
vt 0.264719 0.691138
vt 0.413010 0.246119
vt 0.152718 0.691016
vt 0.802252 0.655205
vt 0.648654 0.656778
vt 0.266143 0.694932
vt 0.565739 0.247484
vt 0.147940 0.694928
vt 0.264726 0.685363
vt 0.415837 0.200183
vt 0.152724 0.685241
vt 0.799273 0.629998
vt 0.646901 0.631558
vt 0.266143 0.688804
vt 0.567347 0.201537
vt 0.147941 0.688801
vt 0.264733 0.678443
vt 0.420181 0.145477
vt 0.152732 0.678320
vt 0.794744 0.599983
vt 0.649584 0.601470
vt 0.266143 0.681571
vt 0.564520 0.146766
vt 0.147941 0.681567
vt 0.264730 0.681324
vt 0.416891 0.167813
vt 0.152729 0.681202
vt 0.798118 0.612230
vt 0.648761 0.613759
vt 0.266143 0.684519
vt 0.565403 0.169140
vt 0.147941 0.684516
vt 0.264740 0.672439
vt 0.417095 0.101519
vt 0.152738 0.672316
vt 0.797718 0.575830
vt 0.650697 0.577336
vt 0.266143 0.675332
vt 0.563285 0.102825
vt 0.147941 0.675329
vt 0.264661 0.744660
vt 0.415759 0.534360
vt 0.152659 0.744538
vt 0.800336 0.813487
vt 0.650462 0.817087
vt 0.266141 0.739132
vt 0.564796 0.539453
vt 0.147939 0.739129
vt 0.264663 0.742182
vt 0.408565 0.519448
vt 0.152662 0.742059
vt 0.807527 0.805261
vt 0.641812 0.808586
vt 0.266142 0.736229
vt 0.573351 0.523887
vt 0.147939 0.736226
vn 0.000000 0.000000 1.000000
vn 0.000000 0.000000 1.000000
vn 0.000000 0.000000 1.000000
vn 0.000000 0.000000 1.000000
vn -0.132475 0.991186 0.000000
vn -0.132475 0.991186 0.000000
vn -0.132475 0.991186 0.000000
vn -0.132475 0.991186 0.000000
vn 0.000000 0.000000 -1.000000
vn 0.000000 0.000000 -1.000000
vn 0.000000 0.000000 -1.000000
vn 0.000000 0.000000 -1.000000
vn 0.000000 -1.000000 0.000000
vn 0.000000 -1.000000 0.000000
vn 0.000000 -1.000000 0.000000
vn 0.000000 -1.000000 0.000000
vn 1.000000 0.000000 0.000000
vn 1.000000 0.000000 0.000000
vn 0.996399 -0.084783 0.000000
vn 0.996399 -0.084783 0.000000
vn -1.000000 0.000000 0.000000
vn -1.000000 0.000000 0.000000
vn -0.989917 -0.141647 0.000000
vn -0.989917 -0.141647 0.000000
vn -0.618275 0.785962 -0.000001
vn -0.618275 0.785962 -0.000001
vn -0.926469 -0.376372 0.000000
vn -0.926469 -0.376372 0.000000
vn 0.000000 0.000000 -1.000000
vn 0.000000 0.000000 -1.000000
vn 0.000000 0.000000 -1.000000
vn 0.000000 0.000000 -1.000000
vn 0.614233 0.789125 0.000000
vn 0.614233 0.789125 0.000000
vn 0.893525 -0.449013 0.000000
vn 0.893525 -0.449013 0.000000
vn 0.000000 0.000000 1.000000
vn 0.000000 0.000000 1.000000
vn 0.000000 0.000000 1.000000
vn 0.000000 0.000000 1.000000
vn -0.943164 0.332327 0.000000
vn -0.943164 0.332327 0.000000
vn -0.942762 0.333466 0.000000
vn -0.942762 0.333466 0.000000
vn 0.000000 0.000000 -1.000000
vn 0.000000 0.000000 -1.000000
vn 0.000000 0.000000 -1.000000
vn 0.000000 0.000000 -1.000000
vn 0.987790 0.155792 -0.000000
vn 0.987790 0.155792 -0.000000
vn 0.992330 0.123619 -0.000000
vn 0.992330 0.123619 -0.000000
vn 0.000000 0.000000 1.000000
vn 0.000000 0.000000 1.000000
vn 0.000000 0.000000 1.000000
vn 0.000000 0.000000 1.000000
vn -0.641967 -0.766732 0.000000
vn -0.641967 -0.766732 0.000000
vn -0.984790 0.173747 0.000000
vn -0.984790 0.173747 0.000000
vn 0.000000 0.000000 -1.000000
vn 0.000000 0.000000 -1.000000
vn 0.000000 0.000000 -1.000000
vn 0.000000 0.000000 -1.000000
vn 0.885800 -0.464068 0.000000
vn 0.885800 -0.464068 0.000000
vn 0.994460 -0.105115 -0.000000
vn 0.994460 -0.105115 -0.000000
vn 0.000000 0.000000 1.000000
vn 0.000000 0.000000 1.000000
vn 0.000000 0.000000 1.000000
vn 0.000000 0.000000 1.000000
vn -0.997778 0.066624 -0.000000
vn -0.997778 0.066624 -0.000000
vn -0.991366 -0.131121 -0.000000
vn -0.991366 -0.131121 -0.000000
vn 0.000000 0.000000 -1.000000
vn 0.000000 0.000000 -1.000000
vn 0.000000 0.000000 -1.000000
vn 0.000000 0.000000 -1.000000
vn 0.999603 -0.028175 -0.000000
vn 0.999603 -0.028175 -0.000000
vn 0.991822 -0.127625 -0.000000
vn 0.991822 -0.127625 -0.000000
vn 0.000000 0.000000 1.000000
vn 0.000000 0.000000 1.000000
vn 0.000000 0.000000 1.000000
vn 0.000000 0.000000 1.000000
vn -0.997131 -0.075697 0.000000
vn -0.997131 -0.075697 0.000000
vn 0.000000 0.000000 -1.000000
vn 0.000000 0.000000 -1.000000
vn 0.999298 -0.037461 0.000000
vn 0.999298 -0.037461 0.000000
vn 0.000000 0.000000 1.000000
vn 0.000000 0.000000 1.000000
vn -0.998551 -0.053822 0.000000
vn -0.998551 -0.053822 0.000000
vn -0.994565 -0.104114 0.000000
vn -0.994565 -0.104114 0.000000
vn 0.000000 0.000000 -1.000000
vn 0.000000 0.000000 -1.000000
vn 0.000000 0.000000 -1.000000
vn 0.000000 0.000000 -1.000000
vn 0.999562 0.029601 -0.000000
vn 0.999562 0.029601 -0.000000
vn 0.998341 -0.057572 -0.000000
vn 0.998341 -0.057572 -0.000000
vn 0.000000 0.000000 1.000000
vn 0.000000 0.000000 1.000000
vn 0.000000 0.000000 1.000000
vn 0.000000 0.000000 1.000000
vn -0.956042 0.293229 0.000000
vn -0.956042 0.293229 0.000000
vn 0.000000 0.000000 -1.000000
vn 0.000000 0.000000 -1.000000
vn 0.981685 0.190512 0.000000
vn 0.981685 0.190512 0.000000
vn 0.000000 0.000000 1.000000
vn 0.000000 0.000000 1.000000
vn -0.904166 0.427181 0.000000
vn -0.904166 0.427181 0.000000
vn -0.745329 0.666696 0.000000
vn -0.745329 0.666696 0.000000
vn 0.000000 0.000000 -1.000000
vn 0.000000 0.000000 -1.000000
vn 0.000000 0.000000 -1.000000
vn 0.000000 0.000000 -1.000000
vn 0.918430 0.395584 0.000000
vn 0.918430 0.395584 0.000000
vn 0.837605 0.546277 0.000000
vn 0.837605 0.546277 0.000000
vn 0.000000 0.000000 1.000000
vn 0.000000 0.000000 1.000000
vn 0.000000 0.000000 1.000000
vn 0.000000 0.000000 1.000000
vn -0.998066 -0.062158 0.000000
vn -0.998066 -0.062158 0.000000
vn 0.000000 0.000000 -1.000000
vn 0.000000 0.000000 -1.000000
vn 0.999872 0.016019 0.000000
vn 0.999872 0.016019 0.000000
vn 0.000000 0.000000 1.000000
vn 0.000000 0.000000 1.000000
vn -0.991996 0.126272 0.000000
vn -0.991996 0.126272 0.000000
vn -0.965975 0.258635 -0.000000
vn -0.965975 0.258635 -0.000000
vn 0.000000 0.000000 -1.000000
vn 0.000000 0.000000 -1.000000
vn 0.000000 0.000000 -1.000000
vn 0.000000 0.000000 -1.000000
vn 0.992232 0.124403 -0.000000
vn 0.992232 0.124403 -0.000000
vn 0.940718 0.339190 -0.000000
vn 0.940718 0.339190 -0.000000
vn 0.000000 0.000000 1.000000
vn 0.000000 0.000000 1.000000
vn 0.000000 0.000000 1.000000
vn 0.000000 0.000000 1.000000
vn -0.944968 0.327162 0.000000
vn -0.944968 0.327162 0.000000
vn 0.000000 0.000000 -1.000000
vn 0.000000 0.000000 -1.000000
vn 0.994683 0.102986 -0.000000
vn 0.994683 0.102986 -0.000000
vn 0.000000 0.000000 1.000000
vn 0.000000 0.000000 1.000000
vn -0.698189 -0.715914 0.000000
vn -0.698189 -0.715914 0.000000
vn 0.000000 0.000000 -1.000000
vn 0.000000 0.000000 -1.000000
vn 0.916157 -0.400819 -0.000000
vn 0.916157 -0.400819 -0.000000
vn 0.000000 0.000000 1.000000
vn 0.000000 0.000000 1.000000
vn -0.999753 -0.022248 -0.000000
vn -0.999753 -0.022248 -0.000000
vn 0.000000 0.000000 -1.000000
vn 0.000000 0.000000 -1.000000
vn 0.999930 0.011846 -0.000000
vn 0.999930 0.011846 -0.000000
vn 0.000000 0.000000 1.000000
vn 0.000000 0.000000 1.000000
vn -0.997544 -0.070043 -0.000000
vn -0.997544 -0.070043 -0.000000
vn 0.000000 0.000000 -1.000000
vn 0.000000 0.000000 -1.000000
vn 0.998765 -0.049681 -0.000000
vn 0.998765 -0.049681 -0.000000
vn 0.000000 0.000000 1.000000
vn 0.000000 0.000000 1.000000
vn -0.507822 0.861462 -0.000000
vn -0.507822 0.861462 -0.000000
vn 0.000000 0.000000 -1.000000
vn 0.000000 0.000000 -1.000000
vn 0.436427 0.899740 -0.000000
vn 0.436427 0.899740 -0.000000
vn 0.000000 0.000000 1.000000
vn 0.000000 0.000000 1.000000
s 1
g pCube1
usemtl initialShadingGroup
f 1/19/1 2/2/2 28/63/3 25/58/4
s off
f 3/3/5 4/18/6 6/6/7 5/21/8
s 2
f 26/60/9 27/61/10 8/8/11 7/23/12
s off
f 7/7/13 8/24/14 2/10/15 1/9/16
s 3
f 2/15/17 8/11/18 27/62/19 28/64/20
s 4
f 7/13/21 1/1/22 25/57/23 26/59/24
f 10/27/25 9/25/26 45/97/27 46/99/28
s 2
f 46/100/29 47/101/30 11/29/31 10/28/32
s 3
f 12/32/33 11/30/34 47/102/35 48/104/36
s 1
f 9/26/37 12/31/38 48/103/39 45/98/40
s 4
f 14/35/41 13/33/42 53/113/43 54/115/44
s 2
f 54/116/45 55/117/46 15/37/47 14/36/48
s 3
f 16/40/49 15/38/50 55/118/51 56/120/52
s 1
f 13/34/53 16/39/54 56/119/55 53/114/56
s 4
f 18/43/57 17/41/58 61/129/59 62/131/60
s 2
f 62/132/61 63/133/62 19/45/63 18/44/64
s 3
f 20/48/65 19/46/66 63/134/67 64/136/68
s 1
f 17/42/69 20/47/70 64/135/71 61/130/72
s 4
f 22/51/73 21/49/74 77/161/75 78/163/76
s 2
f 78/164/77 79/165/78 23/53/79 22/52/80
s 3
f 24/56/81 23/54/82 79/166/83 80/168/84
s 1
f 21/50/85 24/55/86 80/167/87 77/162/88
s 4
f 26/59/24 25/57/23 33/73/89 34/75/90
s 2
f 34/76/91 35/77/92 27/61/10 26/60/9
s 3
f 28/64/20 27/62/19 35/78/93 36/80/94
s 1
f 25/58/4 28/63/3 36/79/95 33/74/96
s 4
f 30/67/97 29/65/98 69/145/99 70/147/100
s 2
f 70/148/101 71/149/102 31/69/103 30/68/104
s 3
f 32/72/105 31/70/106 71/150/107 72/152/108
s 1
f 29/66/109 32/71/110 72/151/111 69/146/112
s 4
f 34/75/90 33/73/89 85/177/113 86/179/114
s 2
f 86/180/115 87/181/116 35/77/92 34/76/91
s 3
f 36/80/94 35/78/93 87/182/117 88/184/118
s 1
f 33/74/96 36/79/95 88/183/119 85/178/120
s 4
f 38/83/121 37/81/122 3/20/123 5/14/124
s 2
f 5/5/125 6/22/126 39/85/127 38/84/128
s 3
f 40/88/129 39/86/130 6/12/131 4/4/132
s 1
f 37/82/133 40/87/134 4/16/135 3/17/136
s 4
f 42/91/137 41/89/138 37/81/122 38/83/121
s 2
f 38/84/128 39/85/127 43/93/139 42/92/140
s 3
f 44/96/141 43/94/142 39/86/130 40/88/129
s 1
f 41/90/143 44/95/144 40/87/134 37/82/133
s 4
f 46/99/28 45/97/27 41/89/138 42/91/137
s 2
f 42/92/140 43/93/139 47/101/30 46/100/29
s 3
f 48/104/36 47/102/35 43/94/142 44/96/141
s 1
f 45/98/40 48/103/39 44/95/144 41/90/143
s 4
f 50/107/145 49/105/146 93/193/147 94/195/148
s 2
f 94/196/149 95/197/150 51/109/151 50/108/152
s 3
f 52/112/153 51/110/154 95/198/155 96/200/156
s 1
f 49/106/157 52/111/158 96/199/159 93/194/160
s 4
f 54/115/44 53/113/43 49/105/146 50/107/145
s 2
f 50/108/152 51/109/151 55/117/46 54/116/45
s 3
f 56/120/52 55/118/51 51/110/154 52/112/153
s 1
f 53/114/56 56/119/55 52/111/158 49/106/157
s 4
f 58/123/161 57/121/162 13/33/42 14/35/41
s 2
f 14/36/48 15/37/47 59/125/163 58/124/164
s 3
f 60/128/165 59/126/166 15/38/50 16/40/49
s 1
f 57/122/167 60/127/168 16/39/54 13/34/53
s 4
f 62/131/60 61/129/59 57/121/162 58/123/161
s 2
f 58/124/164 59/125/163 63/133/62 62/132/61
s 3
f 64/136/68 63/134/67 59/126/166 60/128/165
s 1
f 61/130/72 64/135/71 60/127/168 57/122/167
s 4
f 66/139/169 65/137/170 17/41/58 18/43/57
s 2
f 18/44/64 19/45/63 67/141/171 66/140/172
s 3
f 68/144/173 67/142/174 19/46/66 20/48/65
s 1
f 65/138/175 68/143/176 20/47/70 17/42/69
s 4
f 70/147/100 69/145/99 65/137/170 66/139/169
s 2
f 66/140/172 67/141/171 71/149/102 70/148/101
s 3
f 72/152/108 71/150/107 67/142/174 68/144/173
s 1
f 69/146/112 72/151/111 68/143/176 65/138/175
s 4
f 74/155/177 73/153/178 29/65/98 30/67/97
s 2
f 30/68/104 31/69/103 75/157/179 74/156/180
s 3
f 76/160/181 75/158/182 31/70/106 32/72/105
s 1
f 73/154/183 76/159/184 32/71/110 29/66/109
s 4
f 78/163/76 77/161/75 81/169/185 82/171/186
s 2
f 82/172/187 83/173/188 79/165/78 78/164/77
s 3
f 80/168/84 79/166/83 83/174/189 84/176/190
s 1
f 77/162/88 80/167/87 84/175/191 81/170/192
s 4
f 82/171/186 81/169/185 73/153/178 74/155/177
s 2
f 74/156/180 75/157/179 83/173/188 82/172/187
s 3
f 84/176/190 83/174/189 75/158/182 76/160/181
s 1
f 81/170/192 84/175/191 76/159/184 73/154/183
s 4
f 86/179/114 85/177/113 21/49/74 22/51/73
s 2
f 22/52/80 23/53/79 87/181/116 86/180/115
s 3
f 88/184/118 87/182/117 23/54/82 24/56/81
s 1
f 85/178/120 88/183/119 24/55/86 21/50/85
s 4
f 90/187/193 89/185/194 9/25/26 10/27/25
s 2
f 10/28/32 11/29/31 91/189/195 90/188/196
s 3
f 92/192/197 91/190/198 11/30/34 12/32/33
s 1
f 89/186/199 92/191/200 12/31/38 9/26/37
s 4
f 94/195/148 93/193/147 89/185/194 90/187/193
s 2
f 90/188/196 91/189/195 95/197/150 94/196/149
s 3
f 96/200/156 95/198/155 91/190/198 92/192/197
s 1
f 93/194/160 96/199/159 92/191/200 89/186/199
