# This file uses centimeters as units for non-parametric coordinates.

mtllib Characters_Child2_Geo.mtl
g default
v 0.020954 0.009564 0.103661
v 0.020954 0.009564 -0.189234
v 0.020954 1.458339 0.245533
v 0.020954 1.458339 0.203202
v -0.020954 1.458339 0.245533
v -0.020954 1.458339 0.203202
v -0.020954 0.009564 0.103661
v -0.020954 0.009564 -0.189234
v 0.020954 0.970198 0.193761
v -0.020954 0.970198 0.193761
v -0.020954 0.961792 -0.147741
v 0.020954 0.961792 -0.147741
v 0.020954 1.221887 0.264529
v -0.020954 1.221887 0.264529
v -0.020954 1.235711 -0.527382
v 0.020954 1.235711 -0.527382
v 0.020954 0.779179 0.234273
v -0.020954 0.779179 0.234273
v -0.020954 0.835477 -0.175723
v 0.020954 0.835477 -0.175723
v 0.020954 0.674641 0.174876
v -0.020954 0.674641 0.174876
v -0.020954 0.729334 -0.198889
v 0.020954 0.729334 -0.198889
v 0.020954 0.573147 0.177975
v -0.020954 0.573147 0.177975
v -0.020954 0.584407 -0.177975
v 0.020954 0.584407 -0.177975
v 0.020954 0.441521 0.182167
v -0.020954 0.441521 0.182167
v -0.020954 0.441521 -0.207250
v 0.020954 0.441521 -0.207250
v 0.020954 0.293987 0.155456
v -0.020954 0.293987 0.155456
v -0.020954 0.278224 -0.204998
v 0.020954 0.278224 -0.204998
v 0.020954 0.190953 0.182189
v -0.020954 0.190953 0.182189
v -0.020954 0.170039 -0.204998
v 0.020954 0.170039 -0.204998
v 0.020954 0.107530 0.103661
v -0.020954 0.107530 0.103661
v -0.020954 0.107530 -0.189234
v 0.020954 0.107530 -0.189234
v 0.020954 1.065893 -0.415226
v 0.020954 1.110717 0.242716
v -0.020954 1.110717 0.242716
v -0.020954 1.065893 -0.415226
v 0.020954 1.142371 -0.543630
v 0.020954 1.171524 0.259037
v -0.020954 1.171524 0.259037
v -0.020954 1.142371 -0.543630
v 0.020954 0.997907 -0.259375
v 0.020954 1.033593 0.222014
v -0.020954 1.033593 0.222014
v -0.020954 0.997907 -0.259375
v 0.020954 1.330154 0.111790
v 0.020954 1.325077 0.236683
v -0.020954 1.325077 0.236683
v -0.020954 1.330154 0.111790
v 0.020954 1.313619 -0.016595
v 0.020954 1.286192 0.252364
v -0.020954 1.286192 0.252364
v -0.020954 1.313619 -0.016595
v 0.020954 1.396933 0.151692
v 0.020954 1.394501 0.252828
v -0.020954 1.394501 0.252828
v -0.020954 1.396933 0.151692
v 0.020954 0.883662 0.207023
v -0.020954 0.883662 0.207023
v -0.020954 0.893154 -0.162174
v 0.020954 0.893154 -0.162174
v 0.020954 0.729081 0.218220
v -0.020954 0.729081 0.218220
v -0.020954 0.786985 -0.180619
v 0.020954 0.786985 -0.180619
v 0.020954 0.613486 0.174529
v -0.020954 0.613486 0.174529
v -0.020954 0.649921 -0.165680
v 0.020954 0.649921 -0.165680
v 0.020954 0.353776 0.168232
v -0.020954 0.353776 0.168232
v -0.020954 0.344401 -0.205911
v 0.020954 0.344401 -0.205911
v 0.020954 0.494609 0.183350
v -0.020954 0.494609 0.183350
v -0.020954 0.499151 -0.195443
v 0.020954 0.499151 -0.195443
v 0.020954 0.152253 0.153409
v -0.020954 0.152253 0.153409
v -0.020954 0.140409 -0.197526
v 0.020954 0.140409 -0.197526
v 0.020954 0.250025 0.195547
v -0.020954 0.250025 0.195547
v -0.020954 0.229621 -0.204998
v 0.020954 0.229621 -0.204998
v 0.020954 1.189335 -0.550643
v 0.020954 1.196864 0.261801
v -0.020954 1.196864 0.261801
v -0.020954 1.189335 -0.550643
vt 0.933004 0.779526
vt 0.594641 0.074784
vt 0.901613 0.956820
vt 0.414244 0.741138
vt 0.139443 0.430150
vt 0.890993 0.942030
vt 0.829268 0.787928
vt 0.298156 0.711241
vt 0.848630 0.919433
vt 0.887147 0.913762
vt 0.884391 0.761154
vt 0.789463 0.754111
vt 0.923835 0.956374
vt 0.911806 0.899250
vt 0.768266 0.873836
vt 0.167816 0.528524
vt 0.258578 0.517041
vt 0.890611 0.858922
vt 0.579665 0.510991
vt 0.906484 0.929311
vt 0.762943 0.903896
vt 0.141506 0.479507
vt 0.350974 0.446028
vt 0.878480 0.915801
vt 0.762774 0.633279
vt 0.915719 0.877151
vt 0.772179 0.851736
vt 0.162813 0.569370
vt 0.269785 0.541932
vt 0.889780 0.845857
vt 0.592410 0.452944
vt 0.918326 0.862427
vt 0.774785 0.837013
vt 0.181693 0.588568
vt 0.279111 0.562862
vt 0.889076 0.834802
vt 0.602953 0.404169
vt 0.920332 0.851097
vt 0.776791 0.825682
vt 0.183918 0.609558
vt 0.277918 0.593472
vt 0.888079 0.819128
vt 0.592200 0.338002
vt 0.922934 0.836401
vt 0.779393 0.810987
vt 0.186757 0.636786
vt 0.289966 0.621721
vt 0.887144 0.804432
vt 0.605479 0.272359
vt 0.925923 0.819520
vt 0.782382 0.794106
vt 0.198265 0.666090
vt 0.294270 0.655387
vt 0.886111 0.788191
vt 0.603563 0.197630
vt 0.928474 0.805112
vt 0.784933 0.779698
vt 0.194273 0.688312
vt 0.297518 0.677633
vt 0.885427 0.777433
vt 0.603009 0.148110
vt 0.454958 0.122013
vt 0.787531 0.765022
vt 0.217589 0.702428
vt 0.295216 0.691097
vt 0.885011 0.770896
vt 0.595143 0.119626
vt 0.708222 0.556462
vt 0.908756 0.916481
vt 0.765215 0.891067
vt 0.150624 0.501523
vt 0.326346 0.485286
vt 0.882309 0.894431
vt 0.783341 0.890788
vt 0.907487 0.923647
vt 0.763946 0.898232
vt 0.144473 0.489650
vt 0.358082 0.464593
vt 0.879862 0.908083
vt 0.788633 0.861254
vt 0.910365 0.907392
vt 0.766824 0.881978
vt 0.158425 0.516581
vt 0.287081 0.505296
vt 0.885154 0.878549
vt 0.457338 0.681718
vt 0.904315 0.941563
vt 0.760774 0.916148
vt 0.145789 0.457211
vt 0.178737 0.451335
vt 0.901532 0.927115
vt 0.801543 0.835183
vt 0.905179 0.936682
vt 0.761638 0.911268
vt 0.142800 0.465813
vt 0.213260 0.449768
vt 0.911562 0.912920
vt 0.786429 0.856573
vt 0.902886 0.949634
vt 0.759345 0.924220
vt 0.139426 0.443560
vt 0.166157 0.439147
vt 0.896448 0.934310
vt 0.409468 0.478118
vt 0.770005 0.864012
vt 0.166899 0.546831
vt 0.264463 0.530596
vt 0.890161 0.851850
vt 0.586221 0.479455
vt 0.403316 0.407453
vt 0.773247 0.845700
vt 0.168571 0.579051
vt 0.272538 0.551714
vt 0.889470 0.840994
vt 0.594505 0.430707
vt 0.423635 0.354185
vt 0.775991 0.830202
vt 0.183620 0.601130
vt 0.272693 0.580476
vt 0.888506 0.825831
vt 0.586652 0.368090
vt 0.425316 0.235255
vt 0.781159 0.801013
vt 0.193084 0.654290
vt 0.292526 0.641744
vt 0.886530 0.794773
vt 0.604340 0.227915
vt 0.418803 0.299843
vt 0.778346 0.816902
vt 0.184851 0.625916
vt 0.285107 0.610328
vt 0.887521 0.810359
vt 0.600123 0.298834
vt 0.431377 0.142890
vt 0.785990 0.773728
vt 0.203062 0.695156
vt 0.296427 0.684015
vt 0.885230 0.774334
vt 0.599280 0.134608
vt 0.411711 0.187987
vt 0.783720 0.786550
vt 0.188959 0.676681
vt 0.295729 0.665381
vt 0.885804 0.783358
vt 0.603314 0.175383
vt 0.782699 0.894370
vt 0.906982 0.926497
vt 0.763442 0.901082
vt 0.142980 0.484547
vt 0.358531 0.454664
vt 0.879221 0.911665
vt 0.384857 0.621929
vt 0.383679 0.633405
vt 0.927261 0.811965
vt 0.431124 0.207783
vt 0.929531 0.799142
vt 0.417801 0.160839
vt 0.921887 0.842316
vt 0.421778 0.335748
vt 0.924700 0.826427
vt 0.419097 0.275533
vt 0.919532 0.855616
vt 0.423782 0.382180
vt 0.916788 0.871114
vt 0.395890 0.430515
vt 0.913546 0.889427
vt 0.416259 0.517621
vt 0.390165 0.712321
vt 0.389832 0.662741
vt 0.397537 0.680412
vt 0.403062 0.546870
vt 0.393549 0.582341
vt 0.386049 0.610307
vt 0.931072 0.790436
vt 0.454455 0.077171
vt 0.773669 0.611861
vt 0.841527 0.778594
vt 0.757634 0.791511
vt 0.757941 0.796345
vt 0.757059 0.782488
vt 0.757257 0.785586
vt 0.759351 0.818513
vt 0.759909 0.827282
vt 0.758360 0.802926
vt 0.758974 0.812586
vt 0.760336 0.833985
vt 0.760906 0.842956
vt 0.761300 0.849148
vt 0.761610 0.854011
vt 0.761991 0.860004
vt 0.790624 0.850145
vt 0.438583 0.712610
vt 0.722534 0.659111
vt 0.518701 0.673103
vt 0.791512 0.849378
vt 0.633281 0.526612
vt 0.785787 0.877135
vt 0.770071 0.590422
vt 0.756841 0.779050
vt 0.756221 0.769308
vt 0.393984 0.741483
vt 0.150662 0.428513
vt 0.220529 0.722573
vt 0.867786 0.782256
vt 0.951546 0.856332
vt 0.781958 0.898505
vt 0.780974 0.864292
vt 0.936036 0.947337
vt 0.710333 0.668149
vt 0.758073 0.931406
vt 0.887145 0.867440
vt 0.762441 0.867076
vn 1.000000 0.000000 0.000000
vn 1.000000 0.000000 0.000000
vn 1.000000 0.000000 0.000000
vn 1.000000 0.000000 0.000000
vn 0.000000 1.000000 0.000000
vn 0.000000 1.000000 0.000000
vn 0.000000 1.000000 0.000000
vn 0.000000 1.000000 0.000000
vn -1.000000 0.000000 -0.000000
vn -1.000000 0.000000 -0.000000
vn -1.000000 0.000000 -0.000000
vn -1.000000 0.000000 -0.000000
vn 0.000000 -1.000000 0.000000
vn 0.000000 -1.000000 0.000000
vn 0.000000 -1.000000 0.000000
vn 0.000000 -1.000000 0.000000
vn -0.000000 -0.000000 -1.000000
vn -0.000000 -0.000000 -1.000000
vn -0.000000 -0.063241 -0.997998
vn -0.000000 -0.063241 -0.997998
vn 0.000000 0.000000 1.000000
vn 0.000000 0.000000 1.000000
vn 0.000000 -0.329210 0.944257
vn 0.000000 -0.329210 0.944257
vn 0.000000 -0.099492 0.995038
vn 0.000000 -0.099492 0.995038
vn 0.000000 -0.328993 0.944332
vn 0.000000 -0.328993 0.944332
vn -1.000000 0.000000 -0.000000
vn -1.000000 0.000000 -0.000000
vn -1.000000 0.000000 -0.000000
vn -1.000000 0.000000 -0.000000
vn 0.000000 -0.680188 -0.733038
vn 0.000000 -0.680188 -0.733038
vn 0.000000 -0.931911 -0.362687
vn 0.000000 -0.931911 -0.362687
vn 1.000000 0.000000 0.000000
vn 1.000000 0.000000 0.000000
vn 1.000000 0.000000 0.000000
vn 1.000000 0.000000 0.000000
vn 0.000000 0.105057 0.994466
vn 0.000000 0.105057 0.994466
vn 0.000000 0.260535 0.965464
vn 0.000000 0.260535 0.965464
vn -1.000000 0.000000 -0.000000
vn -1.000000 0.000000 -0.000000
vn -1.000000 0.000000 -0.000000
vn -1.000000 0.000000 -0.000000
vn 0.000000 0.973973 -0.226665
vn 0.000000 0.973973 -0.226665
vn -0.000000 0.989259 -0.146172
vn -0.000000 0.989259 -0.146172
vn 1.000000 0.000000 0.000000
vn 1.000000 0.000000 0.000000
vn 1.000000 0.000000 0.000000
vn 1.000000 0.000000 0.000000
vn 0.000000 0.072244 0.997387
vn 0.000000 0.072244 0.997387
vn 0.000000 0.207471 0.978241
vn 0.000000 0.207471 0.978241
vn -1.000000 0.000000 -0.000000
vn -1.000000 0.000000 -0.000000
vn -1.000000 0.000000 -0.000000
vn -1.000000 0.000000 -0.000000
vn 0.000000 0.171167 -0.985242
vn 0.000000 0.171167 -0.985242
vn 0.000000 0.216281 -0.976331
vn 0.000000 0.216281 -0.976331
vn 1.000000 0.000000 0.000000
vn 1.000000 0.000000 0.000000
vn 1.000000 0.000000 0.000000
vn 1.000000 0.000000 0.000000
vn 0.000000 -0.353555 0.935414
vn 0.000000 -0.353555 0.935414
vn 0.000000 -0.494011 0.869456
vn 0.000000 -0.494011 0.869456
vn -1.000000 0.000000 -0.000000
vn -1.000000 0.000000 -0.000000
vn -1.000000 0.000000 -0.000000
vn -1.000000 0.000000 -0.000000
vn 0.000000 -0.108347 -0.994113
vn 0.000000 -0.108347 -0.994113
vn 0.000000 0.213231 -0.977002
vn 0.000000 0.213231 -0.977002
vn 1.000000 0.000000 0.000000
vn 1.000000 0.000000 0.000000
vn 1.000000 0.000000 0.000000
vn 1.000000 0.000000 0.000000
vn 0.000000 0.073999 0.997258
vn 0.000000 0.073999 0.997258
vn 0.000000 0.030518 0.999534
vn 0.000000 0.030518 0.999534
vn -1.000000 0.000000 -0.000000
vn -1.000000 0.000000 -0.000000
vn -1.000000 0.000000 -0.000000
vn -1.000000 0.000000 -0.000000
vn 0.000000 0.193665 -0.981068
vn 0.000000 0.193665 -0.981068
vn 0.000000 -0.142827 -0.989748
vn 0.000000 -0.142827 -0.989748
vn 1.000000 0.000000 0.000000
vn 1.000000 0.000000 0.000000
vn 1.000000 0.000000 0.000000
vn 1.000000 0.000000 0.000000
vn 0.000000 -0.106729 0.994288
vn 0.000000 -0.106729 0.994288
vn 0.000000 0.031831 0.999493
vn 0.000000 0.031831 0.999493
vn -1.000000 0.000000 -0.000000
vn -1.000000 0.000000 -0.000000
vn -1.000000 0.000000 -0.000000
vn -1.000000 0.000000 -0.000000
vn 0.000000 0.067491 -0.997720
vn 0.000000 0.067491 -0.997720
vn 0.000000 0.200715 -0.979650
vn 0.000000 0.200715 -0.979650
vn 1.000000 0.000000 0.000000
vn 1.000000 0.000000 0.000000
vn 1.000000 0.000000 0.000000
vn 1.000000 0.000000 0.000000
vn 0.000000 0.254597 0.967047
vn 0.000000 0.254597 0.967047
vn 0.000000 -0.178153 0.984003
vn 0.000000 -0.178153 0.984003
vn -1.000000 0.000000 -0.000000
vn -1.000000 0.000000 -0.000000
vn -1.000000 0.000000 -0.000000
vn -1.000000 0.000000 -0.000000
vn 0.000000 -0.007951 -0.999968
vn 0.000000 -0.007951 -0.999968
vn 0.000000 -0.013789 -0.999905
vn 0.000000 -0.013789 -0.999905
vn 1.000000 0.000000 0.000000
vn 1.000000 0.000000 0.000000
vn 1.000000 0.000000 0.000000
vn 1.000000 0.000000 0.000000
vn 0.000000 -0.395789 0.918342
vn 0.000000 -0.395789 0.918342
vn 0.000000 0.251144 0.967950
vn 0.000000 0.251144 0.967950
vn -1.000000 0.000000 -0.000000
vn -1.000000 0.000000 -0.000000
vn -1.000000 0.000000 -0.000000
vn -1.000000 0.000000 -0.000000
vn -0.000000 -0.083464 -0.996511
vn -0.000000 -0.083464 -0.996511
vn 0.000000 0.000000 -1.000000
vn 0.000000 0.000000 -1.000000
vn 1.000000 0.000000 0.000000
vn 1.000000 0.000000 0.000000
vn 1.000000 0.000000 0.000000
vn 1.000000 0.000000 0.000000
vn 0.000000 -0.685420 0.728148
vn 0.000000 -0.685420 0.728148
vn -1.000000 0.000000 -0.000000
vn -1.000000 0.000000 -0.000000
vn -0.000000 -0.244524 -0.969643
vn -0.000000 -0.244524 -0.969643
vn 1.000000 0.000000 0.000000
vn 1.000000 0.000000 0.000000
vn 1.000000 0.000000 0.000000
vn 1.000000 0.000000 0.000000
vn 1.000000 0.000000 0.000000
vn 1.000000 0.000000 0.000000
vn 0.000000 -0.259241 0.965813
vn 0.000000 -0.259241 0.965813
vn 0.000000 -0.216293 0.976328
vn 0.000000 -0.216293 0.976328
vn -1.000000 0.000000 -0.000000
vn -1.000000 0.000000 -0.000000
vn -1.000000 0.000000 -0.000000
vn -1.000000 0.000000 -0.000000
vn 0.000000 -0.891478 -0.453064
vn 0.000000 -0.891478 -0.453064
vn 0.000000 -0.739031 -0.673671
vn 0.000000 -0.739031 -0.673671
vn 1.000000 0.000000 0.000000
vn 1.000000 0.000000 0.000000
vn 0.000000 -0.108398 0.994108
vn 0.000000 -0.108398 0.994108
vn -1.000000 0.000000 -0.000000
vn -1.000000 0.000000 -0.000000
vn 0.000000 0.171490 -0.985186
vn 0.000000 0.171490 -0.985186
vn 1.000000 0.000000 0.000000
vn 1.000000 0.000000 0.000000
vn 1.000000 0.000000 0.000000
vn 1.000000 0.000000 0.000000
vn 0.000000 -0.004288 0.999991
vn 0.000000 -0.004288 0.999991
vn 0.000000 -0.066264 0.997802
vn 0.000000 -0.066264 0.997802
vn -1.000000 0.000000 -0.000000
vn -1.000000 0.000000 -0.000000
vn -1.000000 0.000000 -0.000000
vn -1.000000 0.000000 -0.000000
vn -0.000001 0.896188 -0.443674
vn -0.000001 0.896188 -0.443674
vn 0.000000 0.580612 -0.814181
vn 0.000000 0.580612 -0.814181
vn 1.000000 0.000000 0.000000
vn 1.000000 0.000000 0.000000
vn 0.000000 0.113546 0.993533
vn 0.000000 0.113546 0.993533
vn -1.000000 0.000000 -0.000000
vn -1.000000 0.000000 -0.000000
vn 0.000000 0.642669 -0.766144
vn 0.000000 0.642669 -0.766144
s 1
g pCube1
usemtl initialShadingGroup
f 1/175/1 2/2/2 44/67/3 41/62/4
s off
f 3/209/5 4/193/6 6/208/7 5/13/8
s 2
f 42/64/9 43/65/10 8/8/11 7/203/12
s off
f 7/7/13 8/204/14 2/10/15 1/9/16
s 3
f 2/200/17 8/11/18 43/66/19 44/199/20
s 4
f 7/12/21 1/1/22 41/174/23 42/63/24
f 10/15/25 9/14/26 54/81/27 55/82/28
s 2
f 55/83/29 56/84/30 11/17/31 10/16/32
s 3
f 12/191/33 11/211/34 56/85/35 53/80/36
s 1
f 9/167/37 12/19/38 53/196/39 54/171/40
s 4
f 14/21/41 13/20/42 62/93/43 63/94/44
s 2
f 63/95/45 64/96/46 15/23/47 14/22/48
s 3
f 16/177/49 15/205/50 64/97/51 61/92/52
s 1
f 13/153/53 16/25/54 61/194/55 62/169/56
s 4
f 18/27/57 17/26/58 69/166/59 70/105/60
s 2
f 70/106/61 71/107/62 19/29/63 18/28/64
s 3
f 20/189/65 19/30/66 71/108/67 72/190/68
s 1
f 17/165/69 20/31/70 72/109/71 69/104/72
s 4
f 22/33/73 21/32/74 73/164/75 74/111/76
s 2
f 74/112/77 75/113/78 23/35/79 22/34/80
s 3
f 24/187/81 23/36/82 75/114/83 76/188/84
s 1
f 21/163/85 24/37/86 76/115/87 73/110/88
s 4
f 26/39/89 25/38/90 77/162/91 78/117/92
s 2
f 78/118/93 79/119/94 27/41/95 26/40/96
s 3
f 28/183/97 27/42/98 79/120/99 80/186/100
s 1
f 25/159/101 28/43/102 80/121/103 77/116/104
s 4
f 30/45/105 29/44/106 85/158/107 86/129/108
s 2
f 86/130/109 87/131/110 31/47/111 30/46/112
s 3
f 32/185/113 31/48/114 87/132/115 88/182/116
s 1
f 29/161/117 32/49/118 88/133/119 85/128/120
s 4
f 34/51/121 33/50/122 81/160/123 82/123/124
s 2
f 82/124/125 83/125/126 35/53/127 34/52/128
s 3
f 36/179/129 35/54/130 83/126/131 84/184/132
s 1
f 33/155/133 36/55/134 84/127/135 81/122/136
s 4
f 38/57/137 37/56/138 93/154/139 94/141/140
s 2
f 94/142/141 95/143/142 39/59/143 38/58/144
s 3
f 40/181/145 39/60/146 95/144/147 96/178/148
s 1
f 37/157/149 40/61/150 96/145/151 93/140/152
s 4
f 42/63/24 41/174/23 89/156/153 90/135/154
s 2
f 90/136/155 91/137/156 43/65/10 42/64/9
s 3
f 44/199/20 43/66/19 91/138/157 92/180/158
s 1
f 41/62/4 44/67/3 92/139/159 89/134/160
f 46/172/161 45/68/162 49/198/163 50/173/164
s 4
f 47/70/165 46/69/166 50/75/167 51/76/168
s 2
f 51/77/169 52/78/170 48/72/171 47/71/172
s 3
f 45/197/173 48/73/174 52/79/175 49/74/176
s 1
f 50/173/164 49/198/163 97/176/177 98/152/178
s 4
f 51/76/168 50/75/167 98/147/179 99/148/180
s 2
f 99/149/181 100/150/182 52/78/170 51/77/169
s 3
f 49/74/176 52/79/175 100/151/183 97/146/184
s 1
f 54/171/40 53/196/39 45/68/162 46/172/161
s 4
f 55/82/28 54/81/27 46/69/166 47/70/165
s 2
f 47/71/172 48/72/171 56/84/30 55/83/29
s 3
f 53/80/36 56/85/35 48/73/174 45/197/173
s 1
f 58/170/185 57/86/186 65/192/187 66/168/188
s 4
f 59/88/189 58/87/190 66/99/191 67/100/192
s 2
f 67/101/193 68/102/194 60/90/195 59/89/196
s 3
f 57/195/197 60/91/198 68/103/199 65/98/200
s 1
f 62/169/56 61/194/55 57/86/186 58/170/185
s 4
f 63/94/44 62/93/43 58/87/190 59/88/189
s 2
f 59/89/196 60/90/195 64/96/46 63/95/45
s 3
f 61/92/52 64/97/51 60/91/198 57/195/197
s 1
f 66/168/188 65/192/187 4/4/201 3/201/202
s 4
f 67/100/192 66/99/191 3/3/203 5/210/204
s 2
f 5/5/205 6/202/206 68/102/194 67/101/193
s 3
f 65/98/200 68/103/199 6/6/207 4/207/208
s 4
f 70/105/60 69/166/59 9/14/26 10/15/25
s 2
f 10/16/32 11/17/31 71/107/62 70/106/61
s 3
f 72/190/68 71/108/67 11/18/34 12/212/33
s 1
f 69/104/72 72/109/71 12/19/38 9/167/37
s 4
f 74/111/76 73/164/75 17/26/58 18/27/57
s 2
f 18/28/64 19/29/63 75/113/78 74/112/77
s 3
f 76/188/84 75/114/83 19/30/66 20/189/65
s 1
f 73/110/88 76/115/87 20/31/70 17/165/69
s 4
f 78/117/92 77/162/91 21/32/74 22/33/73
s 2
f 22/34/80 23/35/79 79/119/94 78/118/93
s 3
f 80/186/100 79/120/99 23/36/82 24/187/81
s 1
f 77/116/104 80/121/103 24/37/86 21/163/85
s 4
f 82/123/124 81/160/123 29/44/106 30/45/105
s 2
f 30/46/112 31/47/111 83/125/126 82/124/125
s 3
f 84/184/132 83/126/131 31/48/114 32/185/113
s 1
f 81/122/136 84/127/135 32/49/118 29/161/117
s 4
f 86/129/108 85/158/107 25/38/90 26/39/89
s 2
f 26/40/96 27/41/95 87/131/110 86/130/109
s 3
f 88/182/116 87/132/115 27/42/98 28/183/97
s 1
f 85/128/120 88/133/119 28/43/102 25/159/101
s 4
f 90/135/154 89/156/153 37/56/138 38/57/137
s 2
f 38/58/144 39/59/143 91/137/156 90/136/155
s 3
f 92/180/158 91/138/157 39/60/146 40/181/145
s 1
f 89/134/160 92/139/159 40/61/150 37/157/149
s 4
f 94/141/140 93/154/139 33/50/122 34/51/121
s 2
f 34/52/128 35/53/127 95/143/142 94/142/141
s 3
f 96/178/148 95/144/147 35/54/130 36/179/129
s 1
f 93/140/152 96/145/151 36/55/134 33/155/133
f 98/152/178 97/176/177 16/25/54 13/153/53
s 4
f 99/148/180 98/147/179 13/20/42 14/21/41
s 2
f 14/22/48 15/23/47 100/150/182 99/149/181
s 3
f 97/146/184 100/151/183 15/24/50 16/206/49
