# This file uses centimeters as units for non-parametric coordinates.

mtllib Glasses_Geo.mtl
g default
v 0.034759 0.044604 0.082763
v 0.035417 0.035281 0.082763
v 0.035417 0.035281 0.073191
v 0.034759 0.044604 0.073191
v 0.034759 0.044604 -0.079398
v 0.035417 0.035281 -0.079398
v 0.035417 0.035281 -0.088972
v 0.034759 0.044604 -0.088972
v -0.042509 0.035254 0.060178
v -0.042509 0.035254 0.068117
v -0.046073 0.040630 0.068117
v -0.046073 0.040630 0.060178
v -0.042509 0.035254 -0.074326
v -0.042509 0.035254 -0.066385
v -0.046073 0.040630 -0.066385
v -0.046073 0.040630 -0.074326
v 0.101278 0.012593 0.066677
v 0.137973 0.002838 0.025044
v 0.137973 0.064480 0.025044
v 0.101278 0.055394 0.066677
v 0.101278 0.055394 -0.072885
v 0.137973 0.064480 -0.031252
v 0.137973 0.002838 -0.031252
v 0.101278 0.012593 -0.072885
v 0.119413 0.019749 -0.089283
v 0.126258 0.018989 -0.087845
v 0.126256 0.048510 -0.087849
v 0.119424 0.048280 -0.089282
v 0.126258 0.018989 0.081636
v 0.119413 0.019749 0.083074
v 0.119424 0.048280 0.083073
v 0.126256 0.048510 0.081640
v 0.126108 0.011760 0.066035
v 0.118824 0.011332 0.065590
v 0.126101 0.011786 -0.072260
v 0.118666 0.011343 -0.071808
v 0.145239 0.007189 0.042152
v 0.141174 0.004428 0.032650
v 0.126199 0.055670 0.065867
v 0.118975 0.056196 0.065580
v 0.141444 0.063023 0.032013
v 0.145374 0.060206 0.041904
v 0.126194 0.055564 -0.072405
v 0.118958 0.056196 -0.071789
v 0.145374 0.059818 -0.049138
v 0.141444 0.062675 -0.039887
v 0.141174 0.004428 -0.038858
v 0.145239 0.007189 -0.048359
v 0.159768 0.023133 0.040517
v 0.162989 0.028995 0.034775
v 0.162989 0.038331 0.034775
v 0.159768 0.044193 0.040517
v 0.159768 0.023133 -0.046726
v 0.162989 0.028995 -0.040983
v 0.159831 0.044147 -0.046609
v 0.162989 0.038509 -0.041085
v 0.154777 0.019490 0.049856
v 0.154777 0.019490 -0.056063
v 0.155098 0.048667 -0.056063
v 0.155098 0.048667 0.049856
v 0.130119 0.020249 -0.076496
v 0.123822 0.020482 -0.079244
v 0.123821 0.047006 -0.079247
v 0.130100 0.047077 -0.076507
v 0.123822 0.020482 0.073034
v 0.130119 0.020249 0.070288
v 0.130100 0.047077 0.070299
v 0.123821 0.047006 0.073038
v 0.123665 0.014010 -0.065240
v 0.130432 0.016098 -0.067218
v 0.148002 0.013791 -0.051751
v 0.142804 0.009880 -0.043766
v 0.123763 0.053440 0.058865
v 0.130498 0.051486 0.060406
v 0.148396 0.053876 0.045243
v 0.142938 0.057515 0.037336
v 0.130506 0.051149 -0.067734
v 0.148396 0.052940 -0.053097
v 0.130310 0.016019 0.060962
v 0.148002 0.013791 0.045542
v 0.123758 0.053345 -0.065370
v 0.123674 0.013987 0.059017
v 0.142804 0.009880 0.037557
v 0.142938 0.057167 -0.044465
v -0.067982 0.018689 0.045252
v -0.068107 0.018662 0.051306
v -0.068349 0.026183 0.051281
v -0.068229 0.026215 0.045230
v -0.068107 0.018662 -0.057515
v -0.067982 0.018689 -0.051461
v -0.068185 0.026227 -0.051442
v -0.068349 0.026183 -0.057490
v -0.075080 0.014571 0.043258
v -0.075080 0.014516 -0.049429
v -0.004278 0.038687 0.071131
v 0.035417 0.035281 0.077977
v -0.004641 0.038702 0.075440
v -0.042509 0.035254 0.064147
v -0.004641 0.038702 0.066685
v -0.004025 0.040679 0.075735
v 0.034759 0.038231 0.082763
v -0.005657 0.042617 0.075440
v -0.042509 0.037942 0.068117
v -0.005294 0.042635 0.071131
v 0.034759 0.044604 0.077977
v -0.005657 0.042617 0.066685
v -0.046073 0.040630 0.064147
v -0.004020 0.040679 0.066948
v 0.034759 0.038231 0.073191
v -0.042509 0.037942 0.060178
v -0.004278 0.038687 -0.077339
v 0.035417 0.035281 -0.084185
v -0.004641 0.038702 -0.072892
v -0.042509 0.035254 -0.070355
v -0.004641 0.038702 -0.081649
v -0.004020 0.040679 -0.073155
v 0.034759 0.038231 -0.079398
v -0.005657 0.042617 -0.072892
v -0.042509 0.037942 -0.066385
v -0.005294 0.042635 -0.077339
v 0.034759 0.044604 -0.084185
v -0.005657 0.042617 -0.081649
v -0.046073 0.040630 -0.070355
v -0.004025 0.040679 -0.081945
v 0.034759 0.038231 -0.088972
v -0.042509 0.037942 -0.074326
vt 0.319533 0.729267
vt 0.457897 0.747098
vt 0.441613 0.873461
vt 0.303249 0.855631
vt 0.357483 0.607522
vt 0.453554 0.619902
vt 0.405165 0.995401
vt 0.309094 0.983021
vt 0.189431 0.238610
vt 0.199885 0.229304
vt 0.214274 0.229637
vt 0.224171 0.239914
vt 0.192270 0.101476
vt 0.202255 0.111212
vt 0.216912 0.111360
vt 0.226991 0.101852
vt 0.228042 0.280411
vt 0.737197 0.106562
vt 0.695943 0.193660
vt 0.333342 0.141122
vt 0.769710 0.154722
vt 0.733097 0.150390
vt 0.574759 0.141255
vt 0.695415 0.203178
vt 0.475733 0.299673
vt 0.239487 0.300730
vt 0.939986 0.510503
vt 0.699100 0.212444
vt 0.288987 0.102071
vt 0.325556 0.097376
vt 0.258287 0.316581
vt 0.222039 0.477420
vt 0.949294 0.517910
vt 0.251639 0.467262
vt 0.203141 0.463275
vt 0.233293 0.459125
vt 0.496722 0.470042
vt 0.279784 0.476050
vt 0.261920 0.468821
vt 0.469171 0.467056
vt 0.465066 0.484228
vt 0.535245 0.478798
vt 0.533312 0.500327
vt 0.470257 0.505204
vt 0.556817 0.513055
vt 0.552689 0.531110
vt 0.448764 0.521780
vt 0.455624 0.538953
vt 0.469791 0.489418
vt 0.540055 0.485430
vt 0.537711 0.506911
vt 0.474580 0.510493
vt 0.561289 0.520494
vt 0.556778 0.538422
vt 0.452720 0.527019
vt 0.459247 0.544280
vt 0.652388 0.750478
vt 0.654640 0.670681
vt 0.669017 0.668529
vt 0.665591 0.747786
vt 0.658777 0.501387
vt 0.683394 0.666377
vt 0.605133 0.540403
vt 0.600027 0.506378
vt 0.678693 0.746540
vt 0.661127 0.824320
vt 0.649202 0.826105
vt 0.473169 0.477749
vt 0.653536 0.488314
vt 0.601296 0.492051
vt 0.673053 0.822534
vt 0.635675 0.888422
vt 0.617435 0.890917
vt 0.526242 0.459656
vt 0.302342 0.482478
vt 0.614983 0.907503
vt 0.160939 0.552714
vt 0.170818 0.518582
vt 0.112638 0.516525
vt 0.092680 0.686259
vt 0.078549 0.684897
vt 0.064418 0.683535
vt 0.171602 0.503973
vt 0.119765 0.503109
vt 0.083574 0.766245
vt 0.070699 0.764277
vt 0.057720 0.763753
vt 0.076000 0.841995
vt 0.064279 0.840865
vt 0.052557 0.839734
vt 0.098657 0.905296
vt 0.080698 0.903805
vt 0.098848 0.921877
vt 0.097962 0.766256
vt 0.088416 0.681897
vt 0.102138 0.682864
vt 0.110420 0.766382
vt 0.104899 0.507839
vt 0.159989 0.510874
vt 0.153581 0.547105
vt 0.115860 0.683831
vt 0.123067 0.768025
vt 0.118891 0.851417
vt 0.107509 0.850615
vt 0.110031 0.493912
vt 0.159924 0.495976
vt 0.282074 0.476500
vt 0.130273 0.852220
vt 0.165656 0.909380
vt 0.148272 0.908398
vt 0.444411 0.475349
vt 0.167679 0.937442
vt 0.567621 0.507708
vt 0.575230 0.543789
vt 0.568177 0.492730
vt 0.495718 0.456954
vt 0.622590 0.503704
vt 0.644871 0.677438
vt 0.631182 0.678639
vt 0.617493 0.679839
vt 0.616996 0.489868
vt 0.638136 0.761935
vt 0.625682 0.762274
vt 0.613091 0.764132
vt 0.631400 0.846433
vt 0.620045 0.847429
vt 0.608690 0.848424
vt 0.592571 0.904893
vt 0.575218 0.906080
vt 0.573969 0.934340
vt 0.497643 0.124944
vt 0.479656 0.123204
vt 0.480209 0.158607
vt 0.469116 0.145864
vt 0.199157 0.354777
vt 0.196795 0.337672
vt 0.162298 0.348102
vt 0.170948 0.334086
vt 0.483075 0.280569
vt 0.539915 0.334009
vt 0.516846 0.337207
vt 0.548593 0.348017
vt 0.512467 0.354650
vt 0.455028 0.316288
vt 0.565664 0.127371
vt 0.616494 0.109171
vt 0.611298 0.125633
vt 0.628021 0.108010
vt 0.620914 0.133058
vt 0.578870 0.158120
vt 0.765394 0.517265
vt 0.714167 0.480751
vt 0.728208 0.473594
vt 0.774753 0.509924
vt 0.567428 0.457061
vt 0.669882 0.527178
vt 0.642554 0.541768
vt 0.549348 0.471837
vt 1.000750 0.481793
vt 0.986763 0.474538
vt 0.105378 0.536032
vt 0.133244 0.549809
vt 0.662564 0.689366
vt 0.664308 0.696533
vt 0.664635 0.712082
vt 0.502112 0.741772
vt 0.499957 0.637349
vt 0.761751 0.695584
vt 0.760257 0.700453
vt 0.764399 0.705094
vt 0.855090 0.685326
vt 0.855429 0.691897
vt 0.864068 0.698528
vt 0.923553 0.638938
vt 0.925606 0.657208
vt 0.940689 0.627488
vt 0.670849 0.648172
vt 0.670918 0.663724
vt 0.669357 0.670933
vt 0.508131 0.727072
vt 0.507627 0.622630
vt 0.770757 0.652618
vt 0.766734 0.657363
vt 0.768351 0.662192
vt 0.870557 0.656644
vt 0.862091 0.663493
vt 0.861918 0.670070
vt 0.933025 0.696358
vt 0.931531 0.714708
vt 0.948963 0.725865
vt 0.729069 0.786117
vt 0.724797 0.686814
vt 0.731907 0.688689
vt 0.733953 0.784713
vt 0.764387 0.483875
vt 0.747396 0.689306
vt 0.695043 0.481190
vt 0.738498 0.788932
vt 0.723610 0.879749
vt 0.717068 0.879245
vt 0.693860 0.464118
vt 0.765611 0.466930
vt 0.730113 0.888439
vt 0.686469 0.951258
vt 0.668340 0.948672
vt 0.655406 0.973222
vt 0.684797 0.795905
vt 0.679689 0.696015
vt 0.695191 0.695986
vt 0.689499 0.791862
vt 0.739909 0.490041
vt 0.702366 0.694383
vt 0.670514 0.490090
vt 0.694326 0.793450
vt 0.696225 0.887220
vt 0.689396 0.895657
vt 0.741740 0.473027
vt 0.669935 0.473113
vt 0.702781 0.886965
vt 0.748836 0.958192
vt 0.730621 0.960087
vt 0.760969 0.983272
vt 0.657697 0.463604
vt 0.657647 0.479820
vt 0.595110 0.481753
vt 0.594446 0.465604
vt 0.618257 0.260382
vt 0.618227 0.244167
vt 0.681477 0.246242
vt 0.680794 0.262389
vt 0.777060 0.110902
vt 0.179874 0.254911
vt 0.293523 0.145859
vt 0.237184 0.085695
vt 0.233721 0.256228
vt 0.183236 0.084836
vt 0.785506 0.243603
vt 0.767865 0.250790
vt 0.777684 0.249054
vt 0.433264 0.075781
vt 0.456787 0.070108
vt 0.477991 0.056288
vn -1.000000 0.000000 -0.000000
vn -1.000000 0.000000 -0.000000
vn -1.000000 0.000000 -0.000000
vn -1.000000 0.000000 -0.000000
vn -0.097934 -0.001237 -0.995192
vn -0.097934 -0.001237 -0.995192
vn -0.097934 -0.001237 -0.995192
vn -0.097934 -0.001237 -0.995192
vn -0.097934 -0.001237 -0.995192
vn -0.097925 -0.001237 0.995193
vn -0.097925 -0.001237 0.995193
vn -0.097925 -0.001237 0.995193
vn -0.097925 -0.001237 0.995193
vn -0.097925 -0.001237 0.995193
vn -0.085578 -0.996330 0.001719
vn -0.177499 -0.918838 0.352463
vn -0.177887 -0.918193 0.353947
vn -0.085578 -0.996330 0.001719
vn -0.183095 -0.060464 0.981234
vn -0.010579 -0.002371 0.999941
vn -0.018773 -0.002216 0.999821
vn -0.183095 -0.060464 0.981234
vn -0.049107 0.998793 0.000001
vn -0.067254 0.954360 0.290988
vn -0.067021 0.955661 0.286741
vn -0.049107 0.998793 0.000001
vn 0.158948 -0.000014 -0.987287
vn 0.158948 -0.000014 -0.987287
vn 0.158948 -0.000014 -0.987287
vn 0.158948 -0.000014 -0.987287
vn -0.084990 -0.996380 0.001724
vn -0.179223 -0.916127 -0.358595
vn -0.178039 -0.918214 -0.353815
vn -0.084990 -0.996380 0.001724
vn 0.163326 0.053920 0.985098
vn 0.163326 0.053920 0.985098
vn 0.163326 0.053920 0.985098
vn 0.163326 0.053920 0.985098
vn -0.049107 0.998793 0.000003
vn -0.066955 0.956093 -0.285313
vn -0.067031 0.955674 -0.286696
vn -0.049107 0.998793 0.000003
vn -0.178285 0.000015 -0.983979
vn -0.019386 -0.000032 -0.999812
vn -0.018765 -0.002204 -0.999822
vn -0.178285 0.000015 -0.983979
vn -0.750193 0.000000 -0.661218
vn -0.750194 0.000000 -0.661218
vn -0.750193 0.000000 -0.661218
vn -0.750193 0.000000 -0.661218
vn -0.750196 0.000000 0.661216
vn -0.750196 0.000000 0.661216
vn -0.750196 0.000000 0.661216
vn -0.750196 0.000000 0.661216
vn 0.776309 -0.619696 0.115416
vn 0.969565 -0.240620 0.045223
vn 0.969671 0.240052 0.045968
vn 0.824604 0.554159 0.113735
vn 0.776589 -0.619239 -0.115984
vn 0.969645 -0.240395 -0.044717
vn 0.824785 0.553914 -0.113615
vn 0.969391 0.241296 -0.045353
vn 0.744951 -0.463088 0.480205
vn 0.745418 -0.462396 -0.480148
vn 0.744008 0.473068 -0.471866
vn 0.735656 0.469982 0.487777
vn 0.580927 -0.175717 -0.794762
vn 0.399906 -0.000094 -0.916556
vn 0.399906 -0.000094 -0.916556
vn 0.582021 0.157098 -0.797854
vn 0.205378 -0.000089 -0.978683
vn 0.024225 -0.000044 -0.999706
vn 0.020990 -0.000043 -0.999780
vn 0.205378 -0.000089 -0.978683
vn 0.024220 -0.000055 0.999707
vn 0.205397 -0.000085 0.978679
vn 0.205397 -0.000085 0.978679
vn 0.020985 -0.000054 0.999780
vn 0.399775 -0.000103 0.916613
vn 0.580744 -0.176724 0.794673
vn 0.579921 0.173646 0.795952
vn 0.399775 -0.000103 0.916613
vn -0.113722 -0.938715 -0.325394
vn 0.047629 -0.955325 -0.291696
vn 0.061277 -0.968587 -0.241007
vn -0.021491 -0.980149 -0.197093
vn 0.172239 -0.917014 -0.359750
vn 0.244869 -0.881351 -0.404054
vn 0.552916 -0.826047 -0.109225
vn 0.544057 -0.837138 -0.056593
vn -0.036161 0.958623 0.282372
vn 0.065459 0.955795 0.286655
vn 0.069660 0.967876 0.241586
vn 0.283381 0.952792 0.109006
vn 0.167702 0.919304 0.356029
vn 0.225057 0.890488 0.395449
vn 0.499945 0.859584 0.105688
vn 0.529072 0.847168 0.048877
vn -0.019394 -0.000044 0.999812
vn -0.010570 -0.002358 -0.999941
vn -0.059237 0.940382 -0.334922
vn -0.067264 0.954373 -0.290944
vn -0.064625 0.947077 -0.314435
vn -0.035158 0.958858 -0.281700
vn -0.058915 0.940400 0.334930
vn -0.064840 0.946941 0.314798
vn -0.066945 0.956080 0.285359
vn -0.173799 -0.898520 0.403058
vn -0.179067 -0.916107 0.358723
vn -0.175799 -0.907588 0.381286
vn -0.113522 -0.938847 0.325084
vn -0.173615 -0.898586 -0.402989
vn -0.176011 -0.907547 -0.381286
vn -0.177650 -0.918860 -0.352331
vn 0.229115 0.889447 -0.395461
vn 0.497498 0.859487 -0.117378
vn 0.244967 -0.881346 0.404006
vn 0.553030 -0.825950 0.109380
vn 0.274784 0.954352 -0.117076
vn 0.229552 0.969082 -0.090473
vn 0.221810 0.970861 0.090713
vn -0.021844 -0.980212 0.196741
vn -0.042714 -0.981718 0.185489
vn -0.042638 -0.981705 -0.185575
vn 0.552130 -0.833758 -0.000000
vn 0.444955 -0.895553 -0.000000
vn 0.444955 -0.895553 -0.000000
vn 0.552131 -0.833757 -0.000000
vn 0.158175 0.896270 -0.414343
vn 0.176743 0.917468 -0.356390
vn 0.049872 0.909545 -0.412603
vn 0.072955 0.952800 -0.294702
vn 0.150510 -0.898228 0.412956
vn 0.171872 -0.917248 0.359326
vn 0.008778 -0.904054 0.427328
vn 0.047633 -0.955384 0.291499
vn 0.544394 -0.836957 0.056014
vn 0.061490 -0.968700 0.240497
vn 0.009358 -0.904333 -0.426725
vn 0.151799 -0.898843 -0.411142
vn 0.052706 0.909858 0.411558
vn 0.167380 0.897980 0.406959
vn 0.529342 0.846229 -0.060766
vn 0.081322 0.965043 -0.249156
vn 0.585470 0.810686 -0.003663
vn 0.585470 0.810686 -0.003663
vn 0.561834 -0.827250 -0.000000
vn 0.561834 -0.827250 -0.000000
vn 0.962166 0.000083 0.272464
vn 0.962166 0.000083 0.272464
vn 0.962166 0.000083 0.272464
vn 0.962166 0.000083 0.272464
vn 0.962172 0.000081 -0.272443
vn 0.962172 0.000081 -0.272443
vn 0.962172 0.000081 -0.272443
vn 0.962172 0.000081 -0.272443
vn 0.429841 0.882040 -0.192984
vn 0.429841 0.882040 -0.192984
vn 0.429841 0.882040 -0.192984
vn 0.429841 0.882040 -0.192984
vn 0.428939 -0.882118 0.194625
vn 0.428939 -0.882118 0.194625
vn 0.428939 -0.882118 0.194625
vn 0.428939 -0.882118 0.194625
vn 0.898739 -0.397392 0.185331
vn 0.898739 -0.397392 0.185331
vn 0.898739 -0.397392 0.185331
vn 0.898739 -0.397392 0.185331
vn 0.902069 0.388082 -0.188850
vn 0.902069 0.388082 -0.188850
vn 0.902069 0.388082 -0.188850
vn 0.902069 0.388082 -0.188850
vn 0.429394 0.882145 0.193495
vn 0.429394 0.882145 0.193495
vn 0.429394 0.882145 0.193495
vn 0.429394 0.882145 0.193495
vn 0.902002 0.388182 0.188962
vn 0.902002 0.388182 0.188962
vn 0.902002 0.388182 0.188962
vn 0.902002 0.388182 0.188962
vn 0.897958 -0.399431 -0.184732
vn 0.897958 -0.399431 -0.184732
vn 0.897958 -0.399431 -0.184732
vn 0.897958 -0.399431 -0.184732
vn 0.414278 -0.888501 -0.197332
vn 0.414278 -0.888501 -0.197332
vn 0.414278 -0.888501 -0.197332
vn 0.414278 -0.888501 -0.197332
vn 0.738992 -0.673708 0.002870
vn 0.738992 -0.673708 0.002870
vn 0.738992 -0.673708 0.002870
vn 0.738992 -0.673708 0.002870
vn 0.741415 0.671047 0.000000
vn 0.741415 0.671047 0.000000
vn 0.741415 0.671047 0.000000
vn 0.741415 0.671047 0.000000
vn 0.399761 -0.916619 0.000192
vn 0.359918 -0.932983 0.001622
vn 0.301388 -0.953490 0.004759
vn 0.541263 -0.840847 0.003384
vn 0.536556 -0.843857 0.003747
vn -0.429461 -0.121193 0.894917
vn -0.360849 -0.125711 0.924113
vn -0.450157 -0.143920 0.881275
vn -0.512272 -0.136704 0.847873
vn -0.562007 -0.115811 0.818985
vn -0.248472 0.968638 -0.001093
vn -0.318640 0.947874 -0.001480
vn -0.366628 0.930366 -0.001746
vn -0.638249 0.769808 -0.005847
vn -0.579920 0.814664 -0.003907
vn 0.411054 0.131459 -0.902083
vn 0.326086 0.113733 -0.938474
vn 0.391061 0.110503 -0.913707
vn 0.417795 0.107562 -0.902152
vn 0.446565 0.127796 -0.885578
vn 0.301379 -0.953492 -0.004758
vn 0.359912 -0.932985 -0.001625
vn 0.399756 -0.916622 -0.000196
vn 0.537292 -0.843388 -0.003772
vn 0.541476 -0.840710 -0.003393
vn 0.391689 0.109582 0.913549
vn 0.326491 0.113082 0.938412
vn 0.411762 0.130479 0.901902
vn 0.447656 0.126689 0.885186
vn 0.419157 0.106195 0.901682
vn -0.366551 0.930395 0.002375
vn -0.318566 0.947898 0.002014
vn -0.248438 0.968647 0.001487
vn -0.580033 0.814575 0.005340
vn -0.637659 0.770278 0.007960
vn -0.450158 -0.143928 -0.881273
vn -0.360851 -0.125717 -0.924111
vn -0.429461 -0.121199 -0.894916
vn -0.562682 -0.115749 -0.818530
vn -0.512412 -0.136714 -0.847787
vn 0.267360 0.005871 -0.963579
vn 0.500392 -0.865775 0.006495
vn -0.750088 -0.021822 0.660978
vn -0.860724 0.508870 -0.014342
vn -0.751571 -0.021894 -0.659289
vn 0.505399 -0.862861 -0.006620
vn 0.272534 0.004919 0.962133
vn -0.860114 0.509726 0.019568
vn -0.084990 -0.996380 -0.001722
vn -0.084990 -0.996380 -0.001722
vn 0.088981 -0.996017 0.005743
vn 0.088981 -0.996017 0.005743
vn 0.091058 -0.995829 -0.005739
vn 0.091058 -0.995829 -0.005739
vn -0.178283 0.000015 0.983979
vn -0.178283 0.000015 0.983979
vn -0.176478 -0.135896 0.974878
vn -0.176478 -0.135896 0.974878
vn -0.189013 -0.037252 0.981268
vn -0.189013 -0.037252 0.981268
vn -0.049109 0.998793 -0.000000
vn -0.049109 0.998793 -0.000000
vn -0.049108 0.998793 0.000001
vn -0.049108 0.998793 0.000001
vn -0.049108 0.998793 -0.000000
vn -0.049108 0.998793 -0.000000
vn 0.163328 0.053936 -0.985096
vn 0.163328 0.053936 -0.985096
vn 0.163328 0.053936 -0.985096
vn 0.163328 0.053936 -0.985096
vn 0.168606 0.033215 -0.985124
vn 0.168606 0.033215 -0.985124
vn 0.157628 0.121394 -0.980009
vn 0.157628 0.121394 -0.980009
vn -0.085579 -0.996330 -0.001722
vn -0.085579 -0.996330 -0.001722
vn 0.091057 -0.995829 0.005734
vn 0.091057 -0.995829 0.005734
vn 0.088979 -0.996017 -0.005739
vn 0.088979 -0.996017 -0.005739
vn 0.158949 -0.000006 0.987287
vn 0.158949 -0.000006 0.987287
vn 0.158949 -0.000006 0.987287
vn 0.158949 -0.000006 0.987287
vn 0.157632 0.121401 0.980007
vn 0.157632 0.121401 0.980007
vn 0.168609 0.033203 0.985124
vn 0.168609 0.033203 0.985124
vn -0.049109 0.998793 -0.000003
vn -0.049109 0.998793 -0.000003
vn -0.049108 0.998793 0.000001
vn -0.049108 0.998793 0.000001
vn -0.049107 0.998794 -0.000000
vn -0.049107 0.998794 -0.000000
vn -0.183095 -0.060472 -0.981234
vn -0.183095 -0.060472 -0.981234
vn -0.189014 -0.037249 -0.981268
vn -0.189014 -0.037249 -0.981268
vn -0.176484 -0.135900 -0.974877
vn -0.176484 -0.135900 -0.974877
s off
g pCube174
usemtl initialShadingGroup
f 18/1/1 19/2/2 22/3/3 23/4/4
f 3/163/5 109/164/6 4/165/7 20/166/8 17/167/9
f 5/177/10 117/178/11 6/179/12 24/180/13 21/181/14
s 1
f 99/57/15 3/58/16 96/59/17 95/60/18
s 2
f 97/191/19 2/192/20 101/193/21 100/194/22
s 3
f 102/94/23 1/95/24 105/96/25 104/97/26
s off
f 106/170/27 4/165/28 109/164/29 108/169/30
s 4
f 115/87/31 7/82/32 112/81/33 111/86/34
s off
f 113/184/35 6/179/36 117/178/37 116/183/38
s 3
f 118/124/39 5/120/40 121/119/41 120/123/42
s 6
f 122/207/43 8/208/44 125/209/45 124/210/46
s off
f 18/1/47 17/5/48 20/6/49 19/2/50
f 22/3/51 21/7/52 24/8/53 23/4/54
s 7
f 49/9/55 50/10/56 51/11/57 52/12/58
f 50/10/56 49/9/55 53/13/59 54/14/60
f 54/14/60 53/13/59 55/16/61 56/15/62
f 56/15/62 55/16/61 52/12/58 51/11/57
f 50/10/56 54/14/60 56/15/62 51/11/57
f 57/232/63 58/236/64 53/13/59 49/9/55
f 58/236/64 59/234/65 55/16/61 53/13/59
f 59/234/65 60/235/66 52/12/58 55/16/61
f 60/235/66 57/232/63 49/9/55 52/12/58
f 61/223/67 62/224/68 63/225/69 64/226/70
s 6
f 26/217/71 25/211/72 28/213/73 27/218/74
s 2
f 30/197/75 29/201/76 32/202/77 31/195/78
s 7
f 65/227/79 66/228/80 67/229/81 68/230/82
s 4
f 36/78/83 35/83/84 48/34/85 47/38/86
s 7
f 69/131/87 70/132/88 71/241/89 72/242/90
s 3
f 40/99/91 39/106/92 42/36/93 41/39/94
s 7
f 73/135/95 74/136/96 75/26/97 76/31/98
s 2
f 31/195/78 1/196/99 101/193/21 2/192/20 30/197/75
s 6
f 25/211/72 7/212/100 125/209/45 8/208/44 28/213/73
s 3
f 28/117/101 8/118/102 121/119/41 5/120/40 21/114/103 44/113/104
s 7
f 61/29/67 64/30/70 59/20/65 58/233/64
f 67/21/81 66/22/80 57/18/63 60/231/66
s 3
f 31/98/105 40/99/91 20/100/106 4/101/107 105/96/25 1/95/24
s 1
f 30/61/108 2/62/109 96/59/17 3/58/16 17/63/110 34/64/111
s 4
f 25/79/112 36/78/83 24/77/113 6/80/114 112/81/33 7/82/32
s 7
f 59/139/65 64/140/70 77/141/115 78/25/116
f 60/17/66 75/26/97 74/136/96 67/138/81
f 58/240/64 71/241/89 70/132/88 61/134/67
f 57/145/63 66/146/80 79/147/117 80/23/118
f 80/239/118 71/24/89 58/19/64 57/237/63
s 3
f 46/40/119 22/111/120 19/107/121 41/39/94
s 1
f 38/37/122 34/64/111 17/63/110 18/68/123
s 3
f 41/39/94 19/107/121 20/100/106 40/99/91
f 46/40/119 44/113/104 21/114/103 22/111/120
s 4
f 47/38/86 23/75/124 24/77/113 36/78/83
s 7
f 78/25/116 75/26/97 60/17/66 59/139/65
s 12
f 38/37/125 18/68/126 23/75/127 47/38/128
s 7
f 64/140/70 63/142/129 81/143/130 77/141/115
s 3
f 27/121/131 28/117/101 44/113/104 43/115/132
s 7
f 66/146/80 65/148/133 82/149/134 79/147/117
s 1
f 29/69/135 30/61/108 34/64/111 33/70/136
s 7
f 79/147/117 82/149/134 83/150/137 80/23/118
s 1
f 33/70/136 34/64/111 38/37/122 37/74/138
s 4
f 25/79/112 26/84/139 35/83/84 36/78/83
s 7
f 62/133/140 61/134/67 70/132/88 69/131/87
s 3
f 31/98/105 32/105/141 39/106/92 40/99/91
s 7
f 68/137/142 67/138/81 74/136/96 73/135/95
f 77/141/115 81/143/130 84/144/143 78/25/116
s 3
f 43/115/132 44/113/104 46/40/119 45/116/144
f 41/39/94 42/36/145 45/116/146 46/40/119
s 7
f 76/31/98 75/26/97 78/25/116 84/144/143
f 80/239/118 83/238/137 72/28/90 71/24/89
s 12
f 37/74/147 38/37/125 47/38/128 48/34/148
s off
f 26/41/149 27/42/150 63/43/151 62/44/152
f 32/49/153 29/50/154 65/51/155 68/52/156
f 48/151/157 35/152/158 69/153/159 72/154/160
f 42/155/161 39/156/162 73/157/163 76/158/164
f 27/42/165 43/45/166 81/46/167 63/43/168
f 29/50/169 33/53/170 82/54/171 65/51/172
f 33/159/173 37/33/174 83/27/175 82/160/176
f 35/47/177 26/41/178 62/44/179 69/48/180
f 39/55/181 32/49/182 68/52/183 73/56/184
f 43/161/185 45/35/186 84/32/187 81/162/188
f 45/35/189 42/155/190 76/158/191 84/32/192
f 37/33/193 48/151/194 72/154/195 83/27/196
s 13
f 9/67/197 98/66/198 10/71/199 86/72/200 85/73/201
s 14
f 10/200/202 103/199/203 11/203/204 87/204/205 86/205/206
s 15
f 11/104/207 107/103/208 12/108/209 88/109/210 87/110/211
s 16
f 12/173/212 110/172/213 9/171/214 85/174/215 88/175/216
s 17
f 13/90/217 114/89/218 14/88/219 90/91/220 89/92/221
s 18
f 14/187/222 119/186/223 15/185/224 91/188/225 90/189/226
s 19
f 15/127/227 123/126/228 16/125/229 92/128/230 91/129/231
s 20
f 16/216/232 126/215/233 13/219/234 89/220/235 92/221/236
s 16
f 85/174/215 93/176/237 88/175/216
s 13
f 93/76/238 85/73/201 86/72/200
s 14
f 93/206/239 86/205/206 87/204/205
s 15
f 93/112/240 87/110/211 88/109/210
s 20
f 89/220/235 94/222/241 92/221/236
s 17
f 94/93/242 89/92/221 90/91/220
s 18
f 94/190/243 90/189/226 91/188/225
s 19
f 94/130/244 91/129/231 92/128/230
s 1
f 96/59/17 2/62/109 97/65/245 95/60/246
s 13
f 97/65/247 10/71/199 98/66/198 95/60/248
f 98/66/198 9/67/197 99/57/249 95/60/250
s 2
f 101/193/21 1/196/99 102/198/251 100/194/252
s 14
f 102/198/253 11/203/204 103/199/203 100/194/254
f 103/199/203 10/200/202 97/191/255 100/194/256
s 3
f 105/96/25 4/101/107 106/102/257 104/97/258
s 15
f 106/102/259 12/108/209 107/103/208 104/97/260
f 107/103/208 11/104/207 102/94/261 104/97/262
s off
f 109/164/263 3/163/264 99/168/265 108/169/266
s 16
f 99/168/267 9/171/214 110/172/213 108/169/268
f 110/172/213 12/173/212 106/170/269 108/169/270
s 4
f 112/81/33 6/80/114 113/85/271 111/86/272
s 17
f 113/85/273 14/88/219 114/89/218 111/86/274
f 114/89/218 13/90/217 115/87/275 111/86/276
s off
f 117/178/277 5/177/278 118/182/279 116/183/280
s 18
f 118/182/281 15/185/224 119/186/223 116/183/282
f 119/186/223 14/187/222 113/184/283 116/183/284
s 3
f 121/119/41 8/118/102 122/122/285 120/123/286
s 19
f 122/122/287 16/125/229 123/126/228 120/123/288
f 123/126/228 15/127/227 118/124/289 120/123/290
s 6
f 125/209/45 7/212/100 115/214/291 124/210/292
s 20
f 115/214/293 13/219/234 126/215/233 124/210/294
f 126/215/233 16/216/232 122/207/295 124/210/296
