# This file uses centimeters as units for non-parametric coordinates.

mtllib Outline_Crate.mtl
g default
v -2.375000 0.000000 0.375000
v -2.375000 0.000000 -0.375000
v -2.375000 0.025000 -0.375000
v -2.375000 0.025000 0.375000
v -1.625000 0.000000 -0.375000
v -1.625000 0.025000 -0.375000
v -2.500000 0.125000 0.375000
v -2.475000 0.125000 0.375000
v -1.625000 0.125000 -0.500000
v -2.375000 0.125000 -0.500000
v -2.375000 0.125000 -0.475000
v -1.625000 0.125000 -0.475000
v -2.375000 0.875000 -0.500000
v -2.375000 0.875000 -0.475000
v -2.500000 0.875000 -0.375000
v -2.475000 0.875000 -0.375000
v -1.625000 0.025000 0.375000
v -1.625000 0.875000 -0.475000
v -1.625000 0.000000 0.375000
v -1.625000 0.875000 -0.500000
v -1.625000 1.000000 -0.375000
v -2.375000 1.000000 -0.375000
v -2.375000 0.975000 -0.375000
v -1.625000 0.975000 -0.375000
v -2.375000 1.000000 0.375000
v -2.375000 0.975000 0.375000
v -1.500000 0.125000 0.375000
v -1.525000 0.125000 0.375000
v -2.375000 0.125000 0.500000
v -1.625000 0.125000 0.500000
v -1.625000 0.125000 0.475000
v -2.375000 0.125000 0.475000
v -1.500000 0.875000 -0.375000
v -1.525000 0.875000 -0.375000
v -2.375000 0.875000 0.500000
v -2.375000 0.875000 0.475000
v -1.625000 0.975000 0.375000
v -1.625000 0.875000 0.475000
v -2.500000 0.000000 -0.500000
v -1.500000 0.000000 0.500000
v -2.500000 0.000000 0.500000
v -1.500000 0.000000 -0.500000
v -1.500000 1.000000 -0.500000
v -2.500000 1.000000 0.500000
v -2.500000 1.000000 -0.500000
v -1.625000 1.000000 0.375000
v -1.625000 0.875000 0.500000
v -1.500000 1.000000 0.500000
v -1.525000 0.750013 0.375000
v -1.525000 0.875000 0.250013
v -1.500000 0.937494 0.437494
v -1.500000 0.750013 0.375000
v -1.500000 0.875000 0.250013
v -1.500000 0.062506 -0.437494
v -1.500000 0.249988 -0.375000
v -1.500000 0.125000 -0.250012
v -1.525000 0.249988 -0.375000
v -1.525000 0.125000 -0.250012
v -2.500000 0.062506 -0.437494
v -2.500000 0.125000 -0.250012
v -2.500000 0.249988 -0.375000
v -2.475000 0.249988 -0.375000
v -2.475000 0.125000 -0.250012
v -2.475000 0.875000 0.250013
v -2.475000 0.750013 0.375000
v -2.500000 0.937494 0.437494
v -2.500000 0.875000 0.250013
v -2.500000 0.750013 0.375000
vt 0.168831 0.434963
vt 0.168831 0.250995
vt 0.174964 0.250995
vt 0.174964 0.434963
vt 0.156995 0.434963
vt 0.156995 0.250995
vt 0.163127 0.250995
vt 0.163127 0.434963
vt 0.121911 0.840987
vt 0.115779 0.840987
vt 0.115779 0.687677
vt 0.121911 0.687677
vt 0.151290 0.250995
vt 0.151290 0.434963
vt 0.145158 0.434963
vt 0.145158 0.250995
vt 0.139453 0.250995
vt 0.139453 0.434963
vt 0.133321 0.434963
vt 0.133321 0.250995
vt 0.103942 0.840987
vt 0.103942 0.687677
vt 0.110075 0.687677
vt 0.110075 0.840987
vt 0.001852 0.683965
vt 0.001852 0.499997
vt 0.185821 0.499997
vt 0.185821 0.683965
vt 0.376277 0.499997
vt 0.376277 0.653307
vt 0.345618 0.683965
vt 0.192308 0.683965
vt 0.192308 0.530655
vt 0.222967 0.499997
vt 0.382583 0.683965
vt 0.382583 0.499997
vt 0.566552 0.499997
vt 0.566552 0.683965
vt 0.572858 0.683965
vt 0.572858 0.499997
vt 0.578991 0.499997
vt 0.578991 0.683965
vt 0.591676 0.499997
vt 0.591676 0.683965
vt 0.585543 0.683965
vt 0.585543 0.499997
vt 0.092105 0.840987
vt 0.092105 0.687677
vt 0.098238 0.687677
vt 0.098238 0.840987
vt 0.598228 0.683965
vt 0.598228 0.499997
vt 0.604361 0.499997
vt 0.604361 0.683965
vt 0.610913 0.683965
vt 0.610913 0.499997
vt 0.617046 0.499997
vt 0.617046 0.683965
vt 0.086401 0.840987
vt 0.080269 0.840987
vt 0.080269 0.687677
vt 0.086401 0.687677
vt 0.629731 0.499997
vt 0.629731 0.683965
vt 0.623598 0.683965
vt 0.623598 0.499997
vt 0.642416 0.499997
vt 0.642416 0.683965
vt 0.636283 0.683965
vt 0.636283 0.499997
vt 0.074564 0.687677
vt 0.074564 0.840987
vt 0.068432 0.840987
vt 0.068432 0.687677
vt 0.648968 0.683965
vt 0.648968 0.499997
vt 0.655100 0.499997
vt 0.655100 0.683965
vt 0.056595 0.687677
vt 0.062727 0.687677
vt 0.062727 0.840987
vt 0.056595 0.840987
vt 0.661653 0.683965
vt 0.661653 0.499997
vt 0.667786 0.499997
vt 0.667786 0.683965
vt 0.674338 0.683965
vt 0.674338 0.499997
vt 0.858307 0.499997
vt 0.858307 0.683965
vt 0.743983 0.871645
vt 0.743983 0.687677
vt 0.927951 0.687677
vt 0.927951 0.871645
vt 0.001852 0.001992
vt 0.032514 0.032653
vt 0.032514 0.216622
vt 0.216482 0.216622
vt 0.247143 0.247283
vt 0.001852 0.247283
vt 0.216482 0.032653
vt 0.247143 0.001992
vt 0.499212 0.001992
vt 0.499212 0.247283
vt 0.253921 0.247283
vt 0.284583 0.216622
vt 0.468551 0.216622
vt 0.468551 0.032653
vt 0.505809 0.001992
vt 0.521141 0.017324
vt 0.536470 0.063312
vt 0.536470 0.216622
vt 0.689781 0.216622
vt 0.735768 0.231951
vt 0.751100 0.247283
vt 0.505809 0.247283
vt 0.253921 0.001992
vt 0.284583 0.032653
vt 0.732146 0.871645
vt 0.732146 0.687677
vt 0.738278 0.687677
vt 0.738278 0.871645
vt 0.726441 0.687677
vt 0.726441 0.871645
vt 0.720309 0.871645
vt 0.720309 0.687677
vt 0.044758 0.687677
vt 0.050890 0.687677
vt 0.050890 0.840987
vt 0.044758 0.840987
vt 0.714604 0.687677
vt 0.714604 0.871645
vt 0.708472 0.871645
vt 0.708472 0.687677
vt 0.702767 0.687677
vt 0.702767 0.871645
vt 0.696635 0.871645
vt 0.696635 0.687677
vt 0.039053 0.687677
vt 0.039053 0.840987
vt 0.032921 0.840987
vt 0.032921 0.687677
vt 0.897290 0.465624
vt 0.897290 0.281656
vt 0.713321 0.281656
vt 0.682660 0.250995
vt 0.927951 0.250995
vt 0.927951 0.496286
vt 0.431664 0.250995
vt 0.676955 0.250995
vt 0.661623 0.266327
vt 0.615636 0.281656
vt 0.462326 0.281656
vt 0.462326 0.434966
vt 0.446996 0.480953
vt 0.431664 0.496286
vt 0.713321 0.465624
vt 0.682660 0.496286
vt 0.180668 0.250995
vt 0.425960 0.250995
vt 0.395298 0.281656
vt 0.211330 0.281656
vt 0.211330 0.465624
vt 0.180668 0.496286
vt 0.425960 0.496286
vt 0.395298 0.465624
vt 0.492984 0.465624
vt 0.646294 0.465624
vt 0.646294 0.312314
vt 0.676955 0.496286
vt 0.660272 0.687677
vt 0.690931 0.718335
vt 0.690931 0.871645
vt 0.537620 0.871645
vt 0.506962 0.840987
vt 0.506962 0.687677
vt 0.567129 0.032653
vt 0.720439 0.185964
vt 0.720439 0.032653
vt 0.751100 0.001992
vt 0.470599 0.687677
vt 0.501258 0.718335
vt 0.347947 0.871645
vt 0.317289 0.840987
vt 0.027216 0.840987
vt 0.021084 0.840987
vt 0.021084 0.687677
vt 0.027216 0.687677
vt 0.009247 0.687677
vt 0.015379 0.687677
vt 0.015379 0.840987
vt 0.009247 0.840987
vt 0.311585 0.840987
vt 0.280926 0.871645
vt 0.127616 0.718335
vt 0.158274 0.687677
vt 0.001852 0.844698
vt 0.007984 0.844698
vt 0.007984 0.998008
vt 0.001852 0.998008
vt 0.020851 0.998008
vt 0.014718 0.998008
vt 0.014718 0.844698
vt 0.020851 0.844698
vn -1.000000 0.000000 0.000000
vn -1.000000 0.000000 0.000000
vn -1.000000 0.000000 0.000000
vn -1.000000 0.000000 0.000000
vn 0.000000 0.000000 -1.000000
vn 0.000000 0.000000 -1.000000
vn 0.000000 0.000000 -1.000000
vn 0.000000 0.000000 -1.000000
vn 0.000000 -1.000000 0.000000
vn 0.000000 -1.000000 0.000000
vn 0.000000 -1.000000 0.000000
vn 0.000000 -1.000000 0.000000
vn 0.000000 -1.000000 0.000000
vn 0.000000 -1.000000 0.000000
vn 0.000000 -1.000000 0.000000
vn 0.000000 -1.000000 0.000000
vn -1.000000 0.000000 0.000000
vn -1.000000 0.000000 0.000000
vn -1.000000 0.000000 0.000000
vn -1.000000 0.000000 0.000000
vn 0.000000 0.000000 -1.000000
vn 0.000000 0.000000 -1.000000
vn 0.000000 0.000000 -1.000000
vn 0.000000 0.000000 -1.000000
vn -0.000000 1.000000 -0.000000
vn -0.000000 1.000000 -0.000000
vn -0.000000 1.000000 -0.000000
vn -0.000000 1.000000 -0.000000
vn 1.000000 0.000000 0.000000
vn 1.000000 0.000000 0.000000
vn 1.000000 0.000000 0.000000
vn 1.000000 0.000000 0.000000
vn 1.000000 0.000000 0.000000
vn 1.000000 0.000000 0.000000
vn 0.000000 0.000000 1.000000
vn 0.000000 0.000000 1.000000
vn 0.000000 0.000000 1.000000
vn 0.000000 0.000000 1.000000
vn 1.000000 0.000000 0.000000
vn 1.000000 0.000000 0.000000
vn 1.000000 0.000000 0.000000
vn 1.000000 0.000000 0.000000
vn 0.000000 0.000000 1.000000
vn 0.000000 0.000000 1.000000
vn 0.000000 0.000000 1.000000
vn 0.000000 0.000000 1.000000
vn 0.000000 0.000000 1.000000
vn 0.000000 0.000000 1.000000
vn 0.000000 0.000000 1.000000
vn 0.000000 0.000000 1.000000
vn 1.000000 0.000000 0.000000
vn 1.000000 0.000000 0.000000
vn 1.000000 0.000000 0.000000
vn 1.000000 0.000000 0.000000
vn -0.000000 1.000000 -0.000000
vn -0.000000 1.000000 -0.000000
vn -0.000000 1.000000 -0.000000
vn -0.000000 1.000000 -0.000000
vn -0.000000 1.000000 -0.000000
vn -0.000000 1.000000 -0.000000
vn -0.000000 1.000000 -0.000000
vn -0.000000 1.000000 -0.000000
vn 0.000000 0.000000 -1.000000
vn 0.000000 0.000000 -1.000000
vn 0.000000 0.000000 -1.000000
vn 0.000000 0.000000 -1.000000
vn -1.000000 0.000000 0.000000
vn -1.000000 0.000000 0.000000
vn -1.000000 0.000000 0.000000
vn -1.000000 0.000000 0.000000
vn 0.000000 -1.000000 0.000000
vn 0.000000 -1.000000 0.000000
vn 0.000000 -1.000000 0.000000
vn 0.000000 -1.000000 0.000000
vn 0.000000 -1.000000 0.000000
vn 0.000000 -1.000000 0.000000
vn 0.000000 -1.000000 0.000000
vn 0.000000 -1.000000 0.000000
vn 0.000000 0.000000 -1.000000
vn 0.000000 0.000000 -1.000000
vn 0.000000 0.000000 -1.000000
vn 0.000000 0.000000 -1.000000
vn -1.000000 0.000000 0.000000
vn -1.000000 0.000000 0.000000
vn -1.000000 0.000000 0.000000
vn -1.000000 0.000000 0.000000
vn 0.000000 -1.000000 0.000000
vn 0.000000 -1.000000 0.000000
vn 0.000000 -1.000000 0.000000
vn 0.000000 -1.000000 0.000000
vn 0.000000 0.000000 -1.000000
vn 0.000000 0.000000 -1.000000
vn 0.000000 0.000000 -1.000000
vn 0.000000 0.000000 -1.000000
vn -0.000000 1.000000 -0.000000
vn -0.000000 1.000000 -0.000000
vn -0.000000 1.000000 -0.000000
vn -0.000000 1.000000 -0.000000
vn -0.000000 1.000000 -0.000000
vn -0.000000 1.000000 -0.000000
vn -0.000000 1.000000 -0.000000
vn -0.000000 1.000000 -0.000000
vn 0.000000 1.000000 0.000000
vn -0.000000 1.000000 -0.000000
vn -0.000000 1.000000 -0.000000
vn 0.000000 1.000000 0.000000
vn 0.000000 0.000000 1.000000
vn 0.000000 0.000000 1.000000
vn 0.000000 0.000000 1.000000
vn 0.000000 0.000000 1.000000
vn 0.000000 0.000000 1.000000
vn 0.000000 0.000000 1.000000
vn 1.000000 0.000000 0.000000
vn 1.000000 0.000000 0.000000
vn 1.000000 0.000000 0.000000
vn 1.000000 0.000000 0.000000
vn 1.000000 0.000000 0.000000
vn 1.000000 0.000000 0.000000
vn 1.000000 0.000000 0.000000
vn 1.000000 0.000000 0.000000
vn 0.000000 0.000000 1.000000
vn 0.000000 0.000000 1.000000
vn 0.000000 0.000000 1.000000
vn 0.000000 0.000000 1.000000
vn 0.000000 0.000000 1.000000
vn 0.000000 0.000000 1.000000
vn 0.000000 0.000000 1.000000
vn 0.000000 0.000000 1.000000
vn 0.000000 0.000000 1.000000
vn 0.000000 0.000000 1.000000
vn 1.000000 0.000000 0.000000
vn 1.000000 0.000000 0.000000
vn 1.000000 0.000000 0.000000
vn 1.000000 0.000000 0.000000
vn 0.000000 0.000000 1.000000
vn 0.000000 0.000000 1.000000
vn 0.000000 0.000000 1.000000
vn 0.000000 0.000000 1.000000
vn 1.000000 0.000000 0.000000
vn 1.000000 0.000000 0.000000
vn 1.000000 0.000000 0.000000
vn 1.000000 0.000000 0.000000
vn -0.000000 1.000000 -0.000000
vn -0.000000 1.000000 -0.000000
vn -0.000000 1.000000 -0.000000
vn -0.000000 1.000000 -0.000000
vn -0.000000 1.000000 -0.000000
vn -0.000000 1.000000 -0.000000
vn -0.000000 1.000000 -0.000000
vn -0.000000 1.000000 -0.000000
vn 0.000000 0.000000 -1.000000
vn 0.000000 0.000000 -1.000000
vn 0.000000 0.000000 -1.000000
vn 0.000000 0.000000 -1.000000
vn 0.000000 0.000000 -1.000000
vn 0.000000 0.000000 -1.000000
vn -1.000000 0.000000 0.000000
vn -1.000000 0.000000 0.000000
vn -1.000000 0.000000 0.000000
vn -1.000000 0.000000 0.000000
vn -1.000000 0.000000 0.000000
vn -1.000000 0.000000 0.000000
vn -1.000000 0.000000 0.000000
vn -1.000000 0.000000 0.000000
vn 0.000000 0.000000 -1.000000
vn 0.000000 0.000000 -1.000000
vn 0.000000 0.000000 -1.000000
vn 0.000000 0.000000 -1.000000
vn 0.000000 0.000000 -1.000000
vn 0.000000 0.000000 -1.000000
vn 0.000000 -1.000000 0.000000
vn 0.000000 -1.000000 0.000000
vn 0.000000 -1.000000 0.000000
vn 0.000000 -1.000000 0.000000
vn 0.000000 -1.000000 0.000000
vn 0.000000 -1.000000 0.000000
vn 0.000000 -1.000000 0.000000
vn 0.000000 -1.000000 0.000000
vn 0.000000 -1.000000 0.000000
vn 0.000000 -1.000000 0.000000
vn 0.000000 -1.000000 0.000000
vn 0.000000 -1.000000 0.000000
vn -1.000000 0.000000 0.000000
vn -1.000000 0.000000 0.000000
vn -1.000000 0.000000 0.000000
vn -1.000000 0.000000 0.000000
vn -1.000000 0.000000 0.000000
vn -1.000000 0.000000 0.000000
vn -1.000000 0.000000 0.000000
vn -1.000000 0.000000 0.000000
vn -1.000000 0.000000 0.000000
vn -1.000000 0.000000 0.000000
vn -1.000000 0.000000 0.000000
vn -1.000000 0.000000 0.000000
vn -1.000000 0.000000 0.000000
vn -1.000000 0.000000 0.000000
vn -1.000000 0.000000 0.000000
vn -1.000000 0.000000 0.000000
vn -1.000000 0.000000 0.000000
vn -1.000000 0.000000 0.000000
vn -1.000000 0.000000 0.000000
vn -1.000000 0.000000 0.000000
vn 1.000000 0.000000 0.000000
vn 1.000000 0.000000 0.000000
vn 1.000000 0.000000 0.000000
vn 1.000000 0.000000 0.000000
vn 1.000000 0.000000 0.000000
vn 1.000000 0.000000 0.000000
vn 1.000000 0.000000 0.000000
vn 1.000000 0.000000 0.000000
vn 1.000000 0.000000 0.000000
vn 1.000000 0.000000 0.000000
vn 1.000000 0.000000 0.000000
vn 1.000000 0.000000 0.000000
vn 1.000000 0.000000 0.000000
vn 1.000000 0.000000 0.000000
vn -1.000000 0.000000 0.000000
vn -1.000000 0.000000 0.000000
vn -1.000000 0.000000 0.000000
vn -1.000000 0.000000 0.000000
vn 0.000000 -0.707107 0.707107
vn 0.000000 -0.707107 0.707107
vn 0.000000 -0.707107 0.707107
vn 0.000000 -0.707107 0.707107
vn 1.000000 0.000000 0.000000
vn 1.000000 0.000000 0.000000
vn 1.000000 0.000000 0.000000
vn 1.000000 0.000000 0.000000
vn -0.000000 0.707107 -0.707107
vn -0.000000 0.707107 -0.707107
vn -0.000000 0.707107 -0.707107
vn -0.000000 0.707107 -0.707107
vn 1.000000 0.000000 0.000000
vn 1.000000 0.000000 0.000000
vn 1.000000 0.000000 0.000000
vn 1.000000 0.000000 0.000000
vn 0.000000 -0.707107 0.707107
vn 0.000000 -0.707107 0.707107
vn 0.000000 -0.707107 0.707107
vn 0.000000 -0.707107 0.707107
vn -1.000000 0.000000 0.000000
vn -1.000000 0.000000 0.000000
vn -1.000000 0.000000 0.000000
vn -1.000000 0.000000 0.000000
vn -0.000000 0.707107 -0.707107
vn -0.000000 0.707107 -0.707107
vn -0.000000 0.707107 -0.707107
vn -0.000000 0.707107 -0.707107
s off
g Props_Crate_Geo1:pCube15
usemtl initialShadingGroup
f 1/1/1 4/4/2 3/3/3 2/2/4
f 2/5/5 3/8/6 6/7/7 5/6/8
f 63/9/9 8/12/10 7/11/11 60/10/12
f 9/13/13 12/16/14 11/15/15 10/14/16
f 10/17/17 11/20/18 14/19/19 13/18/20
f 15/21/21 16/24/22 62/23/23 61/22/24
f 4/25/25 17/28/26 6/27/27 3/26/28
f 8/29/29 63/34/30 62/33/31 16/32/32 64/31/33 65/30/34
f 11/35/35 12/38/36 18/37/37 14/36/38
f 5/39/39 6/42/40 17/41/41 19/40/42
f 19/43/43 17/46/44 4/45/45 1/44/46
f 7/47/47 8/50/48 65/49/49 68/48/50
f 20/51/51 18/54/52 12/53/53 9/52/54
f 13/55/55 14/58/56 18/57/57 20/56/58
f 64/59/59 16/62/60 15/61/61 67/60/62
f 21/63/63 24/66/64 23/65/65 22/64/66
f 22/67/67 23/70/68 26/69/69 25/68/70
f 27/71/71 28/74/72 58/73/73 56/72/74
f 29/75/75 32/78/76 31/77/77 30/76/78
f 57/79/79 34/82/80 33/81/81 55/80/82
f 35/83/83 36/86/84 32/85/85 29/84/86
f 23/87/87 24/90/88 37/89/89 26/88/90
f 36/91/91 38/94/92 31/93/93 32/92/94
f 39/95/95 41/100/96 40/99/97 19/98/98 1/97/99 2/96/100
f 19/98/101 40/99/102 42/102/103 39/95/104 2/96/105 5/101/106
f 43/103/107 20/108/108 9/107/109 10/106/110 39/105/111 42/104/112
f 39/109/113 45/116/114 44/115/115 66/114/116 67/113/117 15/112/118 61/111/119 59/110/120
f 45/117/121 39/105/122 10/106/123 13/118/124 20/108/125 43/103/126
f 25/119/127 26/122/128 37/121/129 46/120/130
f 46/123/131 37/126/132 24/125/133 21/124/134
f 49/127/135 28/130/136 27/129/137 52/128/138
f 30/131/139 31/134/140 38/133/141 47/132/142
f 47/135/143 38/138/144 36/137/145 35/136/146
f 33/139/147 34/142/148 50/141/149 53/140/150
f 47/143/151 48/148/152 40/147/153 41/146/154 29/145/155 30/144/156
f 40/149/157 48/156/158 51/155/159 52/154/160 27/153/161 56/152/162 54/151/163 42/150/164
f 41/146/165 44/158/166 48/148/167 47/143/168 35/157/169 29/145/170
f 44/159/171 45/164/172 22/163/173 25/162/174 46/161/175 48/160/176
f 48/160/177 46/161/178 21/166/179 22/163/180 45/164/181 43/165/182
f 51/155/183 48/156/184 43/170/185 42/150/186 54/151/187 55/169/188 33/168/189 53/167/190
f 51/155/191 53/167/192 52/154/193
f 58/171/194 28/176/195 49/175/196 50/174/197 34/173/198 57/172/199
f 54/151/200 56/152/201 55/169/202
f 59/110/203 61/111/204 60/177/205
f 66/114/206 44/115/207 41/180/208 39/109/209 59/110/210 60/177/211 7/179/212 68/178/213
f 66/114/214 68/178/215 67/113/216
f 63/181/217 65/184/218 64/183/219 62/182/220
f 62/185/221 64/188/222 67/187/223 61/186/224
f 61/111/225 67/113/226 68/178/227 60/177/228
f 60/189/229 68/192/230 65/191/231 63/190/232
f 49/193/233 58/196/234 57/195/235 50/194/236
f 50/197/237 57/200/238 55/199/239 53/198/240
f 53/167/241 55/169/242 56/152/243 52/154/244
f 52/201/245 56/204/246 58/203/247 49/202/248
