# This file uses centimeters as units for non-parametric coordinates.

mtllib Rail.mtl
g default
v -0.500000 0.001559 0.090024
v 0.500000 0.001559 0.090024
v -0.500000 0.035535 0.085741
v 0.500000 0.035535 0.085741
v -0.500000 0.035535 -0.085741
v 0.500000 0.035535 -0.085741
v -0.500000 0.001559 -0.090024
v 0.500000 0.001559 -0.090024
v -0.500000 0.035535 -0.044987
v -0.500000 0.001559 -0.047234
v 0.500000 0.001559 -0.047234
v 0.500000 0.035535 -0.044987
v -0.500000 0.035535 0.033112
v -0.500000 0.001559 0.034766
v 0.500000 0.001559 0.034766
v 0.500000 0.035535 0.033112
v -0.500000 0.107018 0.054444
v 0.500000 0.107018 0.054444
v 0.500000 0.107018 0.021026
v -0.500000 0.107018 0.021026
v 0.500000 0.107018 -0.028566
v -0.500000 0.107018 -0.028566
v 0.500000 0.107018 -0.054444
v -0.500000 0.107018 -0.054444
vt 0.375000 0.000000
vt 0.625000 0.000000
vt 0.375000 0.250000
vt 0.625000 0.250000
vt 0.375000 0.500000
vt 0.625000 0.500000
vt 0.375000 0.750000
vt 0.625000 0.750000
vt 0.375000 1.000000
vt 0.625000 1.000000
vt 0.875000 0.000000
vt 0.875000 0.250000
vt 0.125000 0.000000
vt 0.125000 0.250000
vt 0.184414 0.250000
vt 0.375000 0.440586
vt 0.184414 0.000000
vt 0.375000 0.809414
vt 0.625000 0.809414
vt 0.815586 0.000000
vt 0.625000 0.440586
vt 0.815586 0.250000
vt 0.298274 0.250000
vt 0.375000 0.326726
vt 0.298274 0.000000
vt 0.375000 0.923274
vt 0.625000 0.923274
vt 0.701726 0.000000
vt 0.625000 0.326726
vt 0.701726 0.250000
vt 0.375000 0.250000
vt 0.625000 0.250000
vt 0.625000 0.326726
vt 0.375000 0.326726
vt 0.375000 0.440586
vt 0.625000 0.440586
vt 0.625000 0.500000
vt 0.375000 0.500000
vn 0.000000 0.125053 0.992150
vn 0.000000 0.125053 0.992150
vn 0.000000 0.319674 0.947528
vn 0.000000 0.319674 0.947528
vn 0.000000 1.000000 0.000000
vn 0.000000 1.000000 0.000000
vn 0.000000 1.000000 0.000000
vn 0.000000 1.000000 0.000000
vn 0.000000 0.319674 -0.947528
vn 0.000000 0.319674 -0.947528
vn 0.000000 0.125053 -0.992150
vn 0.000000 0.125053 -0.992150
vn 0.000000 -1.000000 0.000000
vn 0.000000 -1.000000 0.000000
vn 0.000000 -1.000000 0.000000
vn 0.000000 -1.000000 0.000000
vn 1.000000 -0.000003 0.000000
vn 1.000000 -0.000004 0.000000
vn 1.000000 -0.000002 0.000000
vn 1.000000 -0.000001 0.000000
vn -1.000000 -0.000004 0.000000
vn -1.000000 -0.000003 0.000000
vn -1.000000 -0.000001 0.000000
vn -1.000000 -0.000002 0.000000
vn -1.000000 -0.000003 0.000000
vn -1.000000 -0.000004 0.000000
vn -1.000000 -0.000003 0.000000
vn -1.000000 -0.000002 0.000000
vn 0.000000 -1.000000 0.000000
vn 0.000000 -1.000000 0.000000
vn 0.000000 -1.000000 0.000000
vn 0.000000 -1.000000 0.000000
vn 1.000000 -0.000003 0.000000
vn 1.000000 -0.000004 0.000000
vn 1.000000 -0.000003 0.000000
vn 1.000000 -0.000002 0.000000
vn 0.000000 1.000000 0.000000
vn 0.000000 1.000000 0.000000
vn 0.000000 1.000000 0.000000
vn 0.000000 1.000000 0.000000
vn 0.000000 1.000000 0.000000
vn 0.000000 1.000000 0.000000
vn 0.000000 1.000000 0.000000
vn 0.000000 1.000000 0.000000
vn 0.000000 0.401069 0.916048
vn 0.000000 0.401069 0.916048
vn 1.000000 0.000000 0.000000
vn 1.000000 0.000000 0.000000
vn 0.000000 -0.166718 -0.986005
vn 0.000000 -0.166718 -0.986005
vn 0.000000 -0.166718 -0.986005
vn 0.000000 -0.166718 -0.986005
vn -1.000000 -0.000000 0.000000
vn -1.000000 -0.000000 0.000000
vn 0.000000 -0.223889 0.974615
vn 0.000000 -0.223889 0.974615
vn 0.000000 -0.223889 0.974615
vn 0.000000 -0.223889 0.974615
vn 1.000000 0.000000 0.000000
vn 1.000000 0.000000 0.000000
vn 0.000000 0.401069 -0.916048
vn 0.000000 0.401069 -0.916048
vn -1.000000 0.000000 0.000000
vn -1.000000 0.000000 0.000000
s 1
g pCube2
usemtl lambert3SG
f 1/1/1 2/2/2 4/4/3 3/3/4
s off
f 17/31/5 18/32/6 19/33/7 20/34/8
s 2
f 5/5/9 6/6/10 8/8/11 7/7/12
s 3
f 14/26/13 15/27/14 2/10/15 1/9/16
s 4
f 2/2/17 15/28/18 16/30/19 4/4/20
s 5
f 14/25/21 1/1/22 3/3/23 13/23/24
f 7/13/25 10/17/26 9/15/27 5/14/28
s 3
f 7/7/29 8/8/30 11/19/31 10/18/32
s 4
f 12/22/33 11/20/34 8/11/35 6/12/36
s off
f 22/35/37 21/36/38 23/37/39 24/38/40
s 5
f 10/17/26 14/25/21 13/23/24 9/15/27
s 3
f 10/18/32 11/19/31 15/27/14 14/26/13
s 4
f 16/30/19 15/28/18 11/20/34 12/22/33
s off
f 13/24/41 16/29/42 12/21/43 9/16/44
s 1
f 3/3/4 4/4/3 18/32/45 17/31/46
s 4
f 4/4/20 16/29/19 19/33/47 18/32/48
s off
f 16/29/49 13/24/50 20/34/51 19/33/52
s 5
f 13/24/24 3/3/23 17/31/53 20/34/54
s off
f 9/16/55 12/21/56 21/36/57 22/35/58
s 4
f 12/21/33 6/6/36 23/37/59 21/36/60
s 2
f 6/6/10 5/5/9 24/38/61 23/37/62
s 5
f 5/5/28 9/16/27 22/35/63 24/38/64
