# This file uses centimeters as units for non-parametric coordinates.

mtllib Props_Toolbox_Geo.mtl
g default
v -1.351461 0.000000 0.100000
v -1.098539 0.000000 0.100000
v -1.400000 0.300000 0.100000
v -1.050000 0.300000 0.100000
v -1.400000 0.300000 -0.600000
v -1.050000 0.300000 -0.600000
v -1.351461 0.000000 -0.600000
v -1.098539 0.000000 -0.600000
v -1.320480 0.450000 0.100000
v -1.129520 0.450000 0.100000
v -1.129520 0.450000 -0.600000
v -1.320480 0.450000 -0.600000
v -1.225000 0.450000 -0.250000
v -1.225000 0.450000 0.100000
v -1.225000 0.450000 -0.600000
v -1.320480 0.450000 -0.250000
v -1.272740 0.450000 -0.075000
v -1.320480 0.450000 -0.075000
v -1.272740 0.450000 0.100000
v -1.272740 0.450000 -0.250000
v -1.177260 0.450000 -0.075000
v -1.177260 0.450000 0.100000
v -1.177260 0.450000 -0.250000
v -1.177260 0.450000 -0.425000
v -1.177260 0.450000 -0.600000
v -1.272740 0.450000 -0.425000
v -1.272740 0.450000 -0.600000
v -1.320480 0.450000 -0.425000
v -1.225000 0.450000 -0.154443
v -1.225000 0.450000 -0.345557
v -1.225000 0.450000 -0.192666
v -1.236935 0.450000 -0.173555
v -1.213065 0.450000 -0.173555
v -1.225000 0.450000 -0.307334
v -1.213065 0.450000 -0.326445
v -1.236935 0.450000 -0.326445
v -1.236935 0.500000 -0.326445
v -1.225000 0.500000 -0.307334
v -1.213065 0.500000 -0.326445
v -1.225000 0.500000 -0.345557
v -1.213065 0.500000 -0.173555
v -1.225000 0.500000 -0.192666
v -1.236935 0.500000 -0.173555
v -1.225000 0.500000 -0.154443
v -1.217126 0.540180 -0.202858
v -1.229061 0.521068 -0.202858
v -1.240996 0.540180 -0.202858
v -1.229061 0.559291 -0.202858
v -1.217126 0.540180 -0.302858
v -1.229061 0.521068 -0.302858
v -1.240996 0.540180 -0.302858
v -1.229061 0.559291 -0.302858
v -1.050000 0.300000 -0.250000
v -1.129520 0.450000 -0.250000
v -1.069880 0.337500 -0.075000
v -1.069880 0.337500 0.100000
v -1.050000 0.300000 -0.075000
v -1.069880 0.337500 -0.250000
v -1.069880 0.337500 -0.425000
v -1.050000 0.300000 -0.425000
v -1.069880 0.337500 -0.600000
v -1.129520 0.450000 -0.425000
v -1.129520 0.450000 -0.075000
v -1.000000 0.300000 -0.250000
v -1.019880 0.337500 -0.250000
v -1.000000 0.300000 -0.425000
v -1.019880 0.337500 -0.425000
v -1.000000 0.300000 -0.075000
v -1.019880 0.337500 -0.075000
v -1.100000 0.250000 -0.250000
v -1.100000 0.250000 -0.425000
v -1.050000 0.250000 -0.425000
v -1.050000 0.250000 -0.250000
v -1.100000 0.250000 -0.075000
v -1.050000 0.250000 -0.075000
vt 0.187878 0.498170
vt 0.187878 0.001992
vt 0.400525 0.001992
vt 0.400525 0.126036
vt 0.400525 0.250081
vt 0.400525 0.374125
vt 0.400525 0.498170
vt 0.427106 0.001992
vt 0.427106 0.126036
vt 0.427106 0.498170
vt 0.427106 0.374125
vt 0.506849 0.126036
vt 0.506849 0.001992
vt 0.506849 0.374125
vt 0.506849 0.498170
vt 0.427106 0.250081
vt 0.506849 0.250081
vt 0.513154 0.498170
vt 0.513154 0.001992
vt 0.725802 0.001992
vt 0.725802 0.498170
vt 0.832126 0.001992
vt 0.832126 0.126036
vt 0.832126 0.250081
vt 0.832126 0.374125
vt 0.832126 0.498170
vt 0.121447 0.889046
vt 0.121447 0.875499
vt 0.149927 0.854728
vt 0.163474 0.854728
vt 0.086005 0.889046
vt 0.086005 0.875499
vt 0.121447 0.861952
vt 0.136381 0.854728
vt 0.149927 0.783845
vt 0.163474 0.783845
vt 0.086005 0.861952
vt 0.136381 0.783845
vt 0.121447 0.767126
vt 0.121447 0.753579
vt 0.121447 0.780673
vt 0.086005 0.767126
vt 0.086005 0.753579
vt 0.086005 0.780673
vt 0.266783 0.625875
vt 0.240202 0.625875
vt 0.240202 0.501830
vt 0.266783 0.501830
vt 0.240202 0.749919
vt 0.266783 0.749919
vt 0.204761 0.625875
vt 0.204761 0.501830
vt 0.204761 0.749919
vt 0.001827 0.001992
vt 0.181104 0.001992
vt 0.181104 0.498170
vt 0.001827 0.498170
vt 0.881357 0.749919
vt 0.881357 0.625875
vt 0.881357 0.501830
vt 0.915196 0.501830
vt 0.915196 0.625875
vt 0.915196 0.749919
vt 0.915196 0.873964
vt 0.915196 0.998008
vt 0.881357 0.998008
vt 0.881357 0.873964
vt 0.847518 0.749919
vt 0.847518 0.709279
vt 0.855978 0.695733
vt 0.847518 0.682186
vt 0.847518 0.501830
vt 0.847518 0.998008
vt 0.847518 0.817652
vt 0.855978 0.804106
vt 0.847518 0.790559
vt 0.839058 0.695733
vt 0.813679 0.749919
vt 0.813679 0.625875
vt 0.813679 0.501830
vt 0.839058 0.804106
vt 0.813679 0.998008
vt 0.813679 0.873964
vt 0.779839 0.998008
vt 0.779839 0.873964
vt 0.779839 0.749919
vt 0.779839 0.625875
vt 0.779839 0.501830
vt 0.163693 0.625875
vt 0.163693 0.501830
vt 0.199134 0.501830
vt 0.199134 0.625875
vt 0.163693 0.749919
vt 0.199134 0.749919
vt 0.122626 0.749919
vt 0.122626 0.625875
vt 0.158067 0.625875
vt 0.158067 0.749919
vt 0.122626 0.501830
vt 0.158067 0.501830
vt 0.560530 0.501830
vt 0.739807 0.501830
vt 0.774213 0.714478
vt 0.526124 0.714478
vt 0.760122 0.741059
vt 0.717847 0.820801
vt 0.684008 0.820801
vt 0.650169 0.820801
vt 0.616329 0.820801
vt 0.582490 0.820801
vt 0.272409 0.608154
vt 0.520498 0.608154
vt 0.486092 0.820801
vt 0.306815 0.820801
vt 0.328775 0.501830
vt 0.362614 0.501830
vt 0.396453 0.501830
vt 0.430293 0.501830
vt 0.464132 0.501830
vt 0.506406 0.581573
vt 0.196586 0.789021
vt 0.170005 0.803112
vt 0.170005 0.767671
vt 0.196586 0.753579
vt 0.232028 0.789021
vt 0.232028 0.824462
vt 0.299943 0.873994
vt 0.273362 0.859903
vt 0.273362 0.824462
vt 0.299943 0.838553
vt 0.237920 0.895344
vt 0.237920 0.859903
vt 0.052202 0.787897
vt 0.065748 0.787897
vt 0.065748 0.858780
vt 0.052202 0.858780
vt 0.037268 0.780673
vt 0.037268 0.767126
vt 0.079295 0.787897
vt 0.079295 0.858780
vt 0.037268 0.875499
vt 0.037268 0.861952
vt 0.001827 0.780673
vt 0.001827 0.767126
vt 0.037268 0.753579
vt 0.037268 0.889045
vt 0.001827 0.875499
vt 0.001827 0.861952
vt 0.001827 0.753579
vt 0.001827 0.889045
vt 0.116999 0.625875
vt 0.116999 0.749919
vt 0.081558 0.749919
vt 0.081558 0.625875
vt 0.116999 0.501830
vt 0.081558 0.501830
vn 0.000000 0.000000 1.000000
vn 0.000000 0.000000 1.000000
vn 0.000000 0.000000 1.000000
vn 0.000000 0.000000 1.000000
vn 0.000000 0.000000 -1.000000
vn 0.000000 0.000000 -1.000000
vn 0.000000 0.000000 -1.000000
vn 0.000000 0.000000 -1.000000
vn 0.000000 -1.000000 0.000000
vn 0.000000 -1.000000 0.000000
vn 0.000000 -1.000000 0.000000
vn 0.000000 -1.000000 0.000000
vn 0.987162 -0.159721 0.000000
vn 0.987162 -0.159721 0.000000
vn 0.987162 -0.159721 0.000000
vn 0.987162 -0.159721 0.000000
vn 0.987162 -0.159721 0.000000
vn 0.987162 -0.159721 0.000000
vn 0.987162 -0.159721 0.000000
vn -0.987162 -0.159721 0.000000
vn -0.987162 -0.159721 0.000000
vn -0.987162 -0.159721 0.000000
vn -0.987162 -0.159721 0.000000
vn 0.000000 0.000000 1.000000
vn 0.000000 0.000000 1.000000
vn 0.000000 0.000000 1.000000
vn 0.000000 0.000000 1.000000
vn 0.000000 0.000000 1.000000
vn 0.000000 0.000000 1.000000
vn 0.000000 0.000000 1.000000
vn 0.000000 0.000000 1.000000
vn 0.000000 0.000000 -1.000000
vn 0.000000 0.000000 -1.000000
vn 0.000000 0.000000 -1.000000
vn 0.000000 0.000000 -1.000000
vn 0.000000 0.000000 -1.000000
vn 0.000000 0.000000 -1.000000
vn 0.000000 0.000000 -1.000000
vn 0.000000 0.000000 -1.000000
vn -0.883524 0.468387 0.000000
vn -0.883524 0.468387 0.000000
vn -0.883524 0.468387 0.000000
vn -0.883524 0.468387 0.000000
vn -0.883524 0.468387 0.000000
vn -0.883524 0.468387 0.000000
vn -0.883524 0.468387 0.000000
vn 0.000000 1.000000 0.000000
vn 0.000000 1.000000 0.000000
vn 0.000000 1.000000 0.000000
vn 0.000000 1.000000 0.000000
vn 0.000000 1.000000 0.000000
vn 0.000000 1.000000 0.000000
vn 0.000000 1.000000 0.000000
vn 0.000000 1.000000 0.000000
vn 0.000000 1.000000 0.000000
vn 0.000000 1.000000 0.000000
vn 0.000000 1.000000 0.000000
vn 0.000000 1.000000 0.000000
vn 0.000000 1.000000 0.000000
vn 0.000000 1.000000 0.000000
vn 0.000000 1.000000 0.000000
vn 0.000000 1.000000 0.000000
vn 0.000000 1.000000 0.000000
vn 0.000000 1.000000 0.000000
vn 0.000000 1.000000 0.000000
vn 0.000000 1.000000 0.000000
vn 0.000000 1.000000 -0.000000
vn 0.000000 1.000000 -0.000000
vn 0.000000 1.000000 -0.000000
vn 0.000000 1.000000 -0.000000
vn 0.000000 1.000000 -0.000000
vn 0.000000 1.000000 0.000000
vn 0.000000 1.000000 0.000000
vn 0.000000 1.000000 0.000000
vn 0.000000 1.000000 0.000000
vn 0.000000 1.000000 0.000000
vn 0.000000 1.000000 0.000000
vn 0.000000 1.000000 0.000000
vn 0.000000 1.000000 0.000000
vn 0.000000 1.000000 0.000000
vn 0.000000 1.000000 0.000000
vn 0.000000 1.000000 -0.000000
vn 0.000000 1.000000 -0.000000
vn 0.000000 1.000000 -0.000000
vn 0.000000 1.000000 -0.000000
vn 0.000000 1.000000 -0.000000
vn 0.000000 1.000000 0.000000
vn 0.000000 1.000000 0.000000
vn 0.000000 1.000000 0.000000
vn 0.000000 1.000000 0.000000
vn 0.000000 1.000000 0.000000
vn 0.000000 1.000000 -0.000000
vn 0.000000 1.000000 -0.000000
vn 0.000000 1.000000 -0.000000
vn 0.000000 1.000000 -0.000000
vn 0.000000 1.000000 -0.000000
vn 0.000000 1.000000 -0.000000
vn 0.000000 1.000000 -0.000000
vn 0.000000 1.000000 -0.000000
vn 0.000000 1.000000 -0.000000
vn 0.000000 1.000000 -0.000000
vn 0.000000 1.000000 0.000000
vn 0.000000 1.000000 0.000000
vn 0.000000 1.000000 0.000000
vn 0.000000 1.000000 0.000000
vn 0.000000 1.000000 0.000000
vn -0.848189 0.000000 0.529694
vn -0.848189 0.000000 0.529694
vn -0.848189 0.000000 0.529694
vn -0.848189 0.000000 0.529694
vn 0.848189 0.000000 0.529694
vn 0.848189 0.000000 0.529694
vn 0.848189 0.000000 0.529694
vn 0.848189 0.000000 0.529694
vn 0.848190 0.000000 -0.529692
vn 0.848190 0.000000 -0.529692
vn 0.848190 0.000000 -0.529692
vn 0.848190 0.000000 -0.529692
vn -0.848190 0.000000 -0.529692
vn -0.848190 0.000000 -0.529692
vn -0.848190 0.000000 -0.529692
vn -0.848190 0.000000 -0.529692
vn 0.848189 0.000000 -0.529694
vn 0.848189 0.000000 -0.529694
vn 0.848189 0.000000 -0.529694
vn 0.848189 0.000000 -0.529694
vn -0.848189 0.000000 -0.529694
vn -0.848189 0.000000 -0.529694
vn -0.848189 0.000000 -0.529694
vn -0.848189 0.000000 -0.529694
vn -0.848190 0.000000 0.529692
vn -0.848190 0.000000 0.529692
vn -0.848190 0.000000 0.529692
vn -0.848190 0.000000 0.529692
vn 0.848190 0.000000 0.529692
vn 0.848190 0.000000 0.529692
vn 0.848190 0.000000 0.529692
vn 0.848190 0.000000 0.529692
vn 0.730719 -0.298902 -0.613765
vn 0.730719 -0.298902 -0.613765
vn 0.730719 -0.298902 -0.613765
vn 0.730719 -0.298902 -0.613765
vn -0.748296 -0.426733 -0.507889
vn -0.748296 -0.426733 -0.507889
vn -0.748296 -0.426733 -0.507889
vn -0.748296 -0.426733 -0.507889
vn -0.743294 0.373133 0.555235
vn -0.743294 0.373133 0.555235
vn -0.743294 0.373133 0.555235
vn -0.743294 0.373133 0.555235
vn 0.749133 0.444735 0.490928
vn 0.749133 0.444735 0.490928
vn 0.749133 0.444735 0.490928
vn 0.749133 0.444735 0.490928
vn 0.848189 -0.529694 0.000000
vn 0.848189 -0.529694 0.000000
vn 0.848189 -0.529694 0.000000
vn 0.848189 -0.529694 0.000000
vn -0.848189 -0.529694 0.000000
vn -0.848189 -0.529694 0.000000
vn -0.848189 -0.529694 0.000000
vn -0.848189 -0.529694 0.000000
vn -0.848190 0.529692 0.000000
vn -0.848190 0.529692 0.000000
vn -0.848190 0.529692 0.000000
vn -0.848190 0.529692 0.000000
vn 0.848190 0.529692 0.000000
vn 0.848190 0.529692 0.000000
vn 0.848190 0.529692 0.000000
vn 0.848190 0.529692 0.000000
vn 0.709125 -0.213818 0.671880
vn 0.709125 -0.213818 0.671880
vn 0.709125 -0.213818 0.671880
vn 0.709125 -0.213818 0.671880
vn -0.741284 -0.358326 0.567540
vn -0.741284 -0.358326 0.567540
vn -0.741284 -0.358326 0.567540
vn -0.741284 -0.358326 0.567540
vn -0.737098 0.332044 -0.588586
vn -0.737098 0.332044 -0.588586
vn -0.737098 0.332044 -0.588586
vn -0.737098 0.332044 -0.588586
vn 0.747111 0.409762 -0.523374
vn 0.747111 0.409762 -0.523374
vn 0.747111 0.409762 -0.523374
vn 0.747111 0.409762 -0.523374
vn 0.883524 0.468386 0.000000
vn 0.883524 0.468386 0.000000
vn 0.883524 0.468386 0.000000
vn 0.883524 0.468386 0.000000
vn 0.883524 0.468386 0.000000
vn 0.883524 0.468386 0.000000
vn 0.883524 0.468386 0.000000
vn 0.883524 0.468386 0.000000
vn 0.883524 0.468386 0.000000
vn 0.883524 0.468386 0.000000
vn 0.883524 0.468386 0.000000
vn 0.883524 0.468386 0.000000
vn 0.883524 0.468386 0.000000
vn 0.883524 0.468386 0.000000
vn 0.883524 0.468386 0.000000
vn 0.883524 0.468386 0.000000
vn 0.883524 0.468387 0.000000
vn 0.883524 0.468387 0.000000
vn 0.883524 0.468387 0.000000
vn 0.883524 0.468387 0.000000
vn 0.883524 0.468387 0.000000
vn 0.883524 0.468387 0.000000
vn 0.883524 0.468387 0.000000
vn 0.883524 0.468387 0.000000
vn 0.883524 0.468387 0.000000
vn 0.883524 0.468387 0.000000
vn 0.883524 0.468387 0.000000
vn 0.883524 0.468387 0.000000
vn 0.883524 0.468387 0.000000
vn 0.883524 0.468387 0.000000
vn 0.883524 0.468387 0.000000
vn 0.883524 0.468387 0.000000
vn 0.000000 -1.000000 0.000000
vn 0.000000 -1.000000 0.000000
vn 0.000000 -1.000000 0.000000
vn 0.000000 -1.000000 0.000000
vn 0.000000 0.000000 -1.000000
vn 0.000000 0.000000 -1.000000
vn 0.000000 0.000000 -1.000000
vn 0.000000 0.000000 -1.000000
vn 0.000000 1.000000 0.000000
vn 0.000000 1.000000 0.000000
vn 0.000000 1.000000 0.000000
vn 0.000000 1.000000 0.000000
vn 0.000000 -1.000000 0.000000
vn 0.000000 -1.000000 0.000000
vn 0.000000 -1.000000 0.000000
vn 0.000000 -1.000000 0.000000
vn 0.000000 1.000000 0.000000
vn 0.000000 1.000000 0.000000
vn 0.000000 1.000000 0.000000
vn 0.000000 1.000000 0.000000
vn 0.000000 0.000000 1.000000
vn 0.000000 0.000000 1.000000
vn 0.000000 0.000000 1.000000
vn 0.000000 0.000000 1.000000
vn -0.707107 0.707107 0.000000
vn -0.707107 0.707107 0.000000
vn -0.707107 0.707107 0.000000
vn -0.707107 0.707107 0.000000
vn 0.000000 0.000000 -1.000000
vn 0.000000 0.000000 -1.000000
vn 0.000000 0.000000 -1.000000
vn 0.000000 0.000000 -1.000000
vn 0.707107 -0.707107 0.000000
vn 0.707107 -0.707107 0.000000
vn 0.707107 -0.707107 0.000000
vn 0.707107 -0.707107 0.000000
vn -0.707107 0.707107 0.000000
vn -0.707107 0.707107 0.000000
vn -0.707107 0.707107 0.000000
vn -0.707107 0.707107 0.000000
vn 0.707107 -0.707107 0.000000
vn 0.707107 -0.707107 0.000000
vn 0.707107 -0.707107 0.000000
vn 0.707107 -0.707107 0.000000
vn 0.000000 0.000000 1.000000
vn 0.000000 0.000000 1.000000
vn 0.000000 0.000000 1.000000
vn 0.000000 0.000000 1.000000
s off
g PropZoo:pCube85
usemtl initialShadingGroup
f 1/101/1 2/102/2 4/103/3 3/104/4
f 5/111/5 6/112/6 8/113/7 7/114/8
f 7/54/9 8/55/10 2/56/11 1/57/12
f 2/1/13 8/2/14 6/3/15 60/4/16 53/5/17 57/6/18 4/7/19
f 7/18/20 1/19/21 3/20/22 5/21/23
f 3/104/24 4/103/25 56/105/26 10/106/27 22/107/28 14/108/29 19/109/30 9/110/31
f 6/112/32 5/111/33 12/115/34 27/116/35 15/117/36 25/118/37 11/119/38 61/120/39
f 5/21/40 3/20/41 9/22/42 18/23/43 16/24/44 28/25/45 12/26/46
f 23/58/47 21/59/48 22/60/49 10/61/50 63/62/51 54/63/52 62/64/53 11/65/54 25/66/55 24/67/56
f 26/83/57 27/82/58 12/84/59 28/85/60 16/86/61 18/87/62 9/88/63 19/80/64 17/79/65 20/78/66
f 33/70/67 29/71/68 14/72/69 22/60/70 21/59/71
f 23/58/72 13/68/73 31/69/74 33/70/75 21/59/76
f 32/77/77 31/69/78 13/68/79 20/78/80 17/79/81
f 19/80/82 14/72/83 29/71/84 32/77/85 17/79/86
f 36/81/87 30/74/88 15/73/89 27/82/90 26/83/91
f 20/78/92 13/68/93 34/76/94 36/81/95 26/83/96
f 35/75/97 34/76/98 13/68/99 23/58/100 24/67/101
f 25/66/102 15/73/103 30/74/104 35/75/105 24/67/106
f 36/147/107 34/148/108 38/142/109 37/141/110
f 34/44/111 35/42/112 39/39/113 38/41/114
f 35/42/115 30/43/116 40/40/117 39/39/118
f 30/150/119 36/147/120 37/141/121 40/146/122
f 33/32/123 31/37/124 42/33/125 41/28/126
f 31/143/127 32/144/128 43/138/129 42/137/130
f 32/144/131 29/149/132 44/145/133 43/138/134
f 29/31/135 33/32/136 41/28/137 44/27/138
f 41/28/139 42/33/140 46/34/141 45/29/142
f 42/137/143 43/138/144 47/134/145 46/133/146
f 43/138/147 44/145/148 48/139/149 47/134/150
f 44/27/151 41/28/152 45/29/153 48/30/154
f 45/29/155 46/34/156 50/38/157 49/35/158
f 46/133/159 47/134/160 51/135/161 50/136/162
f 47/134/163 48/139/164 52/140/165 51/135/166
f 48/30/167 45/29/168 49/35/169 52/36/170
f 38/41/171 39/39/172 49/35/173 50/38/174
f 37/141/175 38/142/176 50/136/177 51/135/178
f 40/146/179 37/141/180 51/135/181 52/140/182
f 39/39/183 40/40/184 52/36/185 49/35/186
f 65/45/187 64/46/188 66/47/189 67/48/190
f 56/10/191 4/7/192 57/6/193 55/11/194
f 68/49/195 64/46/196 65/45/197 69/50/198
f 60/4/199 6/3/200 61/8/201 59/9/202
f 62/12/203 59/9/204 61/8/205 11/13/206
f 58/16/207 59/9/208 62/12/209 54/17/210
f 63/14/211 10/15/212 56/10/213 55/11/214
f 58/16/215 54/17/216 63/14/217 55/11/218
f 70/89/219 71/90/220 72/91/221 73/92/222
f 60/121/223 59/122/224 67/123/225 66/124/226
f 59/95/227 58/96/228 65/97/229 67/98/230
f 74/93/231 70/89/232 73/92/233 75/94/234
f 58/96/235 55/99/236 69/100/237 65/97/238
f 55/127/239 57/128/240 68/129/241 69/130/242
f 53/151/243 60/152/244 71/153/245 70/154/246
f 60/121/247 66/124/248 72/125/249 71/126/250
f 66/47/251 64/46/252 73/51/253 72/52/254
f 57/155/255 53/151/256 70/154/257 74/156/258
f 64/46/259 68/49/260 75/53/261 73/51/262
f 68/129/263 57/128/264 74/131/265 75/132/266
