# This file uses centimeters as units for non-parametric coordinates.

mtllib Props_Chair_Geo.mtl
g default
v -6.375000 0.700000 1.675000
v -5.625000 0.700000 1.675000
v -6.375000 1.400000 1.625000
v -5.625000 1.400000 1.625000
v -6.375000 1.400000 1.475000
v -5.625000 1.400000 1.475000
v -6.375000 0.700000 1.525000
v -5.625000 0.700000 1.525000
v -6.375000 0.550000 2.275000
v -5.625000 0.550000 2.275000
v -6.375000 0.700000 2.275000
v -5.625000 0.700000 2.275000
v -6.375000 0.700000 1.525000
v -5.625000 0.700000 1.525000
v -6.375000 0.550000 1.525000
v -5.625000 0.550000 1.525000
v -6.356250 0.000000 1.656250
v -6.243750 0.000000 1.656250
v -6.375000 0.550000 1.675000
v -6.225000 0.550000 1.675000
v -6.375000 0.550000 1.525000
v -6.225000 0.550000 1.525000
v -6.356250 0.000000 1.543750
v -6.243750 0.000000 1.543750
v -5.756250 0.000000 1.656250
v -5.643750 0.000000 1.656250
v -5.775000 0.550000 1.675000
v -5.625000 0.550000 1.675000
v -5.775000 0.550000 1.525000
v -5.625000 0.550000 1.525000
v -5.756250 0.000000 1.543750
v -5.643750 0.000000 1.543750
v -6.356250 0.000000 2.256250
v -6.243750 0.000000 2.256250
v -6.375000 0.550000 2.275000
v -6.225000 0.550000 2.275000
v -6.375000 0.550000 2.125000
v -6.225000 0.550000 2.125000
v -6.356250 0.000000 2.143750
v -6.243750 0.000000 2.143750
v -5.756250 0.000000 2.256250
v -5.643750 0.000000 2.256250
v -5.775000 0.550000 2.275000
v -5.625000 0.550000 2.275000
v -5.775000 0.550000 2.125000
v -5.625000 0.550000 2.125000
v -5.756250 0.000000 2.143750
v -5.643750 0.000000 2.143750
vt 0.104843 0.289815
vt 0.161650 0.289815
vt 0.180585 0.554910
vt 0.123779 0.554910
vt 0.042208 0.289815
vt 0.099014 0.289815
vt 0.080079 0.554910
vt 0.023273 0.554910
vt 0.249049 0.573845
vt 0.249049 0.289815
vt 0.305855 0.289815
vt 0.305855 0.573845
vt 0.186414 0.573845
vt 0.186414 0.289815
vt 0.243220 0.289815
vt 0.243220 0.573845
vt 0.135094 0.577638
vt 0.177699 0.577638
vt 0.184800 0.785927
vt 0.127994 0.785927
vt 0.198052 0.577638
vt 0.240657 0.577638
vt 0.247758 0.785927
vt 0.190952 0.785927
vt 0.386926 0.577638
vt 0.429531 0.577638
vt 0.436632 0.785927
vt 0.379825 0.785927
vt 0.449884 0.577638
vt 0.492489 0.577638
vt 0.499590 0.785927
vt 0.442783 0.785927
vt 0.638758 0.577638
vt 0.681363 0.577638
vt 0.688463 0.785927
vt 0.631657 0.785927
vt 0.701716 0.577638
vt 0.744321 0.577638
vt 0.751421 0.785927
vt 0.694615 0.785927
vt 0.890590 0.577638
vt 0.933194 0.577638
vt 0.940295 0.785927
vt 0.883489 0.785927
vt 0.898504 0.789719
vt 0.941109 0.789719
vt 0.948210 0.998008
vt 0.891404 0.998008
vt 0.274278 0.286022
vt 0.274278 0.001992
vt 0.331085 0.001992
vt 0.331085 0.286022
vt 0.609437 0.286022
vt 0.609437 0.001992
vt 0.666243 0.001992
vt 0.666243 0.286022
vt 0.664179 0.289815
vt 0.948210 0.289815
vt 0.948210 0.573845
vt 0.664179 0.573845
vt 0.311685 0.289815
vt 0.595715 0.289815
vt 0.595715 0.573845
vt 0.311685 0.573845
vt 0.828769 0.789719
vt 0.885575 0.789719
vt 0.885575 0.846525
vt 0.828769 0.846525
vt 0.592429 0.789719
vt 0.635034 0.789719
vt 0.635034 0.832323
vt 0.592429 0.832323
vt 0.766133 0.846525
vt 0.766133 0.789719
vt 0.822940 0.789719
vt 0.822940 0.846525
vt 0.543996 0.789719
vt 0.586601 0.789719
vt 0.586601 0.832323
vt 0.543996 0.832323
vt 0.703498 0.789719
vt 0.760304 0.789719
vt 0.760304 0.846525
vt 0.703498 0.846525
vt 0.495562 0.789719
vt 0.538167 0.789719
vt 0.538167 0.832323
vt 0.495562 0.832323
vt 0.640863 0.846525
vt 0.640863 0.789719
vt 0.697669 0.789719
vt 0.697669 0.846525
vt 0.447129 0.789719
vt 0.489733 0.789719
vt 0.489733 0.832323
vt 0.447129 0.832323
vt 0.001893 0.286022
vt 0.001893 0.001992
vt 0.266988 0.001992
vt 0.266988 0.286022
vt 0.337236 0.286022
vt 0.337236 0.001992
vt 0.602331 0.001992
vt 0.602331 0.286022
vt 0.672395 0.286022
vt 0.672395 0.001992
vt 0.729201 0.001992
vt 0.729201 0.286022
vt 0.601544 0.573845
vt 0.601544 0.289815
vt 0.658350 0.289815
vt 0.658350 0.573845
vt 0.008993 0.558702
vt 0.051598 0.558702
vt 0.058699 0.766991
vt 0.001893 0.766991
vt 0.065036 0.558702
vt 0.121842 0.558702
vt 0.114741 0.766991
vt 0.072137 0.766991
vt 0.261010 0.577638
vt 0.303615 0.577638
vt 0.310716 0.785927
vt 0.253909 0.785927
vt 0.316868 0.577638
vt 0.373674 0.577638
vt 0.366573 0.785927
vt 0.323968 0.785927
vt 0.512842 0.577638
vt 0.555447 0.577638
vt 0.562547 0.785927
vt 0.505741 0.785927
vt 0.568699 0.577638
vt 0.625505 0.577638
vt 0.618405 0.785927
vt 0.575800 0.785927
vt 0.764674 0.577638
vt 0.807278 0.577638
vt 0.814379 0.785927
vt 0.757573 0.785927
vt 0.820531 0.577638
vt 0.877337 0.577638
vt 0.870236 0.785927
vt 0.827632 0.785927
vn 0.000000 0.071247 0.997459
vn 0.000000 0.071247 0.997459
vn 0.000000 0.071247 0.997459
vn 0.000000 0.071247 0.997459
vn 0.000000 1.000000 0.000000
vn 0.000000 1.000000 0.000000
vn 0.000000 1.000000 0.000000
vn 0.000000 1.000000 0.000000
vn 0.000000 -0.071247 -0.997459
vn 0.000000 -0.071247 -0.997459
vn 0.000000 -0.071247 -0.997459
vn 0.000000 -0.071247 -0.997459
vn 0.000000 -1.000000 0.000000
vn 0.000000 -1.000000 0.000000
vn 0.000000 -1.000000 0.000000
vn 0.000000 -1.000000 0.000000
vn 1.000000 0.000001 0.000000
vn 1.000000 0.000001 0.000000
vn 1.000000 0.000001 0.000000
vn 1.000000 0.000001 0.000000
vn -1.000000 0.000001 0.000000
vn -1.000000 0.000001 0.000000
vn -1.000000 0.000001 0.000000
vn -1.000000 0.000001 0.000000
vn 0.000000 0.000000 1.000000
vn 0.000000 0.000000 1.000000
vn 0.000000 0.000000 1.000000
vn 0.000000 0.000000 1.000000
vn 0.000000 1.000000 0.000000
vn 0.000000 1.000000 0.000000
vn 0.000000 1.000000 0.000000
vn 0.000000 1.000000 0.000000
vn 0.000000 0.000000 -1.000000
vn 0.000000 0.000000 -1.000000
vn 0.000000 0.000000 -1.000000
vn 0.000000 0.000000 -1.000000
vn 0.000000 -1.000000 0.000000
vn 0.000000 -1.000000 0.000000
vn 0.000000 -1.000000 0.000000
vn 0.000000 -1.000000 0.000000
vn 1.000000 0.000000 0.000000
vn 1.000000 0.000000 0.000000
vn 1.000000 0.000000 0.000000
vn 1.000000 0.000000 0.000000
vn -1.000000 0.000000 0.000000
vn -1.000000 0.000000 0.000000
vn -1.000000 0.000000 0.000000
vn -1.000000 0.000000 0.000000
vn 0.000000 -0.034071 0.999419
vn 0.000000 -0.034071 0.999419
vn 0.000000 -0.034071 0.999419
vn 0.000000 -0.034071 0.999419
vn 0.000000 1.000000 0.000000
vn 0.000000 1.000000 0.000000
vn 0.000000 1.000000 0.000000
vn 0.000000 1.000000 0.000000
vn 0.000000 -0.034071 -0.999419
vn 0.000000 -0.034071 -0.999419
vn 0.000000 -0.034071 -0.999419
vn 0.000000 -0.034071 -0.999419
vn 0.000000 -1.000000 0.000000
vn 0.000000 -1.000000 0.000000
vn 0.000000 -1.000000 0.000000
vn 0.000000 -1.000000 0.000000
vn 0.999419 -0.034070 0.000000
vn 0.999419 -0.034070 0.000000
vn 0.999420 -0.034070 0.000000
vn 0.999419 -0.034070 0.000000
vn -0.999419 -0.034072 0.000000
vn -0.999419 -0.034072 0.000000
vn -0.999419 -0.034072 0.000000
vn -0.999419 -0.034072 0.000000
vn 0.000000 -0.034071 0.999419
vn 0.000000 -0.034071 0.999419
vn 0.000000 -0.034071 0.999419
vn 0.000000 -0.034071 0.999419
vn 0.000000 1.000000 0.000000
vn 0.000000 1.000000 0.000000
vn 0.000000 1.000000 0.000000
vn 0.000000 1.000000 0.000000
vn 0.000000 -0.034071 -0.999419
vn 0.000000 -0.034071 -0.999419
vn 0.000000 -0.034071 -0.999419
vn 0.000000 -0.034071 -0.999419
vn 0.000000 -1.000000 0.000000
vn 0.000000 -1.000000 0.000000
vn 0.000000 -1.000000 0.000000
vn 0.000000 -1.000000 0.000000
vn 0.999419 -0.034072 0.000000
vn 0.999419 -0.034072 0.000000
vn 0.999419 -0.034072 0.000000
vn 0.999419 -0.034072 0.000000
vn -0.999419 -0.034071 0.000000
vn -0.999419 -0.034071 0.000000
vn -0.999419 -0.034071 0.000000
vn -0.999419 -0.034071 0.000000
vn 0.000000 -0.034071 0.999419
vn 0.000000 -0.034071 0.999419
vn 0.000000 -0.034071 0.999419
vn 0.000000 -0.034071 0.999419
vn 0.000000 1.000000 0.000000
vn 0.000000 1.000000 0.000000
vn 0.000000 1.000000 0.000000
vn 0.000000 1.000000 0.000000
vn 0.000000 -0.034071 -0.999419
vn 0.000000 -0.034071 -0.999419
vn 0.000000 -0.034071 -0.999419
vn 0.000000 -0.034071 -0.999419
vn 0.000000 -1.000000 0.000000
vn 0.000000 -1.000000 0.000000
vn 0.000000 -1.000000 0.000000
vn 0.000000 -1.000000 0.000000
vn 0.999419 -0.034070 0.000000
vn 0.999420 -0.034070 0.000000
vn 0.999419 -0.034070 0.000000
vn 0.999420 -0.034070 0.000000
vn -0.999419 -0.034071 0.000000
vn -0.999419 -0.034071 0.000000
vn -0.999419 -0.034071 0.000000
vn -0.999419 -0.034071 0.000000
vn 0.000000 -0.034071 0.999419
vn 0.000000 -0.034071 0.999419
vn 0.000000 -0.034071 0.999419
vn 0.000000 -0.034071 0.999419
vn 0.000000 1.000000 0.000000
vn 0.000000 1.000000 0.000000
vn 0.000000 1.000000 0.000000
vn 0.000000 1.000000 0.000000
vn 0.000000 -0.034071 -0.999419
vn 0.000000 -0.034071 -0.999419
vn 0.000000 -0.034071 -0.999419
vn 0.000000 -0.034071 -0.999419
vn 0.000000 -1.000000 0.000000
vn 0.000000 -1.000000 0.000000
vn 0.000000 -1.000000 0.000000
vn 0.000000 -1.000000 0.000000
vn 0.999420 -0.034070 0.000000
vn 0.999419 -0.034070 0.000000
vn 0.999420 -0.034070 0.000000
vn 0.999420 -0.034070 0.000000
vn -0.999419 -0.034072 0.000000
vn -0.999419 -0.034072 0.000000
vn -0.999419 -0.034072 0.000000
vn -0.999419 -0.034072 0.000000
s off
g PropZoo:pCube72
usemtl initialShadingGroup
f 1/97/1 2/98/2 4/99/3 3/100/4
f 3/49/5 4/50/6 6/51/7 5/52/8
f 5/101/9 6/102/10 8/103/11 7/104/12
f 7/53/13 8/54/14 2/55/15 1/56/16
f 2/1/17 8/2/18 6/3/19 4/4/20
f 7/5/21 1/6/22 3/7/23 5/8/24
f 9/105/25 10/106/26 12/107/27 11/108/28
f 11/57/29 12/58/30 14/59/31 13/60/32
f 13/109/33 14/110/34 16/111/35 15/112/36
f 15/61/37 16/62/38 10/63/39 9/64/40
f 10/9/41 16/10/42 14/11/43 12/12/44
f 15/13/45 9/14/46 11/15/47 13/16/48
f 17/113/49 18/114/50 20/115/51 19/116/52
f 19/65/53 20/66/54 22/67/55 21/68/56
f 21/117/57 22/118/58 24/119/59 23/120/60
f 23/69/61 24/70/62 18/71/63 17/72/64
f 18/17/65 24/18/66 22/19/67 20/20/68
f 23/21/69 17/22/70 19/23/71 21/24/72
f 25/121/73 26/122/74 28/123/75 27/124/76
f 27/73/77 28/74/78 30/75/79 29/76/80
f 29/125/81 30/126/82 32/127/83 31/128/84
f 31/77/85 32/78/86 26/79/87 25/80/88
f 26/25/89 32/26/90 30/27/91 28/28/92
f 31/29/93 25/30/94 27/31/95 29/32/96
f 33/129/97 34/130/98 36/131/99 35/132/100
f 35/81/101 36/82/102 38/83/103 37/84/104
f 37/133/105 38/134/106 40/135/107 39/136/108
f 39/85/109 40/86/110 34/87/111 33/88/112
f 34/33/113 40/34/114 38/35/115 36/36/116
f 39/37/117 33/38/118 35/39/119 37/40/120
f 41/137/121 42/138/122 44/139/123 43/140/124
f 43/89/125 44/90/126 46/91/127 45/92/128
f 45/141/129 46/142/130 48/143/131 47/144/132
f 47/93/133 48/94/134 42/95/135 41/96/136
f 42/41/137 48/42/138 46/43/139 44/44/140
f 47/45/141 41/46/142 43/47/143 45/48/144
