# This file uses centimeters as units for non-parametric coordinates.

mtllib Props_Crate_Geo.mtl
g default
v -2.375000 -0.000000 0.375000
v -2.375000 -0.000000 -0.375000
v -2.375000 0.025000 -0.375000
v -2.375000 0.025000 0.375000
v -1.625000 -0.000000 -0.375000
v -1.625000 0.025000 -0.375000
v -2.500000 0.125000 0.375000
v -2.475000 0.125000 0.375000
v -1.625000 0.125000 -0.500000
v -2.375000 0.125000 -0.500000
v -2.375000 0.125000 -0.475000
v -1.625000 0.125000 -0.475000
v -2.375000 0.875000 -0.500000
v -2.375000 0.875000 -0.475000
v -2.500000 0.875000 -0.375000
v -2.475000 0.875000 -0.375000
v -1.625000 0.025000 0.375000
v -1.625000 0.875000 -0.475000
v -1.625000 -0.000000 0.375000
v -1.625000 0.875000 -0.500000
v -1.625000 1.000000 -0.375000
v -2.375000 1.000000 -0.375000
v -2.375000 0.975000 -0.375000
v -1.625000 0.975000 -0.375000
v -2.375000 1.000000 0.375000
v -2.375000 0.975000 0.375000
v -1.500000 0.125000 0.375000
v -1.525000 0.125000 0.375000
v -2.375000 0.125000 0.500000
v -1.625000 0.125000 0.500000
v -1.625000 0.125000 0.475000
v -2.375000 0.125000 0.475000
v -1.500000 0.875000 -0.375000
v -1.525000 0.875000 -0.375000
v -2.375000 0.875000 0.500000
v -2.375000 0.875000 0.475000
v -1.625000 0.975000 0.375000
v -1.625000 0.875000 0.475000
v -2.500000 -0.000000 -0.500000
v -1.500000 -0.000000 -0.500000
v -1.500000 -0.000000 0.500000
v -2.500000 -0.000000 0.500000
v -1.500000 1.000000 -0.500000
v -2.500000 1.000000 0.500000
v -2.500000 1.000000 -0.500000
v -1.625000 1.000000 0.375000
v -1.625000 0.875000 0.500000
v -1.500000 1.000000 0.500000
v -1.525000 0.750013 0.375000
v -1.525000 0.875000 0.250013
v -1.500000 0.937494 0.437494
v -1.500000 0.750013 0.375000
v -1.500000 0.875000 0.250013
v -1.500000 0.062506 -0.437494
v -1.500000 0.249988 -0.375000
v -1.500000 0.125000 -0.250012
v -1.525000 0.249988 -0.375000
v -1.525000 0.125000 -0.250012
v -2.500000 0.062506 -0.437494
v -2.500000 0.125000 -0.250012
v -2.500000 0.249988 -0.375000
v -2.475000 0.249988 -0.375000
v -2.475000 0.125000 -0.250012
v -2.475000 0.875000 0.250013
v -2.475000 0.750013 0.375000
v -2.500000 0.937494 0.437494
v -2.500000 0.875000 0.250013
v -2.500000 0.750013 0.375000
vt 0.381410 0.254915
vt 0.144231 0.254915
vt 0.144231 0.262821
vt 0.381410 0.262821
vt 0.381410 0.507906
vt 0.618590 0.507906
vt 0.618590 0.500000
vt 0.381410 0.500000
vt 0.618590 0.966453
vt 0.381410 0.966453
vt 0.381410 0.974359
vt 0.618590 0.974359
vt 0.373504 0.025641
vt 0.373504 0.262821
vt 0.381410 0.262821
vt 0.381410 0.025641
vt 0.618590 0.262821
vt 0.618590 0.262821
vt 0.618590 0.025641
vt 0.855769 0.254915
vt 0.618590 0.254915
vt 0.855769 0.262821
vt 0.626496 0.262821
vt 0.626496 0.025641
vt 0.381410 0.270727
vt 0.618590 0.270727
vt 0.618590 0.729273
vt 0.381410 0.729273
vt 0.381410 0.737180
vt 0.618590 0.737180
vt 0.144231 0.033547
vt 0.381410 0.033547
vt 0.381410 0.025641
vt 0.144231 0.025641
vt 0.381410 0.745085
vt 0.618590 0.745085
vt 0.618590 0.737180
vt 0.381410 0.737180
vt 0.152137 0.262821
vt 0.152137 0.025641
vt 0.144231 0.025641
vt 0.144231 0.262821
vt 0.381410 0.974359
vt 0.618590 0.974359
vt 0.381410 0.500000
vt 0.618590 0.500000
vt 0.381410 0.737180
vt 0.411058 0.766827
vt 0.411058 0.944712
vt 0.588942 0.944712
vt 0.618590 0.974359
vt 0.381410 0.974359
vt 0.588942 0.766827
vt 0.618590 0.737180
vt 0.618590 0.500000
vt 0.411058 0.707532
vt 0.588942 0.707532
vt 0.588942 0.529647
vt 0.381410 0.025641
vt 0.381410 0.262821
vt 0.381410 0.500000
vt 0.411058 0.529647
vt 0.618590 0.033547
vt 0.618590 0.025641
vt 0.855769 0.033547
vt 0.855769 0.025641
vt 0.847863 0.025641
vt 0.847863 0.262821
vt 0.855769 0.262821
vt 0.855769 0.025641
vt 0.618590 0.492094
vt 0.381410 0.492094
vt 0.588942 0.233173
vt 0.588942 0.055288
vt 0.411058 0.055288
vt 0.618590 0.025641
vt 0.411058 0.233173
vt 0.588942 0.292468
vt 0.411058 0.292468
vt 0.411058 0.470353
vt 0.588942 0.470353
vt 0.381410 0.223295
vt 0.389316 0.025641
vt 0.389316 0.500000
vt 0.381410 0.302346
vt 0.389316 0.302346
vt 0.389316 0.262821
vt 0.389316 0.223295
vt 0.855769 0.025641
vt 0.840944 0.040466
vt 0.796477 0.055288
vt 0.648237 0.055288
vt 0.648237 0.203529
vt 0.633415 0.247995
vt 0.677882 0.233173
vt 0.826122 0.233173
vt 0.826122 0.084933
vt 0.855769 0.262821
vt 0.618590 0.262821
vt 0.183757 0.025641
vt 0.144231 0.065167
vt 0.144231 0.262821
vt 0.341884 0.262821
vt 0.381410 0.025641
vt 0.389316 0.974359
vt 0.381410 0.974359
vt 0.381410 0.697654
vt 0.381410 0.500000
vt 0.389316 0.776706
vt 0.381410 0.776706
vt 0.389316 0.737180
vt 0.389316 0.697654
vt 0.610684 0.500000
vt 0.618590 0.776706
vt 0.610684 0.974359
vt 0.618590 0.974359
vt 0.610684 0.697654
vt 0.618590 0.697654
vt 0.610684 0.737180
vt 0.610684 0.776706
vt 0.618590 0.025641
vt 0.658116 0.262821
vt 0.855769 0.262821
vt 0.855769 0.065167
vt 0.816243 0.025641
vt 0.366585 0.247995
vt 0.351763 0.203529
vt 0.351763 0.055288
vt 0.203523 0.055288
vt 0.144231 0.025641
vt 0.159056 0.040466
vt 0.173878 0.084933
vt 0.173878 0.233173
vt 0.322118 0.233173
vt 0.144231 0.262821
vt 0.618590 0.302346
vt 0.618590 0.500000
vt 0.610684 0.025641
vt 0.618590 0.223295
vt 0.610684 0.223295
vt 0.610684 0.262821
vt 0.610684 0.302346
vn 1.000000 0.000000 0.000000
vn 1.000000 0.000000 0.000000
vn 1.000000 0.000000 0.000000
vn 1.000000 0.000000 0.000000
vn 0.000000 0.000000 1.000000
vn 0.000000 0.000000 1.000000
vn 0.000000 0.000000 1.000000
vn 0.000000 0.000000 1.000000
vn 0.000000 1.000000 0.000000
vn 0.000000 1.000000 0.000000
vn 0.000000 1.000000 0.000000
vn 0.000000 1.000000 0.000000
vn 0.000000 1.000000 0.000000
vn 0.000000 1.000000 0.000000
vn 0.000000 1.000000 0.000000
vn 0.000000 1.000000 0.000000
vn 1.000000 0.000000 0.000000
vn 1.000000 0.000000 0.000000
vn 1.000000 0.000000 0.000000
vn 1.000000 0.000000 0.000000
vn 0.000000 0.000000 1.000000
vn 0.000000 0.000000 1.000000
vn 0.000000 0.000000 1.000000
vn 0.000000 0.000000 1.000000
vn 0.000000 -1.000000 0.000000
vn 0.000000 -1.000000 0.000000
vn 0.000000 -1.000000 0.000000
vn 0.000000 -1.000000 0.000000
vn -1.000000 0.000000 0.000000
vn -1.000000 0.000000 0.000000
vn -1.000000 0.000000 0.000000
vn -1.000000 0.000000 0.000000
vn -1.000000 0.000000 0.000000
vn -1.000000 0.000000 0.000000
vn 0.000000 0.000000 -1.000000
vn 0.000000 0.000000 -1.000000
vn 0.000000 0.000000 -1.000000
vn 0.000000 0.000000 -1.000000
vn -1.000000 0.000000 0.000000
vn -1.000000 0.000000 0.000000
vn -1.000000 0.000000 0.000000
vn -1.000000 0.000000 0.000000
vn 0.000000 0.000000 -1.000000
vn 0.000000 0.000000 -1.000000
vn 0.000000 0.000000 -1.000000
vn 0.000000 0.000000 -1.000000
vn 0.000000 0.000000 -1.000000
vn 0.000000 0.000000 -1.000000
vn 0.000000 0.000000 -1.000000
vn 0.000000 0.000000 -1.000000
vn -1.000000 0.000000 0.000000
vn -1.000000 0.000000 0.000000
vn -1.000000 0.000000 0.000000
vn -1.000000 0.000000 0.000000
vn 0.000000 -1.000000 0.000000
vn 0.000000 -1.000000 0.000000
vn 0.000000 -1.000000 0.000000
vn 0.000000 -1.000000 0.000000
vn 0.000000 -1.000000 0.000000
vn 0.000000 -1.000000 0.000000
vn 0.000000 -1.000000 0.000000
vn 0.000000 -1.000000 0.000000
vn 0.000000 0.000000 1.000000
vn 0.000000 0.000000 1.000000
vn 0.000000 0.000000 1.000000
vn 0.000000 0.000000 1.000000
vn 1.000000 0.000000 0.000000
vn 1.000000 0.000000 0.000000
vn 1.000000 0.000000 0.000000
vn 1.000000 0.000000 0.000000
vn 0.000000 1.000000 0.000000
vn 0.000000 1.000000 0.000000
vn 0.000000 1.000000 0.000000
vn 0.000000 1.000000 0.000000
vn 0.000000 1.000000 0.000000
vn 0.000000 1.000000 0.000000
vn 0.000000 1.000000 0.000000
vn 0.000000 1.000000 0.000000
vn 0.000000 0.000000 1.000000
vn 0.000000 0.000000 1.000000
vn 0.000000 0.000000 1.000000
vn 0.000000 0.000000 1.000000
vn 1.000000 0.000000 0.000000
vn 1.000000 0.000000 0.000000
vn 1.000000 0.000000 0.000000
vn 1.000000 0.000000 0.000000
vn 0.000000 1.000000 0.000000
vn 0.000000 1.000000 0.000000
vn 0.000000 1.000000 0.000000
vn 0.000000 1.000000 0.000000
vn 0.000000 0.000000 1.000000
vn 0.000000 0.000000 1.000000
vn 0.000000 0.000000 1.000000
vn 0.000000 0.000000 1.000000
vn 0.000000 -1.000000 0.000000
vn 0.000000 -1.000000 -0.000000
vn 0.000000 -1.000000 0.000000
vn 0.000000 -1.000000 0.000000
vn 0.000000 -1.000000 -0.000000
vn 0.000000 -1.000000 0.000000
vn 0.000000 -1.000000 0.000000
vn 0.000000 -1.000000 0.000000
vn 0.000000 0.000000 -1.000000
vn 0.000000 0.000000 -1.000000
vn 0.000000 0.000000 -1.000000
vn 0.000000 0.000000 -1.000000
vn 0.000000 0.000000 -1.000000
vn 0.000000 0.000000 -1.000000
vn -1.000000 0.000000 0.000000
vn -1.000000 0.000000 0.000000
vn -1.000000 0.000000 0.000000
vn -1.000000 0.000000 0.000000
vn -1.000000 0.000000 0.000000
vn -1.000000 0.000000 0.000000
vn -1.000000 0.000000 0.000000
vn -1.000000 0.000000 0.000000
vn 0.000000 0.000000 -1.000000
vn 0.000000 0.000000 -1.000000
vn 0.000000 0.000000 -1.000000
vn 0.000000 0.000000 -1.000000
vn 0.000000 0.000000 -1.000000
vn 0.000000 0.000000 -1.000000
vn -1.000000 0.000000 0.000000
vn -1.000000 0.000000 0.000000
vn -1.000000 0.000000 0.000000
vn -1.000000 0.000000 0.000000
vn 0.000000 0.000000 -1.000000
vn 0.000000 0.000000 -1.000000
vn 0.000000 0.000000 -1.000000
vn 0.000000 0.000000 -1.000000
vn -1.000000 0.000000 0.000000
vn -1.000000 0.000000 0.000000
vn -1.000000 0.000000 0.000000
vn -1.000000 0.000000 0.000000
vn 0.000000 -1.000000 0.000000
vn 0.000000 -1.000000 0.000000
vn 0.000000 -1.000000 0.000000
vn 0.000000 -1.000000 0.000000
vn 0.000000 -1.000000 0.000000
vn 0.000000 -1.000000 0.000000
vn 0.000000 -1.000000 0.000000
vn 0.000000 -1.000000 0.000000
vn 0.000000 0.000000 1.000000
vn 0.000000 0.000000 1.000000
vn 0.000000 0.000000 1.000000
vn 0.000000 0.000000 1.000000
vn 0.000000 0.000000 1.000000
vn 0.000000 0.000000 1.000000
vn 1.000000 0.000000 0.000000
vn 1.000000 0.000000 0.000000
vn 1.000000 0.000000 0.000000
vn 1.000000 0.000000 0.000000
vn 1.000000 0.000000 0.000000
vn 1.000000 0.000000 0.000000
vn 1.000000 0.000000 0.000000
vn 1.000000 0.000000 0.000000
vn 0.000000 0.000000 1.000000
vn 0.000000 0.000000 1.000000
vn 0.000000 1.000000 0.000000
vn 0.000000 1.000000 0.000000
vn 0.000000 1.000000 0.000000
vn 0.000000 1.000000 0.000000
vn 0.000000 1.000000 0.000000
vn 0.000000 1.000000 0.000000
vn 0.000000 1.000000 -0.000000
vn 0.000000 1.000000 -0.000000
vn 1.000000 0.000000 0.000000
vn 1.000000 0.000000 0.000000
vn 1.000000 0.000000 0.000000
vn 1.000000 0.000000 0.000000
vn 1.000000 0.000000 0.000000
vn 1.000000 0.000000 0.000000
vn 1.000000 0.000000 0.000000
vn 1.000000 0.000000 0.000000
vn 1.000000 0.000000 0.000000
vn 1.000000 0.000000 0.000000
vn -1.000000 0.000000 0.000000
vn -1.000000 0.000000 0.000000
vn -1.000000 0.000000 0.000000
vn -1.000000 0.000000 0.000000
vn 1.000000 0.000000 0.000000
vn 1.000000 0.000000 0.000000
vn 1.000000 0.000000 0.000000
vn 1.000000 0.000000 0.000000
vn 0.000000 0.707107 -0.707107
vn 0.000000 0.707107 -0.707107
vn 0.000000 0.707107 -0.707107
vn 0.000000 0.707107 -0.707107
vn -1.000000 0.000000 0.000000
vn -1.000000 0.000000 0.000000
vn -1.000000 0.000000 0.000000
vn -1.000000 0.000000 0.000000
vn 0.000000 -0.707107 0.707107
vn 0.000000 -0.707107 0.707107
vn 0.000000 -0.707107 0.707107
vn 0.000000 -0.707107 0.707107
vn -1.000000 0.000000 0.000000
vn -1.000000 0.000000 0.000000
vn -1.000000 0.000000 0.000000
vn -1.000000 0.000000 0.000000
vn 0.000000 0.707107 -0.707107
vn 0.000000 0.707107 -0.707107
vn 0.000000 0.707107 -0.707107
vn 0.000000 0.707107 -0.707107
vn 1.000000 0.000000 0.000000
vn 1.000000 0.000000 0.000000
vn 1.000000 0.000000 0.000000
vn 1.000000 0.000000 0.000000
vn 0.000000 -0.707107 0.707107
vn 0.000000 -0.707107 0.707107
vn 0.000000 -0.707107 0.707107
vn 0.000000 -0.707107 0.707107
s off
g PropZoo:pCube15
usemtl initialShadingGroup
f 1/1/1 2/2/2 3/3/3 4/4/4
f 2/5/5 5/6/6 6/7/7 3/8/8
f 63/114/9 60/120/10 7/115/11 8/116/12
f 9/9/13 10/10/14 11/11/15 12/12/16
f 10/13/17 13/14/18 14/15/19 11/16/20
f 15/113/21 61/117/22 62/118/23 16/137/24
f 4/4/25 3/8/26 6/7/27 17/17/28
f 8/121/29 65/139/30 64/122/31 16/123/32 62/124/33 63/125/34
f 11/16/35 14/15/36 18/18/37 12/19/38
f 5/20/39 19/21/40 17/17/41 6/22/42
f 19/21/43 1/1/44 4/4/45 17/17/46
f 7/138/47 68/140/48 65/139/49 8/121/50
f 20/23/51 9/24/52 12/19/53 18/18/54
f 13/25/55 20/26/56 18/18/57 14/15/58
f 64/136/59 67/142/60 15/113/61 16/137/62
f 21/27/63 22/28/64 23/29/65 24/30/66
f 22/31/67 25/32/68 26/33/69 23/34/70
f 27/105/71 56/109/72 58/110/73 28/106/74
f 29/35/75 30/36/76 31/37/77 32/38/78
f 57/107/79 55/112/80 33/84/81 34/108/82
f 35/39/83 29/40/84 32/41/85 36/42/86
f 23/29/87 26/43/88 37/44/89 24/30/90
f 36/45/91 32/38/92 31/37/93 38/46/94
s 1
f 19/47/95 5/48/96 2/49/97 39/50/98 40/51/99 41/52/100
f 39/50/98 2/49/97 1/53/101 19/47/95 41/52/100 42/54/102
s 2
f 43/55/103 40/51/104 39/50/105 10/56/106 9/57/107 20/58/108
s 3
f 39/130/109 59/131/110 61/132/111 15/133/112 67/134/113 66/126/114 44/60/115 45/135/116
s 2
f 45/61/117 43/55/103 20/58/108 13/62/118 10/56/106 39/50/105
s off
f 25/32/119 46/63/120 37/64/121 26/33/122
f 46/63/123 21/65/124 24/66/125 37/64/126
f 49/82/127 52/88/128 27/83/129 28/104/130
f 30/67/131 47/68/132 38/69/133 31/70/134
f 47/71/135 35/72/136 36/45/137 38/46/138
f 33/84/139 53/86/140 50/85/141 34/108/142
s 4
f 47/73/143 30/74/144 29/75/145 42/59/146 41/76/147 48/99/148
s 5
f 41/76/149 40/89/150 54/90/151 56/91/152 27/92/153 52/93/154 51/94/155 48/99/156
s 4
f 42/59/146 29/75/145 35/77/157 47/73/143 48/99/148 44/60/158
s 6
f 44/60/159 48/99/160 46/78/161 25/79/162 22/80/163 45/61/164
f 48/99/160 43/55/165 45/61/164 22/80/163 21/81/166 46/78/161
s 5
f 51/94/155 53/95/167 33/96/168 55/97/169 54/90/151 40/89/150 43/98/170 48/99/156
f 51/87/155 52/88/154 53/86/167
s off
f 58/100/171 57/101/172 34/102/173 50/103/174 49/82/175 28/104/176
s 5
f 54/111/151 55/112/169 56/109/152
s 3
f 59/119/110 60/120/177 61/117/111
f 66/126/114 68/127/178 7/128/179 60/129/177 59/131/110 39/130/109 42/59/180 44/60/115
f 66/141/114 67/142/113 68/140/178
s off
f 63/125/181 62/124/182 64/122/183 65/139/184
f 62/118/185 61/117/186 67/142/187 64/136/188
f 61/117/189 60/120/190 68/140/191 67/142/192
f 60/120/193 63/114/194 65/139/195 68/140/196
f 49/82/197 50/103/198 57/101/199 58/100/200
f 50/85/201 53/86/202 55/112/203 57/107/204
f 53/86/205 52/88/206 56/109/207 55/112/208
f 52/88/209 49/82/210 58/110/211 56/109/212
