# This file uses centimeters as units for non-parametric coordinates.

mtllib Props_Box_Geo.mtl
g default
v 3.427619 0.000000 -2.063485
v 4.011781 0.000000 -2.220010
v 3.427619 0.600000 -2.063485
v 4.011781 0.600000 -2.220010
v 3.271094 0.600000 -2.647647
v 3.855255 0.600000 -2.804172
v 3.271094 0.000000 -2.647647
v 3.855255 0.000000 -2.804172
v 3.442564 0.600000 -2.089369
v 3.985897 0.600000 -2.234955
v 3.840311 0.600000 -2.778288
v 3.296978 0.600000 -2.632702
v 3.442564 0.100000 -2.089369
v 3.985897 0.100000 -2.234955
v 3.840311 0.100000 -2.778288
v 3.296978 0.100000 -2.632702
v 4.345743 0.622251 -2.309495
v 4.189218 0.622251 -2.893657
v 4.185846 0.630109 -2.870874
v 4.331431 0.630109 -2.327540
v 3.371890 0.660207 -2.402064
v 3.890754 0.660207 -2.541093
v 3.388607 0.639793 -2.412207
v 3.871206 0.639793 -2.541519
v 3.377325 0.760567 -2.371531
v 3.901314 0.760567 -2.511934
v 3.883003 0.739433 -2.507027
v 3.395636 0.739433 -2.376438
v 3.412004 0.608331 -2.121763
v 3.286709 0.608331 -2.589369
v 3.428039 0.608331 -2.143574
v 3.311502 0.608331 -2.578497
v 3.375238 0.289165 -2.049449
v 3.218712 0.289165 -2.633611
v 3.359622 0.297495 -2.107727
v 3.234328 0.297495 -2.575333
vt 0.655498 0.257124
vt 0.655498 0.001992
vt 0.845338 0.001992
vt 0.845338 0.257124
vt 0.739661 0.515973
vt 0.739661 0.260841
vt 0.929501 0.260841
vt 0.929501 0.515973
vt 0.929501 0.760708
vt 0.929501 0.998008
vt 0.771301 0.998008
vt 0.771301 0.760708
vt 0.599037 0.760708
vt 0.599037 0.998008
vt 0.440837 0.998008
vt 0.440837 0.760708
vt 0.601673 0.784382
vt 0.601673 0.974334
vt 0.156326 0.774822
vt 0.156326 0.519691
vt 0.158962 0.545143
vt 0.158962 0.749370
vt 0.254675 0.519691
vt 0.257311 0.545143
vt 0.257311 0.749370
vt 0.254675 0.774822
vt 0.361770 0.519691
vt 0.361770 0.774822
vt 0.263421 0.774822
vt 0.263421 0.519691
vt 0.368701 0.519691
vt 0.606001 0.519691
vt 0.606001 0.756991
vt 0.368701 0.756991
vt 0.394113 0.001992
vt 0.649245 0.001992
vt 0.649245 0.257124
vt 0.394113 0.257124
vt 0.427602 0.515973
vt 0.427602 0.260841
vt 0.573460 0.260841
vt 0.573460 0.515973
vt 0.588090 0.515973
vt 0.579174 0.507057
vt 0.730086 0.507057
vt 0.733947 0.515973
vt 0.579174 0.269757
vt 0.730086 0.269757
vt 0.733947 0.260841
vt 0.588090 0.260841
vt 0.421888 0.260841
vt 0.421888 0.515973
vt 0.310809 0.501714
vt 0.310809 0.275101
vt 0.194017 0.515973
vt 0.202933 0.507057
vt 0.302788 0.493794
vt 0.305095 0.501714
vt 0.202933 0.269757
vt 0.302788 0.283020
vt 0.194017 0.260841
vt 0.305095 0.275101
vt 0.057285 0.515973
vt 0.057285 0.260841
vt 0.188303 0.273981
vt 0.188303 0.502833
vt 0.132873 0.519691
vt 0.123957 0.528606
vt 0.001855 0.540828
vt 0.001855 0.532831
vt 0.123957 0.765906
vt 0.001855 0.753685
vt 0.132873 0.774822
vt 0.001855 0.761682
vt 0.139990 0.749370
vt 0.139990 0.545143
vt 0.148906 0.552280
vt 0.148906 0.742232
vt 0.139990 0.519691
vt 0.148906 0.528606
vt 0.148906 0.765906
vt 0.139990 0.774822
vt 0.001855 0.257124
vt 0.001855 0.001992
vt 0.191695 0.001992
vt 0.191695 0.257124
vt 0.198075 0.257124
vt 0.198075 0.001992
vt 0.387915 0.001992
vt 0.387915 0.257124
vt 0.428436 0.989560
vt 0.428436 0.760708
vt 0.435123 0.768705
vt 0.435123 0.981562
vt 0.422722 0.760708
vt 0.422722 0.987321
vt 0.416263 0.979402
vt 0.416263 0.768627
vt 0.611934 0.756991
vt 0.611934 0.519691
vt 0.770134 0.519691
vt 0.770134 0.756991
vt 0.765587 0.760708
vt 0.765587 0.998008
vt 0.607387 0.998008
vt 0.607387 0.760708
vn 0.258819 0.000000 0.965926
vn 0.258819 0.000000 0.965926
vn 0.258819 0.000000 0.965926
vn 0.258819 0.000000 0.965926
vn 0.000000 1.000000 0.000000
vn 0.000000 1.000000 0.000000
vn 0.000000 1.000000 0.000000
vn 0.000000 1.000000 0.000000
vn -0.258819 0.000000 -0.965926
vn -0.258819 0.000000 -0.965926
vn -0.258819 0.000000 -0.965926
vn -0.258819 0.000000 -0.965926
vn 0.000000 -1.000000 0.000000
vn 0.000000 -1.000000 0.000000
vn 0.000000 -1.000000 0.000000
vn 0.000000 -1.000000 0.000000
vn 0.965926 0.000000 -0.258819
vn 0.965926 0.000000 -0.258819
vn 0.965926 0.000000 -0.258819
vn 0.965926 0.000000 -0.258819
vn -0.965926 0.000000 0.258819
vn -0.965926 0.000000 0.258819
vn -0.965926 0.000000 0.258819
vn -0.965926 0.000000 0.258819
vn -0.258819 0.000000 -0.965926
vn -0.258819 0.000000 -0.965926
vn -0.258819 0.000000 -0.965926
vn -0.258819 0.000000 -0.965926
vn 0.629170 0.758765 -0.168586
vn 0.629170 0.758765 -0.168586
vn 0.629170 0.758765 -0.168586
vn 0.629170 0.758765 -0.168586
vn 0.249999 -0.258832 0.933009
vn 0.249999 -0.258832 0.933009
vn 0.249999 -0.258832 0.933009
vn 0.249999 -0.258832 0.933009
vn -0.258819 0.000000 -0.965926
vn -0.258819 0.000000 -0.965926
vn -0.258819 0.000000 -0.965926
vn -0.258819 0.000000 -0.965926
vn -0.965926 0.000000 0.258819
vn -0.965926 0.000000 0.258819
vn -0.965926 0.000000 0.258819
vn -0.965926 0.000000 0.258819
vn 0.258819 0.000000 0.965926
vn 0.258819 0.000000 0.965926
vn 0.258819 0.000000 0.965926
vn 0.258819 0.000000 0.965926
vn 0.965926 0.000000 -0.258819
vn 0.965926 0.000000 -0.258819
vn 0.965926 0.000000 -0.258819
vn 0.965926 0.000000 -0.258819
vn 0.062035 -0.997936 -0.016622
vn 0.062035 -0.997936 -0.016622
vn 0.062035 -0.997936 -0.016622
vn 0.062035 -0.997936 -0.016622
vn -0.129804 0.970016 -0.205477
vn -0.129804 0.970016 -0.205477
vn -0.129804 0.970016 -0.205477
vn -0.129804 0.970016 -0.205477
vn -0.081014 0.996477 0.021708
vn -0.081014 0.996477 0.021708
vn -0.081014 0.996477 0.021708
vn -0.081014 0.996477 0.021708
vn -0.009675 0.970016 0.242849
vn -0.009675 0.970016 0.242849
vn -0.009675 0.970016 0.242849
vn -0.009675 0.970016 0.242849
vn -0.057693 0.974839 -0.215313
vn -0.057693 0.974839 -0.215313
vn -0.057693 0.974839 -0.215313
vn -0.057693 0.974839 -0.215313
vn -0.436070 -0.825962 0.357252
vn -0.436070 -0.825963 0.357252
vn -0.436070 -0.825962 0.357252
vn -0.436070 -0.825962 0.357252
vn 0.042910 -0.986161 0.160141
vn 0.042910 -0.986161 0.160141
vn 0.042910 -0.986161 0.160141
vn 0.042910 -0.986161 0.160141
vn 0.556274 -0.825962 0.091355
vn 0.556274 -0.825962 0.091355
vn 0.556274 -0.825962 0.091355
vn 0.556274 -0.825962 0.091355
vn 0.118866 0.888301 0.443613
vn 0.118866 0.888301 0.443613
vn 0.118866 0.888301 0.443613
vn 0.118866 0.888301 0.443613
vn 0.459088 -0.700557 -0.546313
vn 0.459088 -0.700557 -0.546313
vn 0.459088 -0.700557 -0.546313
vn 0.459088 -0.700557 -0.546313
vn -0.112330 -0.900909 -0.419220
vn -0.112330 -0.900909 -0.419220
vn -0.112330 -0.900909 -0.419220
vn -0.112330 -0.900909 -0.419220
vn -0.670739 -0.700557 -0.243576
vn -0.670739 -0.700557 -0.243576
vn -0.670739 -0.700557 -0.243576
vn -0.670739 -0.700557 -0.243576
vn 0.000000 1.000000 0.000000
vn 0.000000 1.000000 0.000000
vn 0.000000 1.000000 0.000000
vn 0.000000 1.000000 0.000000
vn -0.965926 -0.000000 0.258819
vn -0.965926 -0.000000 0.258819
vn -0.965926 -0.000000 0.258819
vn -0.965926 -0.000000 0.258819
vn 0.158540 0.981968 0.102977
vn 0.158540 0.981968 0.102977
vn 0.158540 0.981968 0.102977
vn 0.158540 0.981968 0.102977
vn 0.965926 0.000000 -0.258819
vn 0.965926 0.000000 -0.258819
vn 0.965926 0.000000 -0.258819
vn 0.965926 0.000000 -0.258819
vn 0.085811 0.981968 -0.168450
vn 0.085811 0.981968 -0.168450
vn 0.085811 0.981968 -0.168450
vn 0.085811 0.981968 -0.168450
vn 0.951553 -0.171867 -0.254968
vn 0.951553 -0.171867 -0.254968
vn 0.951553 -0.171867 -0.254968
vn 0.951553 -0.171867 -0.254968
vn -0.945145 0.171819 0.277813
vn -0.945145 0.171819 0.277813
vn -0.945145 0.171819 0.277813
vn -0.945145 0.171819 0.277813
vn -0.951553 0.171867 0.254968
vn -0.951553 0.171867 0.254968
vn -0.951553 0.171867 0.254968
vn -0.951553 0.171867 0.254968
vn -0.957426 0.171819 0.231980
vn -0.957426 0.171819 0.231980
vn -0.957426 0.171819 0.231980
vn -0.957426 0.171819 0.231980
s off
g pCube128
usemtl initialShadingGroup
f 1/83/1 2/84/2 4/85/3 3/86/4
f 13/31/5 14/32/6 15/33/7 16/34/8
f 5/87/9 6/88/10 8/89/11 7/90/12
f 7/35/13 8/36/14 2/37/15 1/38/16
f 2/1/17 8/2/18 6/3/19 4/4/20
f 7/5/21 1/6/22 3/7/23 5/8/24
f 25/91/25 26/92/26 27/93/27 28/94/28
f 17/49/29 18/46/30 19/45/31 20/48/32
f 22/95/33 21/96/34 23/97/35 24/98/36
f 9/99/37 10/100/38 14/101/39 13/102/40
f 10/9/41 11/10/42 15/11/43 14/12/44
f 11/103/45 12/104/46 16/105/47 15/106/48
f 12/13/49 9/14/50 13/15/51 16/16/52
f 4/39/53 6/40/54 18/41/55 17/42/56
f 6/43/57 11/44/58 19/45/59 18/46/60
f 11/44/61 10/47/62 20/48/63 19/45/64
f 10/47/65 4/50/66 17/49/67 20/48/68
f 6/51/69 5/52/70 21/53/71 22/54/72
f 5/55/73 12/56/74 23/57/75 21/58/76
f 12/56/77 11/59/78 24/60/79 23/57/80
f 11/59/81 6/61/82 22/62/83 24/60/84
f 3/63/85 4/64/86 26/65/87 25/66/88
f 4/67/89 10/68/90 27/69/91 26/70/92
f 10/68/93 9/71/94 28/72/95 27/69/96
f 9/71/97 3/73/98 25/74/99 28/72/100
f 30/75/101 29/76/102 31/77/103 32/78/104
f 34/19/105 33/20/106 35/21/107 36/22/108
f 3/79/109 9/80/110 31/77/111 29/76/112
f 9/14/113 12/13/114 32/17/115 31/18/116
f 12/81/117 5/82/118 30/75/119 32/78/120
f 5/27/121 3/28/122 33/29/123 34/30/124
f 3/23/125 29/24/126 35/21/127 33/20/128
f 29/24/129 30/25/130 36/22/131 35/21/132
f 30/25/133 5/26/134 34/19/135 36/22/136
g default
v 3.427619 0.000000 -2.063485
v 4.011781 0.000000 -2.220010
v 3.427619 0.600000 -2.063485
v 4.011781 0.600000 -2.220010
v 3.271094 0.600000 -2.647647
v 3.855255 0.600000 -2.804172
v 3.271094 0.000000 -2.647647
v 3.855255 0.000000 -2.804172
v 3.442564 0.600000 -2.089369
v 3.985897 0.600000 -2.234955
v 3.840311 0.600000 -2.778288
v 3.296978 0.600000 -2.632702
v 3.442564 0.100000 -2.089369
v 3.985897 0.100000 -2.234955
v 3.840311 0.100000 -2.778288
v 3.296978 0.100000 -2.632702
v 4.345743 0.622251 -2.309495
v 4.189218 0.622251 -2.893657
v 4.185846 0.630109 -2.870874
v 4.331431 0.630109 -2.327540
v 3.371890 0.660207 -2.402064
v 3.890754 0.660207 -2.541093
v 3.388607 0.639793 -2.412207
v 3.871206 0.639793 -2.541519
v 3.377325 0.760567 -2.371531
v 3.901314 0.760567 -2.511934
v 3.883003 0.739433 -2.507027
v 3.395636 0.739433 -2.376438
v 3.412004 0.608331 -2.121763
v 3.286709 0.608331 -2.589369
v 3.428039 0.608331 -2.143574
v 3.311502 0.608331 -2.578497
v 3.375238 0.289165 -2.049449
v 3.218712 0.289165 -2.633611
v 3.359622 0.297495 -2.107727
v 3.234328 0.297495 -2.575333
vt 0.655498 0.257124
vt 0.655498 0.001992
vt 0.845338 0.001992
vt 0.845338 0.257124
vt 0.739661 0.515973
vt 0.739661 0.260841
vt 0.929501 0.260841
vt 0.929501 0.515973
vt 0.929501 0.760708
vt 0.929501 0.998008
vt 0.771301 0.998008
vt 0.771301 0.760708
vt 0.599037 0.760708
vt 0.599037 0.998008
vt 0.440837 0.998008
vt 0.440837 0.760708
vt 0.601673 0.784382
vt 0.601673 0.974334
vt 0.156326 0.774822
vt 0.156326 0.519691
vt 0.158962 0.545143
vt 0.158962 0.749370
vt 0.254675 0.519691
vt 0.257311 0.545143
vt 0.257311 0.749370
vt 0.254675 0.774822
vt 0.361770 0.519691
vt 0.361770 0.774822
vt 0.263421 0.774822
vt 0.263421 0.519691
vt 0.368701 0.519691
vt 0.606001 0.519691
vt 0.606001 0.756991
vt 0.368701 0.756991
vt 0.394113 0.001992
vt 0.649245 0.001992
vt 0.649245 0.257124
vt 0.394113 0.257124
vt 0.427602 0.515973
vt 0.427602 0.260841
vt 0.573460 0.260841
vt 0.573460 0.515973
vt 0.588090 0.515973
vt 0.579174 0.507057
vt 0.730086 0.507057
vt 0.733947 0.515973
vt 0.579174 0.269757
vt 0.730086 0.269757
vt 0.733947 0.260841
vt 0.588090 0.260841
vt 0.421888 0.260841
vt 0.421888 0.515973
vt 0.310809 0.501714
vt 0.310809 0.275101
vt 0.194017 0.515973
vt 0.202933 0.507057
vt 0.302788 0.493794
vt 0.305095 0.501714
vt 0.202933 0.269757
vt 0.302788 0.283020
vt 0.194017 0.260841
vt 0.305095 0.275101
vt 0.057285 0.515973
vt 0.057285 0.260841
vt 0.188303 0.273981
vt 0.188303 0.502833
vt 0.132873 0.519691
vt 0.123957 0.528606
vt 0.001855 0.540828
vt 0.001855 0.532831
vt 0.123957 0.765906
vt 0.001855 0.753685
vt 0.132873 0.774822
vt 0.001855 0.761682
vt 0.139990 0.749370
vt 0.139990 0.545143
vt 0.148906 0.552280
vt 0.148906 0.742232
vt 0.139990 0.519691
vt 0.148906 0.528606
vt 0.148906 0.765906
vt 0.139990 0.774822
vt 0.001855 0.257124
vt 0.001855 0.001992
vt 0.191695 0.001992
vt 0.191695 0.257124
vt 0.198075 0.257124
vt 0.198075 0.001992
vt 0.387915 0.001992
vt 0.387915 0.257124
vt 0.428436 0.989560
vt 0.428436 0.760708
vt 0.435123 0.768705
vt 0.435123 0.981562
vt 0.422722 0.760708
vt 0.422722 0.987321
vt 0.416263 0.979402
vt 0.416263 0.768627
vt 0.611934 0.756991
vt 0.611934 0.519691
vt 0.770134 0.519691
vt 0.770134 0.756991
vt 0.765587 0.760708
vt 0.765587 0.998008
vt 0.607387 0.998008
vt 0.607387 0.760708
vn 0.258819 0.000000 0.965926
vn 0.258819 0.000000 0.965926
vn 0.258819 0.000000 0.965926
vn 0.258819 0.000000 0.965926
vn 0.000000 1.000000 0.000000
vn 0.000000 1.000000 0.000000
vn 0.000000 1.000000 0.000000
vn 0.000000 1.000000 0.000000
vn -0.258819 0.000000 -0.965926
vn -0.258819 0.000000 -0.965926
vn -0.258819 0.000000 -0.965926
vn -0.258819 0.000000 -0.965926
vn 0.000000 -1.000000 0.000000
vn 0.000000 -1.000000 0.000000
vn 0.000000 -1.000000 0.000000
vn 0.000000 -1.000000 0.000000
vn 0.965926 0.000000 -0.258819
vn 0.965926 0.000000 -0.258819
vn 0.965926 0.000000 -0.258819
vn 0.965926 0.000000 -0.258819
vn -0.965926 0.000000 0.258819
vn -0.965926 0.000000 0.258819
vn -0.965926 0.000000 0.258819
vn -0.965926 0.000000 0.258819
vn -0.258819 0.000000 -0.965926
vn -0.258819 0.000000 -0.965926
vn -0.258819 0.000000 -0.965926
vn -0.258819 0.000000 -0.965926
vn 0.629170 0.758765 -0.168586
vn 0.629170 0.758765 -0.168586
vn 0.629170 0.758765 -0.168586
vn 0.629170 0.758765 -0.168586
vn 0.249999 -0.258832 0.933009
vn 0.249999 -0.258832 0.933009
vn 0.249999 -0.258832 0.933009
vn 0.249999 -0.258832 0.933009
vn -0.258819 0.000000 -0.965926
vn -0.258819 0.000000 -0.965926
vn -0.258819 0.000000 -0.965926
vn -0.258819 0.000000 -0.965926
vn -0.965926 0.000000 0.258819
vn -0.965926 0.000000 0.258819
vn -0.965926 0.000000 0.258819
vn -0.965926 0.000000 0.258819
vn 0.258819 0.000000 0.965926
vn 0.258819 0.000000 0.965926
vn 0.258819 0.000000 0.965926
vn 0.258819 0.000000 0.965926
vn 0.965926 0.000000 -0.258819
vn 0.965926 0.000000 -0.258819
vn 0.965926 0.000000 -0.258819
vn 0.965926 0.000000 -0.258819
vn 0.062035 -0.997936 -0.016622
vn 0.062035 -0.997936 -0.016622
vn 0.062035 -0.997936 -0.016622
vn 0.062035 -0.997936 -0.016622
vn -0.129804 0.970016 -0.205477
vn -0.129804 0.970016 -0.205477
vn -0.129804 0.970016 -0.205477
vn -0.129804 0.970016 -0.205477
vn -0.081014 0.996477 0.021708
vn -0.081014 0.996477 0.021708
vn -0.081014 0.996477 0.021708
vn -0.081014 0.996477 0.021708
vn -0.009675 0.970016 0.242849
vn -0.009675 0.970016 0.242849
vn -0.009675 0.970016 0.242849
vn -0.009675 0.970016 0.242849
vn -0.057693 0.974839 -0.215313
vn -0.057693 0.974839 -0.215313
vn -0.057693 0.974839 -0.215313
vn -0.057693 0.974839 -0.215313
vn -0.436070 -0.825962 0.357252
vn -0.436070 -0.825963 0.357252
vn -0.436070 -0.825962 0.357252
vn -0.436070 -0.825962 0.357252
vn 0.042910 -0.986161 0.160141
vn 0.042910 -0.986161 0.160141
vn 0.042910 -0.986161 0.160141
vn 0.042910 -0.986161 0.160141
vn 0.556274 -0.825962 0.091355
vn 0.556274 -0.825962 0.091355
vn 0.556274 -0.825962 0.091355
vn 0.556274 -0.825962 0.091355
vn 0.118866 0.888301 0.443613
vn 0.118866 0.888301 0.443613
vn 0.118866 0.888301 0.443613
vn 0.118866 0.888301 0.443613
vn 0.459088 -0.700557 -0.546313
vn 0.459088 -0.700557 -0.546313
vn 0.459088 -0.700557 -0.546313
vn 0.459088 -0.700557 -0.546313
vn -0.112330 -0.900909 -0.419220
vn -0.112330 -0.900909 -0.419220
vn -0.112330 -0.900909 -0.419220
vn -0.112330 -0.900909 -0.419220
vn -0.670739 -0.700557 -0.243576
vn -0.670739 -0.700557 -0.243576
vn -0.670739 -0.700557 -0.243576
vn -0.670739 -0.700557 -0.243576
vn 0.000000 1.000000 0.000000
vn 0.000000 1.000000 0.000000
vn 0.000000 1.000000 0.000000
vn 0.000000 1.000000 0.000000
vn -0.965926 -0.000000 0.258819
vn -0.965926 -0.000000 0.258819
vn -0.965926 -0.000000 0.258819
vn -0.965926 -0.000000 0.258819
vn 0.158540 0.981968 0.102977
vn 0.158540 0.981968 0.102977
vn 0.158540 0.981968 0.102977
vn 0.158540 0.981968 0.102977
vn 0.965926 0.000000 -0.258819
vn 0.965926 0.000000 -0.258819
vn 0.965926 0.000000 -0.258819
vn 0.965926 0.000000 -0.258819
vn 0.085811 0.981968 -0.168450
vn 0.085811 0.981968 -0.168450
vn 0.085811 0.981968 -0.168450
vn 0.085811 0.981968 -0.168450
vn 0.951553 -0.171867 -0.254968
vn 0.951553 -0.171867 -0.254968
vn 0.951553 -0.171867 -0.254968
vn 0.951553 -0.171867 -0.254968
vn -0.945145 0.171819 0.277813
vn -0.945145 0.171819 0.277813
vn -0.945145 0.171819 0.277813
vn -0.945145 0.171819 0.277813
vn -0.951553 0.171867 0.254968
vn -0.951553 0.171867 0.254968
vn -0.951553 0.171867 0.254968
vn -0.951553 0.171867 0.254968
vn -0.957426 0.171819 0.231980
vn -0.957426 0.171819 0.231980
vn -0.957426 0.171819 0.231980
vn -0.957426 0.171819 0.231980
s off
g pCube128
f 37/189/137 38/190/138 40/191/139 39/192/140
f 49/137/141 50/138/142 51/139/143 52/140/144
f 41/193/145 42/194/146 44/195/147 43/196/148
f 43/141/149 44/142/150 38/143/151 37/144/152
f 38/107/153 44/108/154 42/109/155 40/110/156
f 43/111/157 37/112/158 39/113/159 41/114/160
f 61/197/161 62/198/162 63/199/163 64/200/164
f 53/155/165 54/152/166 55/151/167 56/154/168
f 58/201/169 57/202/170 59/203/171 60/204/172
f 45/205/173 46/206/174 50/207/175 49/208/176
f 46/115/177 47/116/178 51/117/179 50/118/180
f 47/209/181 48/210/182 52/211/183 51/212/184
f 48/119/185 45/120/186 49/121/187 52/122/188
f 40/145/189 42/146/190 54/147/191 53/148/192
f 42/149/193 47/150/194 55/151/195 54/152/196
f 47/150/197 46/153/198 56/154/199 55/151/200
f 46/153/201 40/156/202 53/155/203 56/154/204
f 42/157/205 41/158/206 57/159/207 58/160/208
f 41/161/209 48/162/210 59/163/211 57/164/212
f 48/162/213 47/165/214 60/166/215 59/163/216
f 47/165/217 42/167/218 58/168/219 60/166/220
f 39/169/221 40/170/222 62/171/223 61/172/224
f 40/173/225 46/174/226 63/175/227 62/176/228
f 46/174/229 45/177/230 64/178/231 63/175/232
f 45/177/233 39/179/234 61/180/235 64/178/236
f 66/181/237 65/182/238 67/183/239 68/184/240
f 70/125/241 69/126/242 71/127/243 72/128/244
f 39/185/245 45/186/246 67/183/247 65/182/248
f 45/120/249 48/119/250 68/123/251 67/124/252
f 48/187/253 41/188/254 66/181/255 68/184/256
f 41/133/257 39/134/258 69/135/259 70/136/260
f 39/129/261 65/130/262 71/127/263 69/126/264
f 65/130/265 66/131/266 72/128/267 71/127/268
f 66/131/269 41/132/270 70/125/271 72/128/272
