# This file uses centimeters as units for non-parametric coordinates.

mtllib Props_Rail_Geo.mtl
g default
v -0.500000 0.001559 0.090024
v 0.500000 0.001559 0.090024
v -0.500000 0.035535 0.085741
v 0.500000 0.035535 0.085741
v -0.500000 0.035535 -0.085741
v 0.500000 0.035535 -0.085741
v -0.500000 0.001559 -0.090024
v 0.500000 0.001559 -0.090024
v -0.500000 0.035535 -0.044987
v -0.500000 0.001559 -0.047234
v 0.500000 0.001559 -0.047234
v 0.500000 0.035535 -0.044987
v -0.500000 0.035535 0.033112
v -0.500000 0.001559 0.034766
v 0.500000 0.001559 0.034766
v 0.500000 0.035535 0.033112
v -0.500000 0.107018 0.054444
v 0.500000 0.107018 0.054444
v 0.500000 0.107018 0.021026
v -0.500000 0.107018 0.021026
v 0.500000 0.107018 -0.028566
v -0.500000 0.107018 -0.028566
v 0.500000 0.107018 -0.054444
v -0.500000 0.107018 -0.054444
vt 0.719105 0.181323
vt 0.719105 0.126285
vt 0.752946 0.124637
vt 0.752946 0.177057
vt 0.719105 0.044611
vt 0.752946 0.046850
vt 0.824144 0.112600
vt 0.824144 0.145884
vt 0.719105 0.001992
vt 0.752946 0.006258
vt 0.824144 0.037430
vt 0.824144 0.063205
vt 0.810691 0.240023
vt 0.810691 0.184985
vt 0.844532 0.189251
vt 0.844532 0.241670
vt 0.915730 0.220423
vt 0.915730 0.253708
vt 0.810691 0.321696
vt 0.844532 0.319458
vt 0.810691 0.364316
vt 0.844532 0.360050
vt 0.915730 0.303103
vt 0.915730 0.328878
vt 0.112880 0.998008
vt 0.112880 0.001992
vt 0.146165 0.001992
vt 0.146165 0.998008
vt 0.387388 0.998008
vt 0.387388 0.001992
vt 0.442426 0.001992
vt 0.442426 0.998008
vt 0.305714 0.998008
vt 0.305714 0.001992
vt 0.263095 0.998008
vt 0.263095 0.001992
vt 0.449076 0.998008
vt 0.449076 0.001992
vt 0.474850 0.001992
vt 0.474850 0.998008
vt 0.481265 0.998008
vt 0.481265 0.001992
vt 0.559052 0.001992
vt 0.559052 0.998008
vt 0.001828 0.998008
vt 0.001828 0.001992
vt 0.035668 0.001992
vt 0.035668 0.998008
vt 0.106867 0.001992
vt 0.106867 0.998008
vt 0.223420 0.998008
vt 0.223420 0.001992
vt 0.257261 0.001992
vt 0.257261 0.998008
vt 0.152222 0.998008
vt 0.152222 0.001992
vt 0.636512 0.001992
vt 0.636512 0.998008
vt 0.565313 0.998008
vt 0.565313 0.001992
vt 0.642209 0.998008
vt 0.642209 0.001992
vt 0.713408 0.001992
vt 0.713408 0.998008
vn 0.000000 0.125053 0.992150
vn 0.000000 0.125053 0.992150
vn 0.000000 0.319674 0.947528
vn 0.000000 0.319674 0.947528
vn 0.000000 1.000000 0.000000
vn 0.000000 1.000000 0.000000
vn 0.000000 1.000000 0.000000
vn 0.000000 1.000000 0.000000
vn 0.000000 0.319674 -0.947528
vn 0.000000 0.319674 -0.947528
vn 0.000000 0.125053 -0.992150
vn 0.000000 0.125053 -0.992150
vn 0.000000 -1.000000 0.000000
vn 0.000000 -1.000000 0.000000
vn 0.000000 -1.000000 0.000000
vn 0.000000 -1.000000 0.000000
vn 1.000000 -0.000003 0.000000
vn 1.000000 -0.000004 0.000000
vn 1.000000 -0.000002 0.000000
vn 1.000000 -0.000001 0.000000
vn -1.000000 -0.000004 0.000000
vn -1.000000 -0.000003 0.000000
vn -1.000000 -0.000001 0.000000
vn -1.000000 -0.000002 0.000000
vn -1.000000 -0.000003 0.000000
vn -1.000000 -0.000004 0.000000
vn -1.000000 -0.000003 0.000000
vn -1.000000 -0.000002 0.000000
vn 0.000000 -1.000000 0.000000
vn 0.000000 -1.000000 0.000000
vn 0.000000 -1.000000 0.000000
vn 0.000000 -1.000000 0.000000
vn 1.000000 -0.000003 0.000000
vn 1.000000 -0.000004 0.000000
vn 1.000000 -0.000003 0.000000
vn 1.000000 -0.000002 0.000000
vn 0.000000 1.000000 0.000000
vn 0.000000 1.000000 0.000000
vn 0.000000 1.000000 0.000000
vn 0.000000 1.000000 0.000000
vn -1.000000 -0.000004 0.000000
vn -1.000000 -0.000004 0.000000
vn -1.000000 -0.000002 0.000000
vn -1.000000 -0.000003 0.000000
vn 0.000000 -1.000000 0.000000
vn 0.000000 -1.000000 0.000000
vn 0.000000 -1.000000 0.000000
vn 0.000000 -1.000000 0.000000
vn 1.000000 -0.000002 0.000000
vn 1.000000 -0.000004 0.000000
vn 1.000000 -0.000004 0.000000
vn 1.000000 -0.000003 0.000000
vn 0.000000 1.000000 0.000000
vn 0.000000 1.000000 0.000000
vn 0.000000 1.000000 0.000000
vn 0.000000 1.000000 0.000000
vn 0.000000 0.319674 0.947528
vn 0.000000 0.319674 0.947528
vn 0.000000 0.401069 0.916048
vn 0.000000 0.401069 0.916048
vn 1.000000 -0.000001 0.000000
vn 1.000000 -0.000002 0.000000
vn 1.000000 0.000000 0.000000
vn 1.000000 0.000000 0.000000
vn 0.000000 -0.166718 -0.986005
vn 0.000000 -0.166718 -0.986005
vn 0.000000 -0.166718 -0.986005
vn 0.000000 -0.166718 -0.986005
vn -1.000000 -0.000002 0.000000
vn -1.000000 -0.000001 0.000000
vn -1.000000 0.000000 0.000000
vn -1.000000 0.000000 0.000000
vn 0.000000 -0.223889 0.974615
vn 0.000000 -0.223889 0.974615
vn 0.000000 -0.223889 0.974615
vn 0.000000 -0.223889 0.974615
vn 1.000000 -0.000003 0.000000
vn 1.000000 -0.000002 0.000000
vn 1.000000 0.000000 0.000000
vn 1.000000 0.000000 0.000000
vn 0.000000 0.319674 -0.947528
vn 0.000000 0.319674 -0.947528
vn 0.000000 0.401069 -0.916048
vn 0.000000 0.401069 -0.916048
vn -1.000000 -0.000002 0.000000
vn -1.000000 -0.000003 0.000000
vn -1.000000 0.000000 0.000000
vn -1.000000 0.000000 0.000000
s off
g Props_Rail_Geo:pCube2
usemtl initialShadingGroup
f 1/45/1 2/46/2 4/47/3 3/48/4
f 17/25/5 18/26/6 19/27/7 20/28/8
f 5/51/9 6/52/10 8/53/11 7/54/12
f 14/29/13 15/30/14 2/31/15 1/32/16
f 2/1/17 15/2/18 16/3/19 4/4/20
f 14/13/21 1/14/22 3/15/23 13/16/24
f 7/21/25 10/19/26 9/20/27 5/22/28
f 7/35/29 8/36/30 11/34/31 10/33/32
f 12/6/33 11/5/34 8/9/35 6/10/36
f 22/37/37 21/38/38 23/39/39 24/40/40
f 10/19/41 14/13/42 13/16/43 9/20/44
f 10/33/45 11/34/46 15/30/47 14/29/48
f 16/3/49 15/2/50 11/5/51 12/6/52
f 13/41/53 16/42/54 12/43/55 9/44/56
f 3/48/57 4/47/58 18/49/59 17/50/60
f 4/4/61 16/3/62 19/7/63 18/8/64
f 16/57/65 13/58/66 20/59/67 19/60/68
f 13/16/69 3/15/70 17/17/71 20/18/72
f 9/61/73 12/62/74 21/63/75 22/64/76
f 12/6/77 6/10/78 23/11/79 21/12/80
f 6/52/81 5/51/82 24/55/83 23/56/84
f 5/22/85 9/20/86 22/23/87 24/24/88
