# This file uses centimeters as units for non-parametric coordinates.

mtllib Props_Monitor_Geo.mtl
g default
v -6.300000 1.190000 2.611535
v -5.550000 1.190000 2.611535
v -6.300000 1.690000 2.611535
v -5.550000 1.690000 2.611535
v -6.300000 1.690000 2.561535
v -5.550000 1.690000 2.561535
v -6.300000 1.190000 2.561535
v -5.550000 1.190000 2.561535
v -6.018750 1.377500 2.661535
v -5.831250 1.377500 2.661535
v -5.831250 1.502500 2.661535
v -6.018750 1.502500 2.661535
v -6.018750 1.377500 2.711535
v -5.831250 1.377500 2.711535
v -5.831250 1.502500 2.711535
v -6.018750 1.502500 2.711535
v -6.018750 1.377500 2.811535
v -5.831250 1.377500 2.811535
v -5.831250 1.502500 2.811535
v -6.018750 1.502500 2.811535
v -6.018750 1.077500 2.711535
v -5.831250 1.077500 2.711535
v -5.831250 1.077500 2.811535
v -6.018750 1.077500 2.811535
v -6.166699 1.027500 2.624035
v -5.683301 1.027500 2.624035
v -5.683301 1.027500 2.899035
v -6.166699 1.027500 2.899035
v -6.273227 1.672151 2.561535
v -5.576773 1.672151 2.561535
v -5.576773 1.207849 2.561535
v -6.273227 1.207849 2.561535
v -6.273227 1.672151 2.570980
v -5.576773 1.672151 2.570980
v -5.576773 1.207849 2.570980
v -6.273227 1.207849 2.570980
v -6.212745 1.027500 2.597846
v -5.637255 1.027500 2.597846
v -5.637255 1.027500 2.925224
v -6.212745 1.027500 2.925224
v -6.212745 1.000053 2.597846
v -5.637255 1.000053 2.597846
v -5.637255 1.000053 2.925224
v -6.212745 1.000053 2.925224
vt 0.487382 0.462249
vt 0.517811 0.462249
vt 0.517811 0.766547
vt 0.487382 0.766547
vt 0.450817 0.462249
vt 0.481246 0.462249
vt 0.481246 0.766547
vt 0.450817 0.766547
vt 0.300668 0.644828
vt 0.300668 0.720902
vt 0.270239 0.720902
vt 0.270239 0.644828
vt 0.209379 0.720902
vt 0.209379 0.644828
vt 0.209379 0.462249
vt 0.270239 0.462249
vt 0.111955 0.720902
vt 0.111955 0.644828
vt 0.142384 0.644828
vt 0.142384 0.720902
vt 0.203244 0.644828
vt 0.203244 0.720902
vt 0.142384 0.462249
vt 0.203244 0.462249
vt 0.438934 0.744821
vt 0.438934 0.462249
vt 0.444681 0.462249
vt 0.444681 0.744821
vt 0.432798 0.462249
vt 0.432798 0.744821
vt 0.427051 0.744821
vt 0.427051 0.462249
vt 0.105819 0.462249
vt 0.105819 0.661490
vt 0.089115 0.661490
vt 0.089115 0.462249
vt 0.082980 0.462249
vt 0.082980 0.661490
vt 0.066276 0.661490
vt 0.066276 0.462249
vt 0.001992 0.458258
vt 0.001992 0.001811
vt 0.032422 0.001811
vt 0.032422 0.458258
vt 0.039217 0.458258
vt 0.039217 0.001811
vt 0.069647 0.001811
vt 0.069647 0.458258
vt 0.123022 0.839005
vt 0.123022 0.724893
vt 0.153452 0.724894
vt 0.153452 0.839005
vt 0.251341 0.724894
vt 0.251341 0.839005
vt 0.220912 0.839005
vt 0.220912 0.724894
vt 0.160052 0.839005
vt 0.160052 0.724894
vt 0.775001 0.779901
vt 0.775001 0.429661
vt 0.974242 0.429661
vt 0.974242 0.779901
vt 0.699675 0.694425
vt 0.699675 0.580313
vt 0.752927 0.490272
vt 0.752927 0.784466
vt 0.638816 0.580313
vt 0.585564 0.490272
vt 0.768866 0.462249
vt 0.768866 0.812489
vt 0.638816 0.694425
vt 0.585564 0.784466
vt 0.569625 0.462249
vt 0.569625 0.812489
vt 0.992260 0.425670
vt 0.992260 0.001811
vt 0.998008 0.001811
vt 0.998008 0.425670
vt 0.986125 0.429661
vt 0.986125 0.853520
vt 0.980377 0.853520
vt 0.980377 0.429661
vt 0.306804 0.644828
vt 0.420915 0.644828
vt 0.420915 0.720902
vt 0.306804 0.720902
vt 0.306804 0.462249
vt 0.420915 0.462249
vt 0.699912 0.425670
vt 0.699912 0.001811
vt 0.982484 0.001811
vt 0.982484 0.425670
vt 0.076247 0.458258
vt 0.076247 0.001811
vt 0.190359 0.172979
vt 0.190359 0.287090
vt 0.380545 0.001811
vt 0.266433 0.172979
vt 0.380545 0.458258
vt 0.266433 0.287090
vt 0.001992 0.724894
vt 0.116104 0.724894
vt 0.116104 0.907472
vt 0.001992 0.907472
vt 0.388080 0.458258
vt 0.388080 0.001811
vt 0.398942 0.018105
vt 0.398942 0.441964
vt 0.692377 0.001811
vt 0.681514 0.018105
vt 0.692377 0.458258
vt 0.681514 0.441964
vt 0.546786 0.812489
vt 0.546786 0.462249
vt 0.563490 0.462249
vt 0.563490 0.812489
vt 0.540651 0.462249
vt 0.540651 0.812489
vt 0.523947 0.812489
vt 0.523947 0.462249
vn 0.000000 0.000000 1.000000
vn 0.000000 0.000000 1.000000
vn 0.000000 0.000000 1.000000
vn 0.000000 0.000000 1.000000
vn 0.000000 1.000000 0.000000
vn 0.000000 1.000000 0.000000
vn 0.000000 1.000000 0.000000
vn 0.000000 1.000000 0.000000
vn 0.000000 0.000000 -1.000000
vn 0.000000 0.000000 -1.000000
vn 0.000000 0.000000 -1.000000
vn 0.000000 0.000000 -1.000000
vn 0.000000 -1.000000 0.000000
vn 0.000000 -1.000000 0.000000
vn 0.000000 -1.000000 0.000000
vn 0.000000 -1.000000 0.000000
vn 1.000000 0.000000 0.000000
vn 1.000000 0.000000 0.000000
vn 1.000000 0.000000 0.000000
vn 1.000000 0.000000 0.000000
vn -1.000000 0.000000 0.000000
vn -1.000000 0.000000 0.000000
vn -1.000000 0.000000 0.000000
vn -1.000000 0.000000 0.000000
vn 0.000000 -0.257663 0.966235
vn 0.000000 -0.257663 0.966235
vn 0.000000 -0.257663 0.966235
vn 0.000000 -0.257663 0.966235
vn 0.175033 0.000000 0.984563
vn 0.175033 0.000000 0.984563
vn 0.175033 0.000000 0.984563
vn 0.175033 0.000000 0.984563
vn 0.000000 0.257662 0.966235
vn 0.000000 0.257662 0.966235
vn 0.000000 0.257662 0.966235
vn 0.000000 0.257662 0.966235
vn -0.175033 0.000000 0.984563
vn -0.175033 0.000000 0.984563
vn -0.175033 0.000000 0.984563
vn -0.175033 0.000000 0.984563
vn 0.000000 -1.000000 -0.000001
vn 0.000000 -1.000000 -0.000001
vn 0.000000 -1.000000 -0.000001
vn 0.000000 -1.000000 -0.000001
vn 1.000000 -0.000000 0.000000
vn 1.000000 -0.000000 0.000000
vn 1.000000 -0.000000 0.000000
vn 1.000000 -0.000000 0.000000
vn 0.000000 1.000000 0.000000
vn 0.000000 1.000000 0.000000
vn 0.000000 1.000000 0.000000
vn 0.000000 1.000000 0.000000
vn -1.000000 -0.000000 0.000000
vn -1.000000 -0.000000 0.000000
vn -1.000000 -0.000000 0.000000
vn -1.000000 -0.000000 0.000000
vn 0.000000 -1.000000 0.000000
vn 0.000000 -1.000000 0.000000
vn 0.000000 -1.000000 0.000000
vn 0.000000 -1.000000 0.000000
vn 1.000000 -0.000000 0.000000
vn 1.000000 -0.000000 0.000000
vn 1.000000 -0.000000 0.000000
vn 1.000000 -0.000000 0.000000
vn 0.000000 1.000000 0.000000
vn 0.000000 1.000000 0.000000
vn 0.000000 1.000000 0.000000
vn 0.000000 1.000000 0.000000
vn -1.000000 -0.000000 0.000000
vn -1.000000 -0.000000 0.000000
vn -1.000000 -0.000000 0.000000
vn -1.000000 -0.000000 0.000000
vn 0.000000 0.000000 -1.000000
vn 0.000000 0.000000 -1.000000
vn 0.000000 0.000000 -1.000000
vn 0.000000 0.000000 -1.000000
vn 1.000000 0.000000 -0.000000
vn 1.000000 0.000000 -0.000000
vn 1.000000 0.000000 -0.000000
vn 1.000000 0.000000 -0.000000
vn 0.000000 0.000000 1.000000
vn 0.000000 0.000000 1.000000
vn 0.000000 0.000000 1.000000
vn 0.000000 0.000000 1.000000
vn -1.000000 0.000000 0.000000
vn -1.000000 0.000000 0.000000
vn -1.000000 0.000000 0.000000
vn -1.000000 0.000000 0.000000
vn 0.000000 0.868244 -0.496137
vn 0.000000 0.868244 -0.496137
vn 0.000000 0.868244 -0.496137
vn 0.000000 0.868244 -0.496137
vn 0.320163 0.947363 0.000000
vn 0.320163 0.947363 0.000000
vn 0.320163 0.947363 0.000000
vn 0.320163 0.947363 0.000000
vn 0.000000 0.868244 0.496137
vn 0.000000 0.868244 0.496137
vn 0.000000 0.868244 0.496137
vn 0.000000 0.868244 0.496137
vn -0.320163 0.947363 0.000000
vn -0.320163 0.947363 0.000000
vn -0.320163 0.947363 0.000000
vn -0.320163 0.947363 0.000000
vn 0.000000 0.000000 -1.000000
vn 0.000000 0.000000 -1.000000
vn 0.000000 0.000000 -1.000000
vn 0.000000 0.000000 -1.000000
vn -0.000000 0.000000 -1.000000
vn -0.000000 0.000000 -1.000000
vn -0.000000 0.000000 -1.000000
vn -0.000000 0.000000 -1.000000
vn 0.000000 0.000000 -1.000000
vn 0.000000 0.000000 -1.000000
vn 0.000000 0.000000 -1.000000
vn 0.000000 0.000000 -1.000000
vn 0.000000 0.000000 -1.000000
vn 0.000000 0.000000 -1.000000
vn 0.000000 0.000000 -1.000000
vn 0.000000 0.000000 -1.000000
vn 0.000000 -1.000000 0.000000
vn 0.000000 -1.000000 0.000000
vn 0.000000 -1.000000 0.000000
vn 0.000000 -1.000000 0.000000
vn -1.000000 0.000000 0.000000
vn -1.000000 0.000000 0.000000
vn -1.000000 0.000000 0.000000
vn -1.000000 0.000000 0.000000
vn 0.000000 1.000000 0.000000
vn 0.000000 1.000000 0.000000
vn 0.000000 1.000000 0.000000
vn 0.000000 1.000000 0.000000
vn 1.000000 0.000000 0.000000
vn 1.000000 0.000000 0.000000
vn 1.000000 0.000000 0.000000
vn 1.000000 0.000000 0.000000
vn 0.000000 1.000000 0.000000
vn 0.000000 1.000000 0.000000
vn 0.000000 1.000000 0.000000
vn 0.000000 1.000000 0.000000
vn 0.000000 1.000000 0.000000
vn 0.000000 1.000000 0.000000
vn 0.000000 1.000000 0.000000
vn 0.000000 1.000000 0.000000
vn 0.000000 1.000000 -0.000000
vn 0.000000 1.000000 -0.000000
vn 0.000000 1.000000 -0.000000
vn 0.000000 1.000000 -0.000000
vn 0.000000 1.000000 0.000000
vn 0.000000 1.000000 0.000000
vn 0.000000 1.000000 0.000000
vn 0.000000 1.000000 0.000000
vn 0.000000 0.000000 -1.000000
vn 0.000000 0.000000 -1.000000
vn 0.000000 0.000000 -1.000000
vn 0.000000 0.000000 -1.000000
vn 1.000000 0.000000 0.000000
vn 1.000000 0.000000 0.000000
vn 1.000000 0.000000 0.000000
vn 1.000000 0.000000 0.000000
vn 0.000000 0.000000 1.000000
vn 0.000000 0.000000 1.000000
vn 0.000000 0.000000 1.000000
vn 0.000000 0.000000 1.000000
vn -1.000000 0.000000 0.000000
vn -1.000000 0.000000 0.000000
vn -1.000000 0.000000 0.000000
vn -1.000000 0.000000 0.000000
s off
g PropZoo:pCube84
usemtl initialShadingGroup
f 17/83/1 18/84/2 19/85/3 20/86/4
f 3/41/5 4/42/6 6/43/7 5/44/8
f 33/89/9 34/90/10 35/91/11 36/92/12
f 7/45/13 8/46/14 2/47/15 1/48/16
f 2/1/17 8/2/18 6/3/19 4/4/20
f 7/5/21 1/6/22 3/7/23 5/8/24
f 1/93/25 2/94/26 10/95/27 9/96/28
f 2/94/29 4/97/30 11/98/31 10/95/32
f 4/97/33 3/99/34 12/100/35 11/98/36
f 3/99/37 1/93/38 9/96/39 12/100/40
f 9/49/41 10/50/42 14/51/43 13/52/44
f 10/9/45 11/10/46 15/11/47 14/12/48
f 11/53/49 12/54/50 16/55/51 15/56/52
f 12/17/53 9/18/54 13/19/55 16/20/56
f 41/59/57 42/60/58 43/61/59 44/62/60
f 14/12/61 15/11/62 19/13/63 18/14/64
f 15/56/65 16/55/66 20/57/67 19/58/68
f 16/20/69 13/19/70 17/21/71 20/22/72
f 13/101/73 14/102/74 22/103/75 21/104/76
f 14/12/77 18/14/78 23/15/79 22/16/80
f 18/84/81 17/83/82 24/87/83 23/88/84
f 17/21/85 13/19/86 21/23/87 24/24/88
f 21/63/89 22/64/90 26/65/91 25/66/92
f 22/64/93 23/67/94 27/68/95 26/65/96
f 23/67/97 24/71/98 28/72/99 27/68/100
f 24/71/101 21/63/102 25/66/103 28/72/104
f 5/105/105 6/106/106 30/107/107 29/108/108
f 6/106/109 8/109/110 31/110/111 30/107/112
f 8/109/113 7/111/114 32/112/115 31/110/116
f 7/111/117 5/105/118 29/108/119 32/112/120
f 29/75/121 30/76/122 34/77/123 33/78/124
f 30/25/125 31/26/126 35/27/127 34/28/128
f 31/79/129 32/80/130 36/81/131 35/82/132
f 32/29/133 29/30/134 33/31/135 36/32/136
f 25/66/137 26/65/138 38/69/139 37/70/140
f 26/65/141 27/68/142 39/73/143 38/69/144
f 27/68/145 28/72/146 40/74/147 39/73/148
f 28/72/149 25/66/150 37/70/151 40/74/152
f 37/113/153 38/114/154 42/115/155 41/116/156
f 38/33/157 39/34/158 43/35/159 42/36/160
f 39/117/161 40/118/162 44/119/163 43/120/164
f 40/37/165 37/38/166 41/39/167 44/40/168
