# This file uses centimeters as units for non-parametric coordinates.

mtllib Props_Smalltable_Geo.mtl
g default
v -8.375000 0.550000 2.875000
v -7.625000 0.550000 2.875000
v -8.375000 0.700000 2.875000
v -7.625000 0.700000 2.875000
v -8.375000 0.700000 2.125000
v -7.625000 0.700000 2.125000
v -8.375000 0.550000 2.125000
v -7.625000 0.550000 2.125000
v -8.356250 0.000000 2.856250
v -8.243750 0.000000 2.856250
v -8.375000 0.550000 2.875000
v -8.225000 0.550000 2.875000
v -8.375000 0.550000 2.725000
v -8.225000 0.550000 2.725000
v -8.356250 0.000000 2.743750
v -8.243750 0.000000 2.743750
v -8.356250 0.000000 2.256250
v -8.243750 0.000000 2.256250
v -8.375000 0.550000 2.275000
v -8.225000 0.550000 2.275000
v -8.375000 0.550000 2.125000
v -8.225000 0.550000 2.125000
v -8.356250 0.000000 2.143750
v -8.243750 0.000000 2.143750
v -7.756250 0.000000 2.256250
v -7.643750 0.000000 2.256250
v -7.775000 0.550000 2.275000
v -7.625000 0.550000 2.275000
v -7.775000 0.550000 2.125000
v -7.625000 0.550000 2.125000
v -7.756250 0.000000 2.143750
v -7.643750 0.000000 2.143750
v -7.756250 0.000000 2.856250
v -7.643750 0.000000 2.856250
v -7.775000 0.550000 2.875000
v -7.625000 0.550000 2.875000
v -7.775000 0.550000 2.725000
v -7.625000 0.550000 2.725000
v -7.756250 0.000000 2.743750
v -7.643750 0.000000 2.743750
vt 0.923294 0.752989
vt 0.923294 0.379420
vt 0.998008 0.379420
vt 0.998008 0.752989
vt 0.842445 0.752989
vt 0.842445 0.379420
vt 0.917159 0.379420
vt 0.917159 0.752989
vt 0.609237 0.379420
vt 0.665272 0.379420
vt 0.674612 0.653370
vt 0.599898 0.653370
vt 0.528388 0.379420
vt 0.584423 0.379420
vt 0.593762 0.653370
vt 0.519048 0.653370
vt 0.285840 0.379420
vt 0.341875 0.379420
vt 0.351215 0.653370
vt 0.276501 0.653370
vt 0.204991 0.379420
vt 0.261026 0.379420
vt 0.270365 0.653370
vt 0.195652 0.653370
vt 0.011331 0.657362
vt 0.067367 0.657362
vt 0.076706 0.931313
vt 0.001992 0.931313
vt 0.093382 0.657362
vt 0.149417 0.657362
vt 0.158757 0.931313
vt 0.084043 0.931313
vt 0.338950 0.657362
vt 0.394986 0.657362
vt 0.404325 0.931313
vt 0.329611 0.931313
vt 0.420806 0.657362
vt 0.476842 0.657362
vt 0.486181 0.931313
vt 0.411467 0.931313
vt 0.084043 0.001859
vt 0.457612 0.001859
vt 0.457612 0.375428
vt 0.084043 0.375428
vt 0.545945 0.001859
vt 0.919514 0.001859
vt 0.919514 0.375428
vt 0.545945 0.375428
vt 0.493323 0.657362
vt 0.568037 0.657362
vt 0.568037 0.732076
vt 0.493323 0.732076
vt 0.820747 0.756980
vt 0.876782 0.756980
vt 0.876782 0.813016
vt 0.820747 0.813016
vt 0.575179 0.657362
vt 0.649893 0.657362
vt 0.649893 0.732076
vt 0.575179 0.732076
vt 0.883113 0.756980
vt 0.939149 0.756980
vt 0.939149 0.813016
vt 0.883113 0.813016
vt 0.657035 0.657362
vt 0.731749 0.657362
vt 0.731749 0.732076
vt 0.657035 0.732076
vt 0.941973 0.817007
vt 0.998008 0.817007
vt 0.998008 0.873042
vt 0.941973 0.873042
vt 0.738891 0.657362
vt 0.813605 0.657362
vt 0.813605 0.732076
vt 0.738891 0.732076
vt 0.879802 0.817007
vt 0.935837 0.817007
vt 0.935837 0.873042
vt 0.879802 0.873042
vt 0.001992 0.375428
vt 0.001992 0.001859
vt 0.076706 0.001859
vt 0.076706 0.375428
vt 0.464089 0.375428
vt 0.464089 0.001859
vt 0.538803 0.001859
vt 0.538803 0.375428
vt 0.770935 0.379420
vt 0.826971 0.379420
vt 0.836310 0.653370
vt 0.761596 0.653370
vt 0.680747 0.379420
vt 0.755461 0.379420
vt 0.746122 0.653370
vt 0.690086 0.653370
vt 0.447539 0.379420
vt 0.503574 0.379420
vt 0.512913 0.653370
vt 0.438199 0.653370
vt 0.357350 0.379420
vt 0.432064 0.379420
vt 0.422725 0.653370
vt 0.366689 0.653370
vt 0.124142 0.379420
vt 0.180177 0.379420
vt 0.189516 0.653370
vt 0.114803 0.653370
vt 0.033953 0.379420
vt 0.108667 0.379420
vt 0.099328 0.653370
vt 0.043292 0.653370
vt 0.175238 0.657362
vt 0.231273 0.657362
vt 0.240613 0.931313
vt 0.165899 0.931313
vt 0.247755 0.657362
vt 0.322469 0.657362
vt 0.313129 0.931313
vt 0.257094 0.931313
vn 0.000000 0.000000 1.000000
vn 0.000000 0.000000 1.000000
vn 0.000000 0.000000 1.000000
vn 0.000000 0.000000 1.000000
vn 0.000000 1.000000 0.000000
vn 0.000000 1.000000 0.000000
vn 0.000000 1.000000 0.000000
vn 0.000000 1.000000 0.000000
vn 0.000000 0.000000 -1.000000
vn 0.000000 0.000000 -1.000000
vn 0.000000 0.000000 -1.000000
vn 0.000000 0.000000 -1.000000
vn 0.000000 -1.000000 0.000000
vn 0.000000 -1.000000 0.000000
vn 0.000000 -1.000000 0.000000
vn 0.000000 -1.000000 0.000000
vn 1.000000 0.000000 0.000000
vn 1.000000 0.000000 0.000000
vn 1.000000 0.000000 0.000000
vn 1.000000 0.000000 0.000000
vn -1.000000 0.000000 0.000000
vn -1.000000 0.000000 0.000000
vn -1.000000 0.000000 0.000000
vn -1.000000 0.000000 0.000000
vn 0.000000 -0.034072 0.999419
vn 0.000000 -0.034072 0.999419
vn 0.000000 -0.034072 0.999419
vn 0.000000 -0.034072 0.999419
vn 0.000000 1.000000 0.000000
vn 0.000000 1.000000 0.000000
vn 0.000000 1.000000 0.000000
vn 0.000000 1.000000 0.000000
vn 0.000000 -0.034071 -0.999419
vn 0.000000 -0.034071 -0.999419
vn 0.000000 -0.034071 -0.999419
vn 0.000000 -0.034071 -0.999419
vn 0.000000 -1.000000 0.000000
vn 0.000000 -1.000000 0.000000
vn 0.000000 -1.000000 0.000000
vn 0.000000 -1.000000 0.000000
vn 0.999419 -0.034070 0.000000
vn 0.999420 -0.034070 0.000000
vn 0.999419 -0.034070 0.000000
vn 0.999420 -0.034070 0.000000
vn -0.999419 -0.034072 0.000000
vn -0.999419 -0.034072 0.000000
vn -0.999419 -0.034072 0.000000
vn -0.999419 -0.034072 0.000000
vn 0.000000 -0.034072 0.999419
vn 0.000000 -0.034072 0.999419
vn 0.000000 -0.034072 0.999419
vn 0.000000 -0.034072 0.999419
vn 0.000000 1.000000 0.000000
vn 0.000000 1.000000 0.000000
vn 0.000000 1.000000 0.000000
vn 0.000000 1.000000 0.000000
vn 0.000000 -0.034071 -0.999419
vn 0.000000 -0.034071 -0.999419
vn 0.000000 -0.034071 -0.999419
vn 0.000000 -0.034071 -0.999419
vn 0.000000 -1.000000 0.000000
vn 0.000000 -1.000000 0.000000
vn 0.000000 -1.000000 0.000000
vn 0.000000 -1.000000 0.000000
vn 0.999419 -0.034070 0.000000
vn 0.999420 -0.034070 0.000000
vn 0.999419 -0.034070 0.000000
vn 0.999420 -0.034070 0.000000
vn -0.999419 -0.034072 0.000000
vn -0.999419 -0.034072 0.000000
vn -0.999419 -0.034072 0.000000
vn -0.999419 -0.034072 0.000000
vn 0.000000 -0.034071 0.999419
vn 0.000000 -0.034071 0.999419
vn 0.000000 -0.034071 0.999419
vn 0.000000 -0.034071 0.999419
vn 0.000000 1.000000 0.000000
vn 0.000000 1.000000 0.000000
vn 0.000000 1.000000 0.000000
vn 0.000000 1.000000 0.000000
vn 0.000000 -0.034071 -0.999419
vn 0.000000 -0.034071 -0.999419
vn 0.000000 -0.034071 -0.999419
vn 0.000000 -0.034071 -0.999419
vn 0.000000 -1.000000 0.000000
vn 0.000000 -1.000000 0.000000
vn 0.000000 -1.000000 0.000000
vn 0.000000 -1.000000 0.000000
vn 0.999419 -0.034072 0.000000
vn 0.999419 -0.034072 0.000000
vn 0.999419 -0.034072 0.000000
vn 0.999419 -0.034072 0.000000
vn -0.999419 -0.034071 0.000000
vn -0.999419 -0.034071 0.000000
vn -0.999419 -0.034071 0.000000
vn -0.999419 -0.034071 0.000000
vn 0.000000 -0.034071 0.999419
vn 0.000000 -0.034071 0.999419
vn 0.000000 -0.034071 0.999419
vn 0.000000 -0.034071 0.999419
vn 0.000000 1.000000 0.000000
vn 0.000000 1.000000 0.000000
vn 0.000000 1.000000 0.000000
vn 0.000000 1.000000 0.000000
vn 0.000000 -0.034071 -0.999419
vn 0.000000 -0.034071 -0.999419
vn 0.000000 -0.034071 -0.999419
vn 0.000000 -0.034071 -0.999419
vn 0.000000 -1.000000 0.000000
vn 0.000000 -1.000000 0.000000
vn 0.000000 -1.000000 0.000000
vn 0.000000 -1.000000 0.000000
vn 0.999419 -0.034072 0.000000
vn 0.999419 -0.034072 0.000000
vn 0.999419 -0.034072 0.000000
vn 0.999419 -0.034072 0.000000
vn -0.999419 -0.034071 0.000000
vn -0.999419 -0.034071 0.000000
vn -0.999419 -0.034071 0.000000
vn -0.999419 -0.034071 0.000000
s off
g PropZoo:pCube70
usemtl initialShadingGroup
f 1/81/1 2/82/2 4/83/3 3/84/4
f 3/41/5 4/42/6 6/43/7 5/44/8
f 5/85/9 6/86/10 8/87/11 7/88/12
f 7/45/13 8/46/14 2/47/15 1/48/16
f 2/1/17 8/2/18 6/3/19 4/4/20
f 7/5/21 1/6/22 3/7/23 5/8/24
f 9/89/25 10/90/26 12/91/27 11/92/28
f 11/49/29 12/50/30 14/51/31 13/52/32
f 13/93/33 14/94/34 16/95/35 15/96/36
f 15/53/37 16/54/38 10/55/39 9/56/40
f 10/9/41 16/10/42 14/11/43 12/12/44
f 15/13/45 9/14/46 11/15/47 13/16/48
f 17/97/49 18/98/50 20/99/51 19/100/52
f 19/57/53 20/58/54 22/59/55 21/60/56
f 21/101/57 22/102/58 24/103/59 23/104/60
f 23/61/61 24/62/62 18/63/63 17/64/64
f 18/17/65 24/18/66 22/19/67 20/20/68
f 23/21/69 17/22/70 19/23/71 21/24/72
f 25/105/73 26/106/74 28/107/75 27/108/76
f 27/65/77 28/66/78 30/67/79 29/68/80
f 29/109/81 30/110/82 32/111/83 31/112/84
f 31/69/85 32/70/86 26/71/87 25/72/88
f 26/25/89 32/26/90 30/27/91 28/28/92
f 31/29/93 25/30/94 27/31/95 29/32/96
f 33/113/97 34/114/98 36/115/99 35/116/100
f 35/73/101 36/74/102 38/75/103 37/76/104
f 37/117/105 38/118/106 40/119/107 39/120/108
f 39/77/109 40/78/110 34/79/111 33/80/112
f 34/33/113 40/34/114 38/35/115 36/36/116
f 39/37/117 33/38/118 35/39/119 37/40/120
